<svg width="237" height="73" viewBox="0 0 237 73" fill="none" xmlns="http://www.w3.org/2000/svg">
<path d="M6.95117 13.025C6.95117 14.6578 8.16504 15.5709 9.83008 15.5709C11.291 15.5709 12.3652 14.8512 12.3652 13.6051C12.3652 12.5201 11.7422 11.983 10.5068 11.7467L9.28223 11.5103C8.49805 11.36 8.05762 11.1451 8.05762 10.4791C8.05762 9.72714 8.60547 9.26523 9.58301 9.26523C10.7002 9.26523 11.377 9.89902 11.4092 11.0162L12.2578 10.9732C12.2471 9.44784 11.2695 8.5455 9.57227 8.5455C8.08985 8.5455 7.15527 9.35116 7.15527 10.5328C7.15527 11.5855 7.84278 12.1227 8.8418 12.316L10.1846 12.5738C11.0654 12.7457 11.4736 13.0465 11.4736 13.6695C11.4736 14.4107 10.8399 14.8404 9.83008 14.8404C8.69141 14.8404 7.84278 14.2066 7.78906 12.9713L6.95117 13.025Z" fill="#BFEA88"/>
<path d="M19.8047 12.0582C19.8047 9.97421 18.4082 8.5455 16.4424 8.5455C14.4659 8.5455 13.0801 9.97421 13.0801 12.0582C13.0801 14.1422 14.4659 15.5709 16.4424 15.5709C18.4082 15.5709 19.8047 14.1422 19.8047 12.0582ZM18.8379 12.0582C18.8379 13.7125 17.9034 14.776 16.4424 14.776C14.9815 14.776 14.0362 13.7125 14.0362 12.0582C14.0362 10.4039 14.9815 9.34042 16.4424 9.34042C17.9034 9.34042 18.8379 10.4039 18.8379 12.0582Z" fill="#BFEA88"/>
<path d="M24.5469 15.442L26.5235 9.61972H26.5664V15.442H27.501V8.6744H26.0293L24.2246 14.1852H24.1924L22.291 8.6744H20.7979V15.442H21.668V9.61972H21.711L23.7627 15.442H24.5469Z" fill="#BFEA88"/>
<path d="M33.6358 14.6686H29.7149V12.3375H32.755V11.5748H29.7149V9.44784H33.5391V8.6744H28.8126V15.442H33.6358V14.6686Z" fill="#BFEA88"/>
<path d="M35.6215 15.442V12.4664H38.5219V11.693H35.6215V9.44784H39.3169V8.6744H34.6977V15.442H35.6215Z" fill="#BFEA88"/>
<path d="M46.335 12.0582C46.335 9.97421 44.9386 8.5455 42.9727 8.5455C40.9962 8.5455 39.6104 9.97421 39.6104 12.0582C39.6104 14.1422 40.9962 15.5709 42.9727 15.5709C44.9386 15.5709 46.335 14.1422 46.335 12.0582ZM45.3683 12.0582C45.3683 13.7125 44.4337 14.776 42.9727 14.776C41.5118 14.776 40.5665 13.7125 40.5665 12.0582C40.5665 10.4039 41.5118 9.34042 42.9727 9.34042C44.4337 9.34042 45.3683 10.4039 45.3683 12.0582Z" fill="#BFEA88"/>
<path d="M47.3282 8.6744V15.442H52.0333V14.6686H48.2628V8.6744H47.3282Z" fill="#BFEA88"/>
<path d="M58.6012 15.442L55.3678 11.65L58.279 8.6744H57.1725L53.8961 12.0152V8.6744H52.9616V15.442H53.8961V13.025L54.6803 12.2301L57.4733 15.442H58.6012Z" fill="#BFEA88"/>
<path d="M61.6585 14.0887H60.9714V9.83486H62.4453C62.9663 9.83486 63.3335 9.87682 63.5468 9.96074C63.7636 10.0412 63.9367 10.1775 64.0661 10.3699C64.1955 10.5622 64.2601 10.7668 64.2601 10.9836C64.2601 11.3088 64.1465 11.5833 63.9192 11.8071C63.6919 12.0309 63.3999 12.1567 63.0433 12.1847C63.2041 12.2512 63.3545 12.3613 63.4943 12.5152C63.6377 12.6655 63.8178 12.9138 64.0346 13.26L64.5486 14.0887H63.7094L63.337 13.4226C63.0677 12.9435 62.8544 12.6341 62.6971 12.4942C62.5397 12.3508 62.3299 12.2791 62.0676 12.2791H61.6585V14.0887ZM61.6585 10.4118V11.6917H62.4978C62.8544 11.6917 63.1149 11.641 63.2793 11.5396C63.4436 11.4346 63.5258 11.2703 63.5258 11.0465C63.5258 10.8122 63.4454 10.6479 63.2845 10.5535C63.1272 10.459 62.8474 10.4118 62.4453 10.4118H61.6585ZM62.5555 8.00952C63.2618 8.00952 63.921 8.18786 64.5329 8.54453C65.1448 8.89771 65.6274 9.38027 65.9806 9.99221C66.3373 10.6007 66.5156 11.2581 66.5156 11.9644C66.5156 12.6743 66.339 13.3334 65.9858 13.9419C65.6326 14.5503 65.1501 15.0311 64.5381 15.3843C63.9262 15.7375 63.2653 15.9141 62.5555 15.9141C61.8421 15.9141 61.1795 15.7392 60.5675 15.3895C59.9556 15.0364 59.473 14.5556 59.1198 13.9471C58.7667 13.3352 58.5901 12.6743 58.5901 11.9644C58.5901 11.2546 58.7667 10.5954 59.1198 9.98697C59.4765 9.37503 59.9608 8.89247 60.5728 8.53929C61.1847 8.18611 61.8456 8.00952 62.5555 8.00952ZM62.5555 8.66517C61.6463 8.66517 60.8682 8.98863 60.2213 9.63554C59.5779 10.279 59.2562 11.0552 59.2562 11.9644C59.2562 12.8771 59.5779 13.6551 60.2213 14.2985C60.8647 14.9385 61.6428 15.2584 62.5555 15.2584C63.4646 15.2584 64.2409 14.9367 64.8843 14.2933C65.5277 13.6499 65.8494 12.8736 65.8494 11.9644C65.8494 11.0552 65.526 10.279 64.8791 9.63554C64.2357 8.98863 63.4611 8.66517 62.5555 8.66517Z" fill="#BFEA88"/>
<path d="M71.1109 14.6793V9.4371H72.5719C74.2262 9.4371 75.1285 10.4146 75.1285 12.0582C75.1285 13.7018 74.2262 14.6793 72.5719 14.6793H71.1109ZM70.1764 15.442H72.6256C74.7526 15.442 76.0953 14.1744 76.0953 12.0582C76.0953 9.94199 74.7526 8.6744 72.6256 8.6744H70.1764V15.442Z" fill="#BFEA88"/>
<path d="M77.0791 8.6744V15.442H78.0137V8.6744H77.0791Z" fill="#BFEA88"/>
<path d="M82.3104 15.5709C83.3631 15.5709 84.3192 15.0982 84.6199 14.2389V15.442H85.4686V12.1012H82.5574V12.8316H84.6199C84.5018 13.9918 83.6854 14.7867 82.4178 14.7867C80.9569 14.7867 79.9686 13.7447 79.9686 12.0689C79.9686 10.3932 80.9461 9.34042 82.3319 9.34042C83.6961 9.34042 84.491 10.1568 84.5662 11.3922L85.4578 11.3385C85.3397 9.60898 84.2332 8.5455 82.3211 8.5455C80.452 8.5455 79.0125 9.97421 79.0125 12.0582C79.0125 14.1637 80.3983 15.5709 82.3104 15.5709Z" fill="#BFEA88"/>
<path d="M86.7198 8.6744V15.442H87.6544V8.6744H86.7198Z" fill="#BFEA88"/>
<path d="M91.9189 15.442V9.44784H94.4218V8.6744H88.5351V9.44784H90.995V15.442H91.9189Z" fill="#BFEA88"/>
<path d="M96.7066 8.6744L93.9459 15.442H94.8589L95.6539 13.4547H98.7369L99.5533 15.442H100.542L97.7271 8.6744H96.7066ZM97.1578 9.70566H97.2007L98.4361 12.7135H95.9439L97.1578 9.70566Z" fill="#BFEA88"/>
<path d="M101.322 8.6744V15.442H106.028V14.6686H102.257V8.6744H101.322Z" fill="#BFEA88"/>
<path d="M109.81 12.1549V9.4371H111.325C112.506 9.4371 113.076 9.9205 113.076 10.7906C113.076 11.6715 112.506 12.1549 111.325 12.1549H109.81ZM109.81 12.9176H111.346C113.022 12.9176 113.978 12.1227 113.978 10.7906C113.978 9.46933 113.022 8.6744 111.346 8.6744H108.886V15.442H109.81V12.9176Z" fill="#BFEA88"/>
<path d="M120.248 15.442C120.022 15.1949 119.99 14.8082 119.904 13.8199C119.84 13.025 119.442 12.5201 118.615 12.359C119.442 12.2623 120.151 11.7145 120.151 10.6725C120.151 9.46933 119.324 8.6744 117.605 8.6744H114.855V15.442H115.768V12.7135H117.68C118.604 12.7135 118.959 13.2184 119.002 13.9703C119.055 14.7652 119.152 15.2594 119.281 15.442H120.248ZM115.768 11.9723V9.4371H117.551C118.701 9.4371 119.216 9.93124 119.216 10.7047C119.216 11.5426 118.701 11.9723 117.551 11.9723H115.768Z" fill="#BFEA88"/>
<path d="M127.615 12.0582C127.615 9.97421 126.218 8.5455 124.253 8.5455C122.276 8.5455 120.89 9.97421 120.89 12.0582C120.89 14.1422 122.276 15.5709 124.253 15.5709C126.218 15.5709 127.615 14.1422 127.615 12.0582ZM126.648 12.0582C126.648 13.7125 125.714 14.776 124.253 14.776C122.792 14.776 121.846 13.7125 121.846 12.0582C121.846 10.4039 122.792 9.34042 124.253 9.34042C125.714 9.34042 126.648 10.4039 126.648 12.0582Z" fill="#BFEA88"/>
<path d="M129.543 14.6793V9.4371H131.004C132.658 9.4371 133.56 10.4146 133.56 12.0582C133.56 13.7018 132.658 14.6793 131.004 14.6793H129.543ZM128.608 15.442H131.057C133.184 15.442 134.527 14.1744 134.527 12.0582C134.527 9.94199 133.184 8.6744 131.057 8.6744H128.608V15.442Z" fill="#BFEA88"/>
<path d="M138.164 15.5709C139.69 15.5709 140.914 14.8297 140.914 12.8531V8.6744H140.001V12.8746C140.001 14.1529 139.346 14.7867 138.164 14.7867C136.983 14.7867 136.349 14.1529 136.349 12.8639V8.6744H135.425V12.8531C135.425 14.8297 136.639 15.5709 138.164 15.5709Z" fill="#BFEA88"/>
<path d="M141.819 12.0582C141.819 14.1422 143.269 15.5709 145.138 15.5709C147.072 15.5709 148.167 14.3785 148.296 12.6383L147.394 12.5953C147.319 13.8414 146.535 14.776 145.138 14.776C143.763 14.776 142.775 13.7232 142.775 12.0582C142.775 10.3932 143.763 9.34042 145.138 9.34042C146.535 9.34042 147.319 10.275 147.394 11.5211L148.296 11.4781C148.167 9.73788 147.072 8.5455 145.138 8.5455C143.269 8.5455 141.819 9.97421 141.819 12.0582Z" fill="#BFEA88"/>
<path d="M14.6787 55.8874L9.43653 55.8874L9.43652 54.4264C9.43652 52.7721 10.4141 51.8698 12.0576 51.8698C13.7012 51.8698 14.6787 52.7721 14.6787 54.4264L14.6787 55.8874ZM15.4414 56.822L15.4414 54.3727C15.4414 52.2458 14.1738 50.903 12.0576 50.903C9.94141 50.903 8.67383 52.2458 8.67383 54.3727L8.67383 56.822L15.4414 56.822Z" fill="#BFEA88"/>
<path d="M8.67383 48.9524L8.67383 49.9192L15.4414 49.9192L15.4414 49.0491L10.0059 49.0491L15.4414 45.1175L15.4414 44.3763L8.67383 44.3763L8.67383 45.2464L13.8516 45.2464L8.67383 48.9524Z" fill="#BFEA88"/>
<path d="M14.6358 40.0753L13.583 38.7969C12.7774 37.8194 11.8428 36.7774 10.6182 36.7774C9.46875 36.7774 8.54492 37.4971 8.54492 39.0762C8.54492 40.5157 9.43652 41.4503 10.8223 41.4503C11.0264 41.4503 11.2412 41.418 11.4561 41.3751L11.499 40.4513C11.2949 40.505 11.0908 40.5264 10.8867 40.5264C9.89844 40.5264 9.30762 40.0108 9.30762 39.087C9.30762 38.1954 9.86621 37.7442 10.6611 37.7442C11.6494 37.7442 12.3369 38.5391 13.2608 39.6026L14.9043 41.5147L15.4414 41.5147L15.4414 36.5411L14.6358 36.5411L14.6358 40.0753Z" fill="#BFEA88"/>
<path d="M13.583 32.0201C14.3887 32.0201 14.8184 32.6324 14.8184 33.5133C14.8184 34.5338 14.2705 35.1891 13.1963 35.2106L13.1533 36.1236C14.6572 36.1236 15.5703 35.1354 15.5703 33.524C15.5703 32.0309 14.7754 31.0856 13.6475 31.0856C12.7666 31.0856 12.1436 31.7086 12.0254 32.5358C11.918 31.8697 11.3272 31.2252 10.457 31.2252C9.31836 31.2252 8.54492 32.0524 8.54492 33.5455C8.54492 35.0709 9.56543 36.0055 10.9619 36.0055L10.9941 35.1031C9.91992 35.1031 9.29688 34.5123 9.29688 33.5563C9.29688 32.6217 9.80176 32.149 10.5322 32.149C11.4023 32.149 11.6924 32.8043 11.6924 33.5133C11.6924 33.8141 11.6816 34.0074 11.6602 34.1578L12.4229 34.1578C12.4014 33.9967 12.3906 33.7818 12.3906 33.5133C12.3906 32.6647 12.8096 32.0201 13.583 32.0201Z" fill="#BFEA88"/>
<path d="M37.8152 52.5776H37.3318L31.4343 61.4722C31.0234 62.1127 30.6367 62.1852 30.1292 62.1852L30.0566 62.439H32.5461L32.6307 62.1852C31.4102 62.1852 31.5431 62.0885 31.9419 61.4722L33.3679 59.2969H36.7517L36.6309 61.2788C36.5946 62.016 36.4496 62.1852 35.4345 62.1852L35.3499 62.439H38.2744L38.3832 62.1852C37.4889 62.1852 37.356 62.0402 37.3922 61.2788L37.8152 52.5776ZM33.6217 58.9223L36.9813 53.7982H37.0659L36.7638 58.9223H33.6217Z" fill="#BFEA88"/>
<path d="M39.3835 62.5961C40.1811 62.5961 41.1479 61.6051 42.5498 58.8739H42.6465L41.7884 61.2305C41.6917 61.4964 41.583 61.7622 41.583 61.9677C41.583 62.3423 41.7522 62.6082 42.2235 62.6082C43.0332 62.6082 43.8066 61.4359 44.2296 60.3966H43.9758C43.5528 61.3151 43.009 62.1369 42.5135 62.1369C42.3202 62.1369 42.2718 62.0281 42.2718 61.8468C42.2718 61.6897 42.3685 61.4118 42.4289 61.2426L44.2054 56.0823H43.3232C43.2628 57.0128 42.4531 58.6685 41.8851 59.6836C40.9787 61.303 40.2053 62.0523 39.6736 62.0523C39.5044 62.0523 39.3835 61.9193 39.4077 61.6051C39.456 60.8679 40.302 59.1519 40.9787 57.4841C41.1479 57.0612 41.2688 56.7349 41.2688 56.4932C41.2688 56.191 41.1117 55.9373 40.7975 55.9373C40.0361 55.9373 39.2143 56.9403 38.7188 57.895H38.9726C39.3835 57.1699 39.9998 56.3844 40.4107 56.3844C40.5195 56.3844 40.592 56.4327 40.592 56.614C40.592 56.7711 40.447 57.1458 40.3382 57.46C39.6856 58.9706 38.6826 60.8921 38.6826 61.8589C38.6826 62.3061 38.9364 62.5961 39.3835 62.5961Z" fill="#BFEA88"/>
<path d="M46.8397 56.3965H48.0482L48.1448 56.0823H46.9363L47.4802 54.6079H47.2022C46.7188 55.6472 46.3442 56.1427 45.3049 56.1669L45.2082 56.3965H46.1629L44.5556 61.0855C44.471 61.3393 44.3864 61.6414 44.3864 61.871C44.3864 62.2577 44.5556 62.5115 45.0148 62.5115C45.9575 62.5115 46.888 61.2909 47.3835 60.0945H47.1176C46.6342 61.1217 45.9091 62.0281 45.3411 62.0281C45.1357 62.0281 45.0873 61.9072 45.0873 61.7139C45.0873 61.5326 45.1719 61.2667 45.2324 61.0613L46.8397 56.3965Z" fill="#BFEA88"/>
<path d="M47.9028 62.439C49.6672 57.9313 51.0207 56.4811 51.5887 56.4811C51.782 56.4811 51.8787 56.6261 51.8787 56.9282C51.8787 57.5808 51.0086 59.3936 50.3318 61.1338C50.2231 61.3997 50.1143 61.6655 50.1143 61.8831C50.1143 62.2456 50.2835 62.5115 50.7548 62.5115C51.5766 62.5115 52.338 61.3393 52.7609 60.2999H52.5071C52.0963 61.2184 51.5403 62.0523 51.0449 62.0523C50.8515 62.0523 50.8032 61.9314 50.8032 61.7501C50.8032 61.593 50.9119 61.3272 50.9724 61.1459C51.6129 59.5869 52.628 57.6654 52.628 56.6744C52.628 56.2152 52.3863 55.9252 51.9392 55.9252C51.1415 55.9252 50.1868 56.8799 48.8696 59.6836H48.7729L51.1174 52.481L50.9724 52.4326C50.7911 52.6864 50.3077 52.771 49.2684 52.771L49.1959 53.0127C50.0901 53.0127 50.211 53.2061 50.0297 53.762L47.2139 62.439H47.9028Z" fill="#BFEA88"/>
<path d="M54.3857 62.0644C53.8781 62.0644 53.5398 61.6655 53.5398 60.9284C53.5398 60.59 53.6002 60.167 53.7089 59.7319C55.425 59.454 57.0686 58.1367 57.0686 56.8799C57.0686 56.3119 56.7181 55.9252 56.1501 55.9252C54.4703 55.9252 52.8147 59.0189 52.8147 60.9525C52.8147 61.9798 53.2981 62.5961 54.0957 62.5961C55.1591 62.5961 56.0897 61.4722 56.706 59.9011H56.4643C55.8842 61.158 55.1471 62.0644 54.3857 62.0644ZM56.0413 56.2998C56.3797 56.2998 56.4764 56.5294 56.4764 56.8799C56.4764 58.0763 55.2075 59.0794 53.7935 59.3936C54.2165 57.9071 55.1108 56.2998 56.0413 56.2998Z" fill="#BFEA88"/>
<path d="M57.7473 62.439C59.5238 57.9313 60.8652 56.4811 61.4332 56.4811C61.6387 56.4811 61.7233 56.6261 61.7233 56.9282C61.7233 57.5808 60.8532 59.3936 60.1764 61.1338C60.0676 61.3997 59.9589 61.6655 59.9589 61.8831C59.9589 62.2456 60.1281 62.5115 60.5994 62.5115C61.4211 62.5115 62.1825 61.3393 62.6055 60.2999H62.3517C61.9408 61.2184 61.3849 62.0523 60.8894 62.0523C60.696 62.0523 60.6477 61.9314 60.6477 61.7501C60.6477 61.593 60.7565 61.3272 60.8169 61.1459C61.4574 59.5869 62.4725 57.6654 62.4725 56.6744C62.4725 56.2152 62.2308 55.9252 61.7837 55.9252C60.9861 55.9252 60.0435 56.8799 58.7141 59.6836H58.6174L59.415 57.4841C59.5601 57.0733 59.6809 56.747 59.6809 56.4932C59.6809 56.2031 59.5238 55.9493 59.2096 55.9493C58.4482 55.9493 57.6265 56.9524 57.131 57.9071H57.3848C57.7956 57.182 58.412 56.3965 58.8229 56.3965C58.9316 56.3965 59.0041 56.4448 59.0041 56.6261C59.0041 56.7711 58.8712 57.1699 58.7624 57.4841L57.0585 62.439H57.7473Z" fill="#BFEA88"/>
<path d="M65.2046 56.3965H66.4131L66.5098 56.0823H65.3013L65.8451 54.6079H65.5671C65.0837 55.6472 64.7091 56.1427 63.6698 56.1669L63.5731 56.3965H64.5278L62.9205 61.0855C62.8359 61.3393 62.7513 61.6414 62.7513 61.871C62.7513 62.2577 62.9205 62.5115 63.3798 62.5115C64.3224 62.5115 65.2529 61.2909 65.7484 60.0945H65.4825C64.9991 61.1217 64.2741 62.0281 63.7061 62.0281C63.5006 62.0281 63.4523 61.9072 63.4523 61.7139C63.4523 61.5326 63.5369 61.2667 63.5973 61.0613L65.2046 56.3965Z" fill="#BFEA88"/>
<path d="M68.8873 54.475C69.2378 54.475 69.4674 54.2454 69.4674 53.8949C69.4674 53.5324 69.2378 53.3148 68.8873 53.3148C68.5248 53.3148 68.2831 53.5324 68.2831 53.8949C68.2831 54.2454 68.5248 54.475 68.8873 54.475ZM66.4341 61.1338C66.3374 61.3997 66.2407 61.6655 66.2407 61.8831C66.2407 62.2456 66.4099 62.5115 66.8812 62.5115C67.703 62.5115 68.4643 61.3393 68.8873 60.2999H68.6335C68.2226 61.2184 67.6667 62.0523 67.1712 62.0523C66.9779 62.0523 66.9295 61.9314 66.9295 61.7501C66.9295 61.593 67.0262 61.3272 67.0866 61.1459L68.3677 57.4962C68.5248 57.0853 68.6214 56.747 68.6214 56.4932C68.6214 56.2031 68.4643 55.9493 68.1501 55.9493C67.3888 55.9493 66.567 56.9524 66.0715 57.9071H66.3253C66.7362 57.182 67.3525 56.3965 67.7634 56.3965C67.8722 56.3965 67.9447 56.4448 67.9447 56.6261C67.9447 56.7711 67.8117 57.1578 67.703 57.4841L66.4341 61.1338Z" fill="#BFEA88"/>
<path d="M70.2424 62.5961C71.1367 62.5961 72.0431 61.6535 72.6957 60.0824H72.4661C71.9102 61.2063 71.173 62.0523 70.4841 62.0523C69.9524 62.0523 69.7228 61.4843 69.7228 60.6987C69.7228 58.9948 70.8467 56.2998 72.2002 56.2998C72.599 56.2998 72.7199 56.5294 72.7199 56.747C72.7199 57.3754 72.0673 57.3754 72.0673 57.8225C72.0673 58.0159 72.1881 58.1851 72.3936 58.1851C72.7924 58.1851 73.1549 57.4962 73.1549 56.8557C73.1549 56.2394 72.7682 55.901 72.2485 55.901C70.6533 55.901 68.9977 58.6564 68.9977 60.8196C68.9977 61.8952 69.4448 62.5961 70.2424 62.5961Z" fill="#BFEA88"/>
<path d="M80.7276 53.0248C82.2624 53.0248 82.5041 54.33 82.2624 56.0339H82.5162L83.3863 52.7347L83.1446 52.6864L82.8183 53.5082C82.7579 53.6653 82.6733 53.6653 82.6007 53.5324C82.2865 53.0127 81.7306 52.6018 80.7517 52.6018C77.9359 52.6018 75.531 56.2152 75.531 59.2606C75.531 61.2063 76.4253 62.6323 78.5885 62.6323C79.5674 62.6323 80.5342 62.294 81.3922 61.5326L82.214 58.6443C82.4195 57.9192 82.637 57.8104 83.0237 57.8104L83.0721 57.5567H79.4828L79.3982 57.8104C81.6702 57.8104 81.6581 58.1126 81.4648 58.8135L80.7759 61.2909C80.22 61.8952 79.4466 62.1973 78.7215 62.1973C77.0537 62.1973 76.3407 61.013 76.3407 59.3331C76.3407 56.3723 78.4798 53.0248 80.7276 53.0248Z" fill="#BFEA88"/>
<path d="M84.2889 62.5961C85.9083 62.5961 87.6606 60.0824 87.6606 57.7984C87.6606 56.6744 87.1288 55.9131 86.2345 55.9131C84.6272 55.9131 82.887 58.463 82.887 60.7592C82.887 61.8831 83.3946 62.5961 84.2889 62.5961ZM84.4822 62.1852C83.8417 62.1852 83.5879 61.6172 83.5879 60.7833C83.5879 58.7531 84.9294 56.324 86.0412 56.324C86.6817 56.324 86.9596 56.9161 86.9596 57.7621C86.9596 59.8045 85.594 62.1852 84.4822 62.1852Z" fill="#BFEA88"/>
<path d="M89.1309 62.5961C90.7503 62.5961 92.5026 60.0824 92.5026 57.7984C92.5026 56.6744 91.9709 55.9131 91.0766 55.9131C89.4693 55.9131 87.729 58.463 87.729 60.7592C87.729 61.8831 88.2366 62.5961 89.1309 62.5961ZM89.3242 62.1852C88.6837 62.1852 88.43 61.6172 88.43 60.7833C88.43 58.7531 89.7714 56.324 90.8832 56.324C91.5237 56.324 91.8017 56.9161 91.8017 57.7621C91.8017 59.8045 90.4361 62.1852 89.3242 62.1852Z" fill="#BFEA88"/>
<path d="M96.4262 62.0523C96.2328 62.0523 96.1845 61.9314 96.1845 61.7501C96.1845 61.593 96.2691 61.3151 96.3295 61.1459L99.2057 52.481L99.0607 52.4326C98.7948 52.7106 98.4202 52.771 97.2721 52.771L97.1996 53.0127C98.0939 53.0127 98.3114 53.2061 98.1181 53.762L96.9579 57.2424H96.9458C97.0062 56.4448 96.6679 55.9252 95.9548 55.9252C94.3475 55.9252 92.426 59.0794 92.426 61.1459C92.426 61.9918 92.6919 62.5961 93.3566 62.5961C94.3234 62.5961 95.556 60.5416 96.1482 59.2365H96.2932L95.6648 61.1338C95.5802 61.3997 95.4835 61.6655 95.4835 61.8831C95.4835 62.2456 95.6527 62.5115 96.124 62.5115C96.9458 62.5115 97.7193 61.3393 98.1422 60.2999H97.8884C97.4655 61.2184 96.9216 62.0523 96.4262 62.0523ZM93.562 62.0281C93.2478 62.0281 93.139 61.6776 93.139 61.0613C93.139 59.1881 94.7222 56.3723 95.9669 56.3723C96.402 56.3723 96.5591 56.7107 96.5591 57.2183C96.5591 57.7017 96.4141 58.1367 96.2811 58.4993C95.7857 59.8649 94.3596 62.0281 93.562 62.0281Z" fill="#BFEA88"/>
<path d="M99.5194 62.5961C100.522 62.5961 101.272 61.8589 101.272 60.7954C101.272 60.2879 101.09 59.9857 100.631 59.1881L100.281 58.5718C100.003 58.1126 99.8336 57.6775 99.8336 57.2787C99.8336 56.614 100.22 56.2394 100.788 56.2394C101.296 56.2394 101.477 56.5173 101.61 56.8678C101.683 57.0853 101.755 57.2545 101.948 57.2545C102.13 57.2545 102.311 57.1095 102.311 56.8557C102.311 56.469 101.84 55.901 101.018 55.901C100.027 55.901 99.2172 56.614 99.2172 57.6171C99.2172 58.1488 99.4348 58.5597 99.8819 59.2969L100.244 59.9253C100.498 60.3362 100.655 60.6746 100.655 61.0976C100.655 61.7501 100.329 62.2456 99.6765 62.2456C99.0843 62.2456 98.7943 61.9193 98.6251 61.3997C98.5284 61.0976 98.48 60.9525 98.2867 60.9525C98.0812 60.9525 97.9241 61.0976 97.9241 61.3634C97.9241 61.9556 98.5646 62.5961 99.5194 62.5961Z" fill="#BFEA88"/>
<path fill-rule="evenodd" clip-rule="evenodd" d="M236.329 0.671388H0.671388V71.8385H236.329V0.671388ZM0 0V72.5099H237V0H0Z" fill="#BFEA88"/>
<path fill-rule="evenodd" clip-rule="evenodd" d="M237 23.4985H0V22.8271H237V23.4985Z" fill="#BFEA88"/>
<path fill-rule="evenodd" clip-rule="evenodd" d="M22.8267 72.5099L22.8267 23.4985L23.498 23.4985L23.498 72.5099L22.8267 72.5099Z" fill="#BFEA88"/>
<path fill-rule="evenodd" clip-rule="evenodd" d="M212.159 23.4986L212.159 -2.93473e-08L212.83 0L212.83 23.4986L212.159 23.4986Z" fill="#BFEA88"/>
</svg>
