<svg width="717" height="770" viewBox="0 0 717 770" fill="none" xmlns="http://www.w3.org/2000/svg">
    <g clip-path="url(#clip0_576_2451)">
        <path
            d="M167.85 193.15C164.97 195.37 161.18 199.1 158.41 204.02C154.12 211.63 148.56 229.11 161.32 249.75C161.82 250.56 162.34 251.35 162.87 252.12C162.87 252.11 162.85 252.1 162.85 252.09C157.22 251.6 150.08 252.06 145.84 253.37C150.01 266.46 146.07 295.09 133.24 304.55C135.84 281.22 132.96 266.4 121.58 250.98C110.38 248.68 96.1 251.41 82.5 253.95C83.85 258.76 83.44 273.66 80.32 285.97C77.47 275.87 72.16 265.99 65.69 257.22C49.26 262.16 37.68 263.68 21.98 263.04C22.55 279.19 19.42 291.12 11.04 308.28C17.34 316.81 35.32 314.9 45.05 316.36C56.19 318.04 61.53 325.53 64.33 329.33C39.5 325.75 23.75 327.52 12.2 331.21C8.29 343.55 5.27 360.83 9.72 370.96C25.42 359.38 66.81 354.94 78.44 363.04C55.39 380.04 35.77 373.26 16.35 387.59C13.33 396.37 16.08 407.51 21.66 415.07C25.22 419.9 28.69 423.42 32.72 425.17C48.1 402.25 75.23 389.85 115.23 393.21C90.67 411.33 82.24 403.18 64.63 416.18C52.13 425.41 48.8 437.71 48.72 446.57C61.98 464.55 82.08 475.98 117.93 474.01C126.05 452.14 144.82 437.49 145.93 410.3C155.19 434.23 147.36 460 140.58 473.31C145.08 473.1 150.61 472.64 157.82 470.14C157.49 470.25 157.15 470.38 156.83 470.48C157.42 475.98 156.17 483.67 155.95 489.45C166.83 489.55 184.77 491.22 196.01 498.53C196.01 501.69 192.65 506.14 186.13 508.86C178.22 512.16 168.35 514.1 156.64 514.74C162.29 528.28 179.55 540.37 193.12 543.71C208.69 539.1 226.84 531.43 246.6 514.84C250.21 523.47 234.52 540.43 211.91 549.87C228.11 556.54 247.4 555.38 261.8 549.36C287.56 538.6 291.97 523.87 291.61 513.95C309.65 529.49 325.03 548.17 336.94 568.76C298.38 571.42 270.18 579.89 270.18 589.93V619.13C270.18 673.58 276.19 714.67 289.26 733.53C299.74 748.65 325.71 761.56 362.7 761.56C399.69 761.56 425.66 748.65 436.14 733.53C449.21 714.67 455.22 673.58 455.22 619.13V589.93C455.22 579.6 425.38 570.94 385.12 568.55C387.48 560.59 390.21 552.74 393.45 545.11C397.89 534.95 402.8 524.23 410.32 516.02C411.14 524.54 415.33 533.46 419.46 540.15C437.23 568.91 475.76 581.78 515.5 578.62C507.22 565.22 502.42 537.74 514.56 530.23C514.24 542.42 520.03 566.76 536.02 575.9C568.09 570.46 577.98 548.98 592.53 554.95C593.47 536.74 578.94 536.63 577.26 516.7C593.67 523.79 611.73 528.95 624.97 527.52C617.19 506.15 615.27 480.67 635.9 470.89C635.67 480.91 637.68 507.32 645.15 517.02C656.16 515.65 676.87 513.22 689.87 522.26C688.07 507.37 689.31 483.8 700.24 471.11C685.34 466.98 672.01 454.2 665.29 443.33C676.01 436.7 699.43 446.32 708.02 457.81C712.35 444.97 706.14 418.17 700.13 408.44C684.4 394.22 660 385.35 636.31 387.65C637.69 384.14 640.23 381.34 643.07 379.58C654.33 372.62 671.76 373.2 684.6 382.22C686.67 375.5 682.67 366.16 678.33 359.13C654.96 321.32 611.71 306.41 582.74 324.31C572.31 330.76 565.76 342.94 565.75 349.51C549.07 336.78 531.69 335.02 513.79 346.09C504 352.14 497.1 359.54 492.68 367.3C486.7 369.41 477.09 373.77 472.23 376.85C436.76 399.3 411.93 434.67 391.47 470.57C386.64 479.17 381.68 488.65 376.98 498.67C379.83 437.95 391.09 373.41 426.47 330.45C426.67 330.84 426.88 331.22 427.11 331.6C437.58 348.55 467.68 341.27 489.81 327.59C513.09 313.2 520.95 296.51 532.35 281.81C557.04 266.55 576.27 273.76 584.14 286.49C594.83 303.78 617.59 293.77 632.91 310.12C626.28 299.4 639.98 290.45 629.98 274.28C621 259.74 586.21 247.39 559.19 259.42L559.22 259.39C548.55 256.41 546.98 248.99 548.63 242.25C536.82 245.48 524.76 243.22 512.61 240.18C511.3 247.53 509.74 252.27 503.07 256.4C492.6 262.87 477.33 257.55 475.09 238.23C464.94 244.5 452.82 240.59 445.54 235.42C438.2 246.23 441.03 257.92 445.61 265.33C448.41 269.86 451.37 272.52 455.2 272.94C448.74 276.93 440.81 277.13 436.75 270.56C433.02 264.53 428.36 259.76 422.83 258.68C422.77 258.78 422.69 258.88 422.63 258.98C433.28 242.36 436.09 222.67 429.58 207.78C443.47 186.61 458.83 166.31 475.22 146.91C478.82 159.63 466.34 176.6 473.47 188.14C485.99 208.4 511.12 194.35 525.47 181.57C518.28 179.63 509.57 174.04 504.39 165.66C498.95 156.86 496.84 147.64 498.32 140.9C504.84 155.92 525.19 169.71 538.61 171.52C582.71 144.26 600.28 97.4 594.41 54.11C591.79 58.52 585.78 63.26 580.86 66.3C563.76 76.87 550.71 67.83 546.04 60.27C555.6 60.62 564.82 58.41 574 52.73C579.16 49.54 588.57 41.27 589.9 35.82C590.69 29.46 587.75 18.72 582.17 7.47998C559.42 36.61 539.8 24.36 486.55 57.27C479.77 72.04 483.54 89.77 489.37 96.04C476.4 95.25 467.6 78.53 467.32 69.16C431.18 91.49 411.52 131.67 423.54 151.12C436.71 172.43 455.63 148.73 468.23 143.83C452.72 162.24 438.13 181.53 424.78 201.63C421.56 198.03 417.06 194.46 412.49 193.28C417.27 186.62 420.06 180.15 420.7 174.61C416.32 155.29 397.56 129.3 380.93 118.52C375.92 115.28 370.74 112.68 366.26 110.84C365.19 105.12 363.13 99.85 360.32 95.32C349.67 78.09 311.96 71.57 298.83 57.32C298.83 65.17 292.9 70.59 286.52 70.59C285 63.87 282.56 57.45 279.04 51.75C260.97 22.51 210.95 61.84 181.04 36.29C201.82 69.92 151.4 93.05 172.19 126.68C182.22 142.9 198.56 158.82 232.13 154.92C218.51 172.52 188.99 171 166.62 143.49C159.43 156.14 156.61 170.54 159.68 182.71C161.78 186.1 164.55 189.64 167.9 193.12L167.85 193.15ZM215.81 442.82C215.85 448.33 212.86 458.8 208.62 463.09C203.95 455.54 197.23 449.64 190.53 447.45C190.32 447.78 190.09 448.11 189.86 448.44C202.32 430.61 187.1 413.91 190.28 402.57C190.37 402.63 190.45 402.7 190.54 402.76C208.36 415.39 226.82 428.19 244.6 441.81C234.44 443.74 224.63 444.91 215.81 442.83V442.82ZM295.03 506.25C299.89 504.89 304.74 505.81 310.69 504.36C321.01 517.5 329.9 531.65 336.76 547.13C325.37 532.19 310.92 518.23 295.03 506.25ZM342.29 527.34C336.53 517.12 329.77 507.42 322.33 498.39C330.76 490.99 334.17 477.12 323.04 459.12C305.28 430.39 280.41 434.4 256.25 439.42C236.2 424.73 215.39 410.99 194.92 396.84C207.87 388.14 221.97 397.62 244.27 383.83C260.27 373.94 269.67 354.59 268.76 339.71C268.58 339.81 268.39 339.91 268.21 340.01C269.27 339.42 270.33 338.82 271.39 338.16C314.15 311.73 291.7 269.06 303.67 253.34C318.79 294.58 330.28 337.15 339 380.2C341.39 391.52 343.41 402.88 345.17 414.27C340.48 451.71 339.76 489.67 342.29 527.33V527.34ZM348.69 378.15C339.15 334.81 327.09 291.89 311.85 250.16C327.02 253.18 338.79 283.67 362.93 289.71C362.76 289.67 362.59 289.63 362.42 289.59C355.96 298.96 353.5 314.13 361.89 327.69C362.28 328.33 362.7 328.93 363.12 329.52C361.17 335.91 359.35 342.35 357.71 348.85C354.67 360.42 352.09 372.09 349.9 383.83C349.5 381.94 349.1 380.05 348.69 378.16V378.15ZM356.09 413.28C357.43 398.17 359.43 383.12 362.28 368.16C364.34 357.26 366.88 346.52 369.84 335.94C377.51 340.82 387.6 340.71 398.03 334.26C407.23 328.57 410.38 311.74 425.94 315.41C424.92 317.64 424.47 319.99 424.47 322.3C421.13 325.62 416.33 330.73 413.34 334.92C411.7 336.84 409.34 340.42 407.85 342.43C382.94 380.16 371.92 425.97 367.29 472.13C363.98 452.43 360.14 432.81 356.1 413.27L356.09 413.28ZM410.22 511.13C410.22 511.13 410.22 511.07 410.23 511.02C410.21 511.07 410.21 511.11 410.22 511.13ZM497.22 426.5C497.35 432.79 500.26 442.68 505.24 452.72C505.23 452.69 505.21 452.66 505.2 452.64C493.19 459.29 484.65 467.02 478 477.81C476.53 475.43 476.23 472.12 476.67 469.59C477.98 462 483.48 453.89 491.84 445.52C477.05 438.01 459.06 440.53 444.27 449.67C433.33 456.43 428.35 468.37 434.89 478.96C439.16 485.87 441.21 483.72 445.55 490.75C434.76 490.29 425.71 491.55 420.14 494.99C415.07 498.12 412.25 502.23 410.98 506.79C409.63 507.35 408.17 508.32 408.17 508.32C396.09 516.01 384.56 534.97 377.02 555.09C376.78 550.68 376.48 546.26 376.13 541.86C376.13 541.02 376.13 540.19 376.12 539.35C388.14 495.32 407.75 452.24 437.78 417.41C449.48 403.91 462.7 391.69 478.26 382.91C480.36 381.7 483.57 380.13 485.76 379.09C486.32 378.85 487.17 378.52 488.06 378.16C484.82 389.54 486.33 400.76 491.37 408.91C507.77 394.09 535.17 385.44 555.52 391.57C536.31 396.6 507.39 409.8 497.22 426.53V426.5Z"
            fill="#BFEA88" stroke="#BFEA88" stroke-width="15" stroke-linecap="round" stroke-linejoin="round" />
        <path
            d="M362.68 611.98C413.772 611.98 455.19 602.117 455.19 589.95C455.19 577.783 413.772 567.92 362.68 567.92C311.588 567.92 270.17 577.783 270.17 589.95C270.17 602.117 311.588 611.98 362.68 611.98Z"
            stroke="#192928" stroke-width="5.7" stroke-miterlimit="10" />
        <path d="M296.81 627.43C291.31 626.02 286.51 624.44 282.56 622.74" stroke="#192928" stroke-width="5.7"
            stroke-linecap="round" stroke-linejoin="round" />
        <path d="M406.65 631.63C393.57 633.45 378.6 634.5 362.68 634.5C342.04 634.5 322.98 632.73 307.59 629.81"
            stroke="#192928" stroke-width="5.7" stroke-linecap="round" stroke-linejoin="round" />
        <path d="M455.19 611.47C455.19 617.08 446.39 622.41 431.91 626.53" stroke="#192928" stroke-width="5.7"
            stroke-linecap="round" stroke-linejoin="round" />
        <path
            d="M455.19 589.95V619.15C455.19 673.6 449.18 714.69 436.11 733.55C425.63 748.67 399.66 761.58 362.67 761.58C325.69 761.58 299.71 748.67 289.23 733.55C276.16 714.69 270.15 673.6 270.15 619.15V589.95"
            stroke="#192928" stroke-width="5.7" stroke-miterlimit="10" />
        <path
            d="M445.19 599.93C434.66 590.78 406.86 582.68 362.68 582.68C318.5 582.68 290.7 590.78 280.17 599.93C295.45 607.08 326.66 611.99 362.68 611.99C398.7 611.99 429.9 607.09 445.19 599.93Z"
            fill="#192928" stroke="#192928" stroke-width="5.7" stroke-linecap="round" stroke-linejoin="round" />
        <path d="M200.49 286.78C202.63 280.68 203.94 275.13 204.14 270.91" stroke="#192928" stroke-width="5"
            stroke-linecap="round" stroke-linejoin="round" />
        <path d="M196.54 327.18C188.96 332.77 178.42 334.8 170.17 333.5C175.77 329.37 182.62 322.16 186.87 314.6"
            stroke="#192928" stroke-width="5" stroke-linecap="round" stroke-linejoin="round" />
        <path
            d="M162.85 252.09C157.22 251.6 150.08 252.06 145.84 253.37C150.01 266.46 146.07 295.09 133.24 304.55C135.84 281.22 132.96 266.4 121.58 250.98C110.38 248.68 96.1 251.41 82.5 253.95C83.85 258.76 83.44 273.66 80.32 285.97C77.47 275.87 72.16 265.99 65.69 257.22C49.26 262.16 37.68 263.68 21.98 263.04C22.55 279.19 19.42 291.12 11.04 308.28C17.34 316.81 35.32 314.9 45.05 316.36C56.19 318.04 61.53 325.53 64.33 329.33C39.5 325.75 23.75 327.52 12.2 331.21C8.29 343.55 5.27 360.83 9.72 370.96C25.42 359.38 66.81 354.94 78.44 363.04C55.39 380.04 35.77 373.26 16.35 387.59C13.33 396.37 16.08 407.51 21.66 415.07C25.22 419.9 28.69 423.42 32.72 425.17C48.1 402.25 75.23 389.85 115.23 393.21C90.67 411.33 82.24 403.18 64.63 416.18C52.13 425.41 48.8 437.71 48.72 446.57C61.98 464.55 82.08 475.98 117.93 474.01C126.05 452.14 144.81 437.49 145.93 410.3C155.19 434.23 147.36 460 140.58 473.31C147.98 472.96 158.17 471.97 174.08 462.25C214.4 437.61 181.74 413.04 191.92 399.19C205.73 386.48 220.25 398.67 244.28 383.81C260.28 373.92 269.67 354.57 268.77 339.69"
            stroke="#192928" stroke-width="5" stroke-linecap="round" stroke-linejoin="round" />
        <path
            d="M307.22 250.13C287.73 262.18 317.55 309.64 271.4 338.17C226.97 365.63 183.34 331.59 170.92 274.95C190.83 289.85 217.76 291.29 238.47 278.5C250.8 270.88 267.63 251.29 258.98 237.3C254.12 245.46 249.47 251.5 237.43 258.94C208.65 276.73 177.69 276.23 161.33 249.76C148.57 229.12 154.19 211.67 158.42 204.03C175.85 232.22 207.4 245.61 236.33 227.73C241.12 224.77 247.1 218.73 248.13 212.9C207.79 228.03 172.02 202.75 159.65 182.75C156.58 170.58 159.4 156.18 166.59 143.53C188.96 171.05 218.48 172.56 232.1 154.96C198.53 158.87 182.18 142.94 172.16 126.72C151.37 93.0901 201.8 69.9601 181.01 36.3301C210.92 61.8801 260.94 22.5501 279.01 51.7901C293.1 74.5901 289.76 108.89 280.54 127.82C302.47 114.27 309.09 78.6601 298.81 57.3601C311.95 71.6101 349.65 78.1301 360.3 95.3601C374.89 118.97 369.29 162.51 309.85 185.13C320.9 189.52 338.83 186.26 354.47 176.59C370.11 166.92 384.68 143.36 380.9 118.56C397.53 129.35 416.29 155.33 420.67 174.65C419.21 187.23 406.7 204.62 384.77 218.18C366.36 229.56 344.65 234.84 331.64 232.9C337.13 241.78 358.75 252.33 400.49 226.53C409.5 220.96 418.56 213.35 427.17 203.2C440.98 225.54 429.88 262.76 400.08 281.17C344.22 315.7 331.39 245.68 307.22 250.14V250.13Z"
            stroke="#192928" stroke-width="5" stroke-linecap="round" stroke-linejoin="round" />
        <path
            d="M473.55 143.16C461.58 140.34 438.71 175.76 423.5 151.15C411.48 131.7 431.14 91.5198 467.28 69.1898C467.56 78.5598 476.36 95.2698 489.33 96.0698C483.51 89.7998 479.74 72.0698 486.51 57.2998C539.77 24.3798 559.38 36.6398 582.13 7.50977C587.71 18.7498 590.65 29.4898 589.86 35.8498C588.53 41.3098 579.12 49.5698 573.96 52.7598C564.78 58.4298 555.55 60.6498 546 60.2998C550.67 67.8598 563.72 76.8998 580.82 66.3298C585.74 63.2898 591.75 58.5398 594.37 54.1398C600.25 97.4398 582.67 144.3 538.57 171.55C525.15 169.73 504.8 155.95 498.28 140.93C496.79 147.66 498.91 156.89 504.35 165.69C509.53 174.07 518.24 179.66 525.43 181.6C511.09 194.38 485.96 208.43 473.43 188.17C465.57 175.45 481.54 156.14 473.53 143.18L473.55 143.16Z"
            stroke="#192928" stroke-width="5" stroke-linecap="round" stroke-linejoin="round" />
        <path
            d="M565.71 349.53C565.72 342.96 572.27 330.77 582.7 324.32C611.67 306.41 654.92 321.33 678.29 359.14C682.63 366.17 686.62 375.51 684.56 382.23C671.72 373.21 654.29 372.63 643.03 379.59C640.19 381.34 637.64 384.15 636.27 387.66C659.96 385.36 684.36 394.23 700.09 408.45C706.1 418.18 712.31 444.98 707.98 457.82C699.4 446.33 675.97 436.71 665.25 443.34C671.97 454.21 685.3 467 700.2 471.12C689.27 483.8 688.04 507.37 689.83 522.27C676.83 513.22 656.11 515.66 645.11 517.03C637.63 507.33 635.63 480.91 635.86 470.9C615.24 480.68 617.16 506.16 624.93 527.53C595.77 530.69 543.23 501.85 536.49 490.94C535.88 472.65 538.51 448.87 561.77 425.33C558.01 424.25 552.69 424.32 545.57 428.72C527.93 439.62 522.5 467.35 522.98 477.52C507.68 463.24 497.46 438.42 497.21 426.52C507.39 409.79 536.31 396.6 555.51 391.56C535.16 385.42 507.76 394.08 491.36 408.9C481.22 392.49 485.35 363.66 513.74 346.11C549.94 323.73 584 353.8 614.48 420.97"
            stroke="#192928" stroke-width="5" stroke-linecap="round" stroke-linejoin="round" />
        <path d="M582.65 459.02C583.54 449.93 587.35 432.24 597.64 419.93" stroke="#192928" stroke-width="5"
            stroke-linecap="round" stroke-linejoin="round" />
        <path d="M480.01 135.61C474.1 131.61 463.67 119.08 462.31 102.44" stroke="#192928" stroke-width="5"
            stroke-linecap="round" stroke-linejoin="round" />
        <path d="M472.61 544.53C466.7 540.53 456.27 528 454.91 511.36" stroke="#192928" stroke-width="5"
            stroke-linecap="round" stroke-linejoin="round" />
        <path d="M582.58 366.37C596.12 354.14 613.74 350.74 626.81 359.23" stroke="#192928" stroke-width="5"
            stroke-linecap="round" stroke-linejoin="round" />
        <path d="M501.22 112.17C517.58 117.62 536.81 111.96 555.15 100.62" stroke="#192928" stroke-width="5"
            stroke-linecap="round" stroke-linejoin="round" />
        <path
            d="M445.54 490.75C441.19 483.72 439.15 485.87 434.88 478.96C428.34 468.37 433.32 456.43 444.26 449.67C459.05 440.53 477.04 438.01 491.83 445.52C483.48 453.89 477.98 462 476.67 469.59C476.23 472.12 476.53 475.43 478 477.81C484.65 467.02 493.19 459.29 505.2 452.64"
            stroke="#192928" stroke-width="5" stroke-linecap="round" stroke-linejoin="round" />
        <path
            d="M519.33 512.05C487.27 494.35 437.22 484.43 420.13 494.99C403.04 505.55 411.35 527.1 419.43 540.17C437.2 568.93 475.73 581.8 515.47 578.64C507.19 565.24 502.39 537.76 514.53 530.25C514.21 542.44 520 566.78 535.99 575.92C568.06 570.48 577.95 549 592.5 554.97C593.44 536.76 578.91 536.65 577.23 516.72"
            stroke="#192928" stroke-width="5" stroke-linecap="round" stroke-linejoin="round" />
        <path
            d="M532.32 281.83C557.02 266.57 576.25 273.77 584.12 286.51C594.81 303.8 617.57 293.79 632.89 310.14C626.26 299.42 639.96 290.48 629.96 274.3C620.29 258.66 580.76 245.53 553.16 262.59C524.91 280.05 524.2 306.35 489.79 327.61C467.66 341.29 437.56 348.57 427.09 331.62C423.07 325.12 423.09 315.24 431.07 309.03"
            stroke="#192928" stroke-width="5" stroke-linecap="round" stroke-linejoin="round" />
        <path d="M546.38 267.32C518.42 264.35 496.95 266.59 461.51 288.5" stroke="#192928" stroke-width="5"
            stroke-linecap="round" stroke-linejoin="round" />
        <path
            d="M559.19 259.4C548.52 256.42 546.95 249 548.6 242.26C536.79 245.49 524.73 243.23 512.58 240.19C511.27 247.54 509.71 252.28 503.04 256.41C492.57 262.88 477.3 257.56 475.06 238.24C464.91 244.51 452.79 240.6 445.51 235.43C438.17 246.24 441 257.93 445.58 265.34C448.38 269.87 451.34 272.53 455.17 272.95C448.71 276.94 440.78 277.14 436.72 270.57C432.99 264.54 428.33 259.77 422.8 258.69"
            stroke="#192928" stroke-width="5" stroke-linecap="round" stroke-linejoin="round" />
        <path
            d="M362.41 289.6C355.95 298.97 353.49 314.14 361.88 327.7C369.42 339.9 383.39 343.33 398.03 334.28C407.23 328.59 410.38 311.76 425.94 315.43"
            stroke="#192928" stroke-width="5" stroke-linecap="round" stroke-linejoin="round" />
        <path
            d="M156.82 470.51C157.41 476.01 156.16 483.7 155.94 489.48C166.82 489.58 184.76 491.25 196 498.56C196 501.72 192.64 506.17 186.12 508.89C178.21 512.19 168.34 514.12 156.63 514.77C162.28 528.31 179.54 540.4 193.11 543.74C208.68 539.13 226.83 531.46 246.59 514.87C250.2 523.5 234.51 540.46 211.9 549.9C228.1 556.57 247.39 555.41 261.79 549.39C293.35 536.21 292.87 517.06 290.82 508.1C299.35 502.83 306.93 508.31 319.19 500.74C329.78 494.2 335.48 479.24 323.06 459.13C294.82 413.45 248.6 450.56 215.83 442.82C215.87 448.33 212.88 458.8 208.64 463.09C203.97 455.54 197.25 449.64 190.55 447.45"
            stroke="#192928" stroke-width="5" stroke-linecap="round" stroke-linejoin="round" />
        <path
            d="M521.43 85.4799C504.76 102.54 488.45 119.97 473.02 138.19C420.45 199.27 377.61 270.23 357.71 348.86C354.67 360.43 352.09 372.1 349.9 383.84C349.5 381.95 349.1 380.06 348.69 378.17C332.29 303.61 308.41 230.3 273.72 162.15C270.45 156.17 261.9 160.89 264.94 166.77C272.62 181.06 280.19 196.45 286.71 211.25C310.54 265.33 327.26 322.34 338.99 380.23C341.38 391.55 343.4 402.91 345.16 414.3C340.47 451.75 339.75 489.7 342.28 527.36C332.42 509.85 319.61 493.85 305.51 480.2C250.09 426.73 178.51 393.44 123 340.29C119.21 337.06 115.05 342.37 118.18 345.37C140.75 366.56 165.59 384.91 190.54 402.76C246.48 442.4 308.64 483.65 336.76 547.14C307.58 508.87 258.34 476.9 216.09 468.84C212.11 468.18 211.16 474 215 474.74C225.31 476.57 235.39 479.93 245.01 484.12C250.36 486.43 256.82 489.84 261.91 492.73C298.01 513.83 327.22 546.59 345.05 584.27C347.87 590.23 348.94 596.58 348.94 603.39C349.52 605.93 355.27 609.19 363.61 609.19C371.95 609.19 377.22 606.14 377.38 603.39C377.48 601 377.57 600.1 377.64 597.72C378.93 592.09 380.26 586.5 381.71 580.9C384.75 568.74 388.5 556.69 393.4 545.14C398.22 534.1 403.59 522.4 412.26 513.98L408.14 508.32C396.06 516.01 384.53 534.97 376.99 555.09C376.75 550.68 376.45 546.27 376.1 541.86C376.1 541.02 376.1 540.19 376.09 539.35C388.11 495.32 407.72 452.24 437.75 417.41C449.45 403.91 462.67 391.69 478.23 382.91C480.33 381.7 483.54 380.13 485.73 379.09C487.09 378.52 490.09 377.36 491.54 376.74L488.41 368.57C482.79 371.02 477.27 373.65 472.17 376.9C436.7 399.35 411.87 434.72 391.41 470.62C386.58 479.22 381.62 488.7 376.92 498.72C379.8 437.34 391.27 372.03 427.57 329.08L422.39 324.38C419.46 327.56 415.95 331.56 413.31 334.98C411.67 336.9 409.31 340.48 407.82 342.49C382.91 380.22 371.89 426.03 367.26 472.19C363.95 452.49 360.11 432.87 356.07 413.33C357.41 398.22 359.41 383.17 362.26 368.21C382.73 259.92 449.57 167.03 527.17 91.2899C531.12 86.7899 524.92 81.9699 521.4 85.5099L521.43 85.4799Z"
            fill="#192928" />
        <path d="M527.38 453.69C530.63 454.89 537.63 459.24 539.53 462.32" stroke="#192928" stroke-width="5"
            stroke-linecap="round" stroke-linejoin="round" />
    </g>
    <defs>
        <clipPath id="clip0_576_2451">
            <rect width="716.93" height="769.09" fill="white" />
        </clipPath>
    </defs>
</svg>