<svg width="109" height="63" viewBox="0 0 109 63" fill="none" xmlns="http://www.w3.org/2000/svg">
<path d="M30.1484 24.8402V24.8892C30.6868 25.1339 30.9151 25.6396 30.9151 26.3084V35.6067C30.9151 36.4224 30.5889 36.7976 30.1484 37.026V37.0749H35.9558C36.4779 37.0749 36.7715 37.238 36.9672 37.5643H37.0488L37.5871 34.3343L37.5382 34.3017C36.6573 35.6557 35.6133 36.7976 33.7699 36.7976C32.6933 36.7976 32.106 36.3571 32.106 35.3621V30.4519H34.5203C35.1728 30.4519 35.7111 31.0065 36.1353 31.7569H36.1842V28.8858H36.1353C35.7438 29.7504 35.1728 30.1419 34.504 30.1419H32.106V26.5531C32.106 25.558 32.4486 25.1012 33.6068 25.1012C35.1402 25.1012 36.0374 25.9984 36.9346 27.3687L36.9999 27.3361L36.6899 24.3508H36.641C36.4452 24.6771 36.07 24.8402 35.5643 24.8402H30.1484Z" fill="#BFEA88"/>
<path d="M44.945 33.6329C44.945 31.6101 43.5095 30.7944 42.1229 30.1093C40.8015 29.4568 39.5291 28.8695 39.5291 27.3361C39.5291 25.8842 40.459 24.9381 41.6498 24.9381C42.9059 24.9381 43.5421 25.9495 43.6074 27.5971H43.6726L44.4067 24.9218C43.6563 24.7423 42.9222 24.5955 42.0903 24.5955C39.9696 24.5955 38.5993 26.08 38.5993 27.907C38.5993 29.8646 40.0348 30.615 41.4377 31.3001C42.7591 31.9363 44.0152 32.5725 44.0152 34.2691C44.0152 35.6394 42.8733 36.977 41.2094 36.977C39.676 36.977 38.8277 35.8351 38.7787 33.8776H38.6972L37.8 36.6181C38.5014 36.9281 39.7086 37.3196 40.9157 37.3196C43.3953 37.3196 44.945 35.672 44.945 33.6329Z" fill="#BFEA88"/>
<path d="M46.3444 24.8402C45.9202 24.8402 45.5287 24.726 45.3493 24.3508H45.284L44.6968 27.3198L44.7946 27.3687C45.4635 26.1942 46.2139 25.1339 47.0785 25.1339C47.7147 25.1339 47.992 25.4112 47.992 26.0311V35.6231C47.992 36.194 47.8125 36.6345 47.2742 37.026V37.0749H49.9006V37.026C49.3786 36.6345 49.1991 36.194 49.1991 35.6231V26.0311C49.1991 25.4112 49.4928 25.1339 50.0963 25.1339C50.9446 25.1339 51.7276 26.1942 52.3965 27.3687L52.478 27.3198L51.8908 24.3508H51.8418C51.6461 24.6771 51.2872 24.8402 50.8304 24.8402H46.3444Z" fill="#BFEA88"/>
<path d="M52.6661 37.1728C53.1066 37.1728 53.4492 36.7813 53.4492 36.3082C53.4492 35.8351 53.1066 35.4436 52.6661 35.4436C52.242 35.4436 51.9157 35.8351 51.9157 36.3082C51.9157 36.7813 52.242 37.1728 52.6661 37.1728Z" fill="#BFEA88"/>
<path d="M60.3615 27.8092C60.3615 25.8353 59.0891 24.5955 57.5557 24.5955C56.0223 24.5955 54.7499 25.8027 54.3583 28.1191L54.4399 28.1517C54.9456 26.6673 55.8428 25.8516 57.0989 25.8516C58.4529 25.8516 59.1707 26.8304 59.1707 28.3638C59.1707 30.7944 57.3926 33.1272 55.6634 35.2805L54.2931 37.0097V37.0749H58.9097C59.448 37.0749 59.7579 37.2544 59.9374 37.5643H60.0189L60.5736 34.3343L60.5083 34.3017C59.7906 35.3947 59.0402 36.0635 57.8493 36.0635H55.2882C57.2131 34.0896 60.3615 30.9413 60.3615 27.8092Z" fill="#BFEA88"/>
<path d="M61.2616 30.9576C61.2616 34.3833 62.9419 37.3196 64.9484 37.3196C66.9875 37.3196 68.6025 34.3996 68.6025 30.9576C68.6025 27.5155 67.0038 24.5955 64.9484 24.5955C62.8766 24.5955 61.2616 27.5318 61.2616 30.9576ZM62.7135 30.9576C62.7135 27.173 63.415 24.8892 64.9484 24.8892C66.4818 24.8892 67.1669 27.1567 67.1669 30.9576C67.1669 34.7422 66.4165 37.026 64.9484 37.026C63.4965 37.026 62.7135 34.7422 62.7135 30.9576Z" fill="#BFEA88"/>
<path d="M75.0336 27.8092C75.0336 25.8353 73.7612 24.5955 72.2278 24.5955C70.6943 24.5955 69.4219 25.8027 69.0304 28.1191L69.112 28.1517C69.6177 26.6673 70.5149 25.8516 71.771 25.8516C73.125 25.8516 73.8427 26.8304 73.8427 28.3638C73.8427 30.7944 72.0646 33.1272 70.3355 35.2805L68.9652 37.0097V37.0749H73.5817C74.1201 37.0749 74.43 37.2544 74.6094 37.5643H74.691L75.2456 34.3343L75.1804 34.3017C74.4626 35.3947 73.7122 36.0635 72.5214 36.0635H69.9603C71.8852 34.0896 75.0336 30.9413 75.0336 27.8092Z" fill="#BFEA88"/>
<path d="M75.705 37.026V37.0749H78.4129V37.026C77.9725 36.8139 77.6462 36.3082 77.6462 35.6067V24.6282H77.5973C77.1894 25.1502 76.3085 25.4927 75.705 25.4927V25.5417C76.1128 25.8027 76.4554 26.2105 76.4554 26.7978V35.6067C76.4554 36.3082 76.1128 36.7976 75.705 37.026Z" fill="#BFEA88"/>
<path d="M108.7 31.1429C108.7 39.5886 102.706 47.2934 92.8885 52.9037C83.079 58.5091 69.5072 61.9857 54.5 61.9857C39.4928 61.9857 25.921 58.5091 16.1115 52.9037C6.29352 47.2934 0.3 39.5886 0.3 31.1429C0.3 22.6971 6.29352 14.9923 16.1115 9.382C25.921 3.77657 39.4928 0.3 54.5 0.3C69.5072 0.3 83.079 3.77657 92.8885 9.382C102.706 14.9923 108.7 22.6971 108.7 31.1429Z" stroke="#BFEA88" stroke-width="0.6"/>
</svg>
