<svg width="800" height="600" xmlns="http://www.w3.org/2000/svg">
    <g id="Layer_1">
        <title>Layer 1</title>
        <g id="svg_31">
            <path id="svg_24"
                d="m433.06401,558.01304c-9.85211,-10.91092 -25.17256,-12.15515 -28.8565,-27.68542c-2.88747,-8.4472 -30.10834,-19.77657 -13.99773,-4.615c12.44024,9.13624 27.22003,42.83501 -3.38561,32.18785c-23.27787,-6.91727 -24.27605,-28.27717 -30.51562,-44.26856c-20.29067,-11.39868 5.24601,-35.50035 -16.60127,-50.10506c-18.54215,-15.24558 -5.62871,-43.7983 -32.1239,-54.60825c-13.29882,-4.37045 -19.05517,25.80549 -21.29433,3.72982c-7.28585,-22.32732 -33.01753,10.85351 -50.17614,7.33582c-13.84601,-0.97462 23.16079,-8.76866 5.50095,-10.8661c-10.38264,4.60214 -19.98908,12.55951 -21.6317,-0.6123c-12.48969,-6.00616 -38.68084,-15.59775 -38.00047,-25.13911c10.84602,-2.7588 47.46094,5.22394 41.11572,-5.86787c-10.88801,-3.34574 -12.86588,-12.49153 0.46979,-6.3535c26.28088,0.66754 57.08955,-7.82674 78.95692,8.41951c11.40609,5.68263 22.62097,26.06338 28.72721,6.25711c19.68365,-19.22305 59.40208,-20.8513 71.53615,-45.74033c2.93629,-12.04163 -9.01808,-18.91172 -19.17369,-21.35084c-1.97578,-3.95731 -5.33919,-20.75857 -13.73719,-12.28012c0.38277,-7.42065 8.26053,-25.16603 -9.189,-17.31014c-1.76986,-15.80552 14.91716,-31.57421 -7.15753,-43.08398c20.6828,3.10668 16.60424,-15.98556 12.09934,-19.01351c12.26058,-1.40966 26.64895,-10.34311 19.88889,-21.41015c13.31466,19.57214 13.77634,-23.74462 24.73824,-5.0738c20.17543,2.67816 -6.26776,-14.59498 12.28868,-10.73956c10.59594,0.29357 8.24262,-9.4006 17.76141,-2.08408c12.59796,-5.56579 -9.65758,-22.38653 10.68317,-10.69929c6.83783,4.80994 28.60755,17.40789 24.70156,0.78378c19.32825,16.69439 34.53858,-15.50625 50.59961,-22.17468c6.37064,-6.17123 20.22416,-12.70232 7.44759,-0.9221c-8.48198,15.01614 -37.25848,31.26042 -29.51672,46.18114c-7.00752,5.16562 14.13872,11.65791 -2.69456,9.70228c-9.97252,8.71631 13.36991,25.02398 15.23275,38.7421c-5.34684,9.39935 -25.70636,20.0701 -33.9423,19.73284c3.01015,-12.10167 -3.51545,-27.87482 -22.57553,-21.03445c10.67708,15.81853 25.11234,30.93023 34.15654,48.1326c8.84006,16.91075 23.17269,36.43925 42.02926,14.6751c12.01864,-13.87156 46.3529,-13.67075 36.92156,8.85671c-4.82133,22.12131 8.08683,51.31699 -16.71591,66.55492c-14.96238,23.34524 -31.55018,-8.68026 -19.79508,-20.79579c-2.99532,-3.46223 -5.31252,-5.90625 3.45255,-10.63889c-1.80985,-3.54998 25.2244,-16.90595 11.59924,-25.10138c-15.49638,14.22818 -38.17118,30.69735 -31.86959,51.84734c5.11443,14.17305 -37.06692,38.47145 -33.69386,14.94996c0.75554,-9.14125 16.87403,-26.85801 13.16377,-29.14047c-11.76796,17.87859 -28.50845,35.05481 -53.80504,40.36298c-21.0418,1.00965 -32.06434,14.72774 -22.07199,29.94811c1.90963,21.56795 -12.151,41.08801 -15.38809,62.08745c6.01737,22.27266 42.65281,26.77341 47.62553,49.49323c8.54467,15.25864 -12.82891,13.00366 -22.78713,8.73409l0.00005,0.00001zm-52.09869,-66.44655c-3.08429,-10.06792 -9.43152,26.17164 -1.60741,6.93715l1.17129,-3.3982l0.43612,-3.53897l0,0.00001z"
                stroke-width="22" stroke="#000" fill="none" />
            <path stroke-width="5" id="svg_26"
                d="m364.55928,436.91097c-10.2507,-5.87401 -13.91573,-9.5898 -13.94543,-14.1386c-0.02709,-4.14679 4.49721,-8.14905 9.18584,-8.12597c2.34129,0.01155 7.36352,1.53779 9.14191,2.77825c0.89606,0.62501 1.32047,0.56338 3.31545,-0.48146c5.42948,-2.84361 10.73141,-2.9033 14.16518,-0.15945c5.48789,4.38524 4.48876,9.62202 -2.87216,15.05398c-3.91349,2.88794 -12.45969,8.01132 -13.36352,8.01132c-0.27502,0 -2.80729,-1.32213 -5.62726,-2.93807l0,0z"
                stroke="#000" fill="none" />
            <ellipse ry="4.06496" rx="4.67857" id="svg_30" cy="221.20303" cx="469.26228" stroke-width="5" stroke="#000"
                fill="none" />
        </g>
        <path id="svg_39"
            d="m64.59001,317.72449l0,0c0,-152.42987 154.68579,-275.99948 345.49969,-275.99948l0,0c91.6335,0 179.51366,29.07853 244.30546,80.83867c64.7944,51.76014 101.19492,121.96211 101.19492,195.16081l0,0c0,152.43174 -154.6847,276.0005 -345.50036,276.0005l0,0c-190.8139,0 -345.49969,-123.56876 -345.49969,-276.0005l-0.00002,0zm557.90392,123.46842l0,0c76.06769,-83.5111 64.76038,-198.82075 -26.65849,-271.84903c-91.41892,-73.02889 -235.7648,-82.06165 -340.30223,-21.2949l366.96072,293.14394zm-424.8064,-246.93432c-76.06822,83.51065 -64.76119,198.82031 26.65717,271.84755c91.41811,73.02934 235.76404,82.06202 340.30147,21.29594l-366.95866,-293.14349l0.00002,0z"
            stroke-width="10" stroke="#000" fill="none" />
    </g>
</svg>