<svg width="75" height="45" viewBox="0 0 75 45" fill="none" xmlns="http://www.w3.org/2000/svg">
<g clip-path="url(#clip0_606_3394)">
<path d="M37.7102 44.0859C27.8907 44.0859 18.6498 41.8357 11.687 37.7487C4.60879 33.5938 0.710205 28.0316 0.710205 22.0859C0.710205 16.1403 4.60879 10.5781 11.687 6.42314C18.6498 2.33615 27.8907 0.0859375 37.7102 0.0859375C47.5297 0.0859375 56.7718 2.33615 63.7334 6.42314C70.8116 10.5781 74.7102 16.1403 74.7102 22.0859C74.7102 28.0316 70.8116 33.5938 63.7334 37.7487C56.7706 41.8357 47.5286 44.0859 37.7102 44.0859ZM37.7102 1.5047C18.1089 1.50355 2.16098 10.737 2.16098 22.0859C2.16098 33.4349 18.1077 42.6683 37.7102 42.6683C57.3127 42.6683 73.2594 33.4349 73.2594 22.0859C73.2594 10.737 57.3115 1.50355 37.7102 1.50355V1.5047Z" fill="#BFEA88"/>
<path d="M37.7102 11.1872C26.7498 11.1872 16.4742 10.4283 9.51733 9.10511L9.71179 8.13086C16.6074 9.44252 26.8123 10.1945 37.7102 10.1945C48.608 10.1945 58.813 9.44252 65.7085 8.13086L65.903 9.10511C58.9473 10.4283 48.6705 11.1872 37.7102 11.1872Z" fill="#BFEA88"/>
<path d="M65.7085 36.0407C58.813 34.729 48.608 33.977 37.7102 33.977C26.8123 33.977 16.6074 34.729 9.71179 36.0407L9.51733 35.0665C16.4742 33.7433 26.7498 32.9844 37.7102 32.9844C48.6705 32.9844 58.9461 33.7433 65.903 35.0665L65.7085 36.0407Z" fill="#BFEA88"/>
<path d="M37.7102 43.8727C22.6332 43.8727 10.3671 34.0992 10.3671 22.0858C10.3671 10.0724 22.6332 0.298828 37.7102 0.298828C52.7871 0.298828 65.0533 10.0724 65.0533 22.0858C65.0533 34.0992 52.7871 43.8727 37.7102 43.8727ZM37.7102 1.2915C23.193 1.2915 11.383 10.6194 11.383 22.0858C11.383 33.5522 23.193 42.8801 37.7102 42.8801C52.2273 42.8801 64.0374 33.551 64.0374 22.0858C64.0374 10.6205 52.2273 1.2915 37.7102 1.2915Z" fill="#BFEA88"/>
<path d="M37.7101 43.8727C34.1262 43.8727 30.778 41.5707 28.2819 37.3904C25.8364 33.2942 24.4894 27.8587 24.4894 22.0858C24.4894 16.3129 25.8364 10.8773 28.2819 6.78114C30.778 2.60086 34.1262 0.298828 37.7101 0.298828C41.2941 0.298828 44.6423 2.60086 47.1384 6.78114C49.5839 10.8773 50.9309 16.3129 50.9309 22.0858C50.9309 27.8587 49.5839 33.2942 47.1384 37.3904C44.6423 41.5707 41.2941 43.8727 37.7101 43.8727ZM37.7101 1.2915C30.9796 1.2915 25.5041 10.6194 25.5041 22.0858C25.5041 33.5522 30.9796 42.8801 37.7101 42.8801C44.4407 42.8801 49.9162 33.551 49.9162 22.0858C49.9162 10.6205 44.4407 1.2915 37.7101 1.2915Z" fill="#BFEA88"/>
<path d="M38.2182 0.794922H37.2023V43.3762H38.2182V0.794922Z" fill="#BFEA88"/>
<path d="M73.4268 21.5898L1.99365 21.5898V22.5825L73.4268 22.5825V21.5898Z" fill="#BFEA88"/>
</g>
<defs>
<clipPath id="clip0_606_3394">
<rect width="74" height="44" fill="white" transform="translate(0.710205 0.0859375)"/>
</clipPath>
</defs>
</svg>
