<svg width="164" height="164" viewBox="0 0 164 164" fill="none" xmlns="http://www.w3.org/2000/svg">
<path d="M82.1568 164C35.434 164 0 130.447 0 81.8432C0 35.1205 33.5526 0 82.1568 0C128.88 0 164 33.5526 164 81.8432C164 128.566 130.447 164 82.1568 164ZM82.1568 152.711C121.354 152.711 151.143 123.549 151.143 81.8432C151.143 41.7056 122.922 11.2887 82.1568 11.2887C42.6463 11.2887 12.8566 40.1377 12.8566 81.8432C12.8566 122.294 41.392 152.711 82.1568 152.711Z" fill="#BFEA88"/>
<path d="M68.3387 117H56V46H107V56.9543H68.3387V76.53H104.224V87.4843H68.3387V117Z" fill="#BFEA88"/>
</svg>
