<svg width="305" height="144" viewBox="0 0 305 144" fill="none" xmlns="http://www.w3.org/2000/svg">
    <path
        d="M107.139 108.978C106.711 109.104 106.404 109.398 106.062 109.628C105.076 110.3 104.108 111.005 103.084 111.622C101.996 112.279 100.912 112.947 99.7609 113.497C99.0895 113.82 98.3843 114.076 97.6604 114.25C96.974 114.414 96.2726 114.406 95.6275 113.994C95.2486 113.749 94.9973 113.448 94.9711 112.992C94.9448 112.528 94.9336 112.067 95.0086 111.607C95.0873 111.113 95.3537 110.69 95.5299 110.229C95.815 109.498 96.2876 108.863 96.659 108.198C96.6139 108.124 96.5614 108.102 96.5239 108.12C96.1226 108.325 95.6687 108.395 95.2711 108.614C94.9298 108.8 94.5547 108.922 94.1946 109.056C93.7708 109.212 93.3732 109.424 92.9418 109.565C92.623 109.669 92.3155 109.832 92.0041 109.973C91.2014 110.344 90.3763 110.671 89.5773 111.05C89.1572 111.247 88.7259 111.417 88.3095 111.637C87.6906 111.963 87.4018 112.502 87.1805 113.099C86.9855 113.619 86.7792 114.132 86.5616 114.64C86.3816 115.064 86.1753 115.476 86.029 115.917C85.8752 116.382 85.6802 116.838 85.4626 117.28C85.1513 117.915 84.8662 118.565 84.5624 119.203C84.2323 119.898 83.8948 120.592 83.5609 121.286C83.2909 121.839 83.0021 122.385 82.7358 122.938C82.4732 123.484 82.1431 123.986 81.8581 124.516C81.543 125.099 81.1904 125.664 80.8303 126.217C79.8363 127.743 78.8611 129.284 77.7846 130.761C76.7156 132.224 75.5116 133.576 74.2888 134.916C73.4824 135.796 72.6684 136.672 71.7645 137.452C70.7067 138.362 69.6377 139.264 68.5087 140.088C67.5748 140.771 66.6071 141.432 65.5681 141.959C64.7954 142.353 64.0302 142.78 63.22 143.092C62.6761 143.3 62.151 143.612 61.5396 143.623C61.4946 143.623 61.4421 143.63 61.4046 143.653C60.7182 144.065 59.9493 143.927 59.2104 143.972C58.869 143.994 58.5239 143.957 58.1826 143.938C58.0888 143.935 57.9876 143.931 57.9088 143.886C57.3387 143.575 56.731 143.33 56.3634 142.735C56.1759 142.431 55.9846 142.145 55.9396 141.778C55.9021 141.477 55.6695 141.228 55.6583 140.901C55.632 140.281 55.6358 139.669 55.8496 139.075C55.8908 138.96 55.9396 138.837 55.9434 138.718C55.9734 137.987 56.3222 137.367 56.6185 136.724C56.7685 136.405 56.8586 136.063 57.0273 135.744C57.6462 134.586 58.3552 133.483 59.1166 132.414C59.9868 131.188 60.9658 130.049 61.9822 128.942C63.2838 127.528 64.6791 126.206 66.1307 124.94C66.9034 124.268 67.6498 123.566 68.4712 122.953C69.739 122.007 70.943 120.978 72.2671 120.102C73.0023 119.612 73.6962 119.062 74.4313 118.565C75.3316 117.956 76.2505 117.377 77.162 116.786C77.5933 116.508 78.0172 116.222 78.4523 115.951C78.9661 115.632 79.4838 115.32 80.0051 115.012C80.5265 114.703 81.0441 114.395 81.573 114.102C82.1806 113.764 82.8033 113.445 83.4147 113.114C83.9585 112.821 84.5062 112.531 85.0463 112.227C85.1963 112.141 85.3464 112.064 85.5001 111.989C85.7327 111.878 85.9015 111.7 85.9765 111.447C86.149 110.872 86.2916 110.292 86.4379 109.713C86.6404 108.893 86.7304 108.046 86.993 107.237C87.1655 106.702 87.1955 106.115 87.2781 105.555C87.3156 105.28 87.3268 105.002 87.3456 104.727C87.3568 104.586 87.3681 104.434 87.1993 104.374C87.0492 104.318 86.9292 104.393 86.8242 104.497C86.1903 105.113 85.5602 105.733 84.9188 106.338C83.4934 107.679 82.0456 108.993 80.5978 110.304C79.6863 111.128 78.7411 111.9 77.7659 112.643C76.9857 113.237 76.1792 113.786 75.2978 114.217C75.0052 114.358 74.6939 114.473 74.3863 114.581C73.7562 114.804 72.796 114.358 72.856 113.508C72.8897 113.003 72.961 112.516 73.1185 112.019C73.3586 111.258 73.7937 110.601 74.0825 109.873C74.12 109.78 74.2401 109.684 74.12 109.587C74.0225 109.505 73.91 109.568 73.82 109.628C73.2911 109.984 72.7585 110.33 72.2446 110.705C71.757 111.065 71.2319 111.369 70.718 111.685C69.9791 112.138 69.2252 112.572 68.4675 112.999C68.0774 113.218 67.6498 113.374 67.2597 113.597C66.7533 113.887 66.187 114.009 65.6431 114.18C64.8254 114.44 64.0077 114.421 63.2725 113.909C63.0137 113.727 62.8074 113.493 62.7662 113.163C62.6949 112.561 62.6799 111.956 62.8262 111.369C62.9125 111.013 63.085 110.675 63.235 110.341C64.1465 108.347 65.5381 106.695 67.0909 105.169C67.2447 105.016 67.4247 104.89 67.5935 104.753C67.7061 104.66 67.8411 104.627 67.9799 104.601C68.2574 104.549 68.5425 104.564 68.7113 104.786C68.8951 105.031 68.8088 105.31 68.6513 105.566C68.2087 106.279 67.6498 106.903 67.1209 107.549C66.2957 108.555 65.4668 109.561 64.8366 110.697C64.5666 111.184 64.319 111.714 64.2253 112.286C64.1465 112.776 64.4878 113.137 64.9679 112.988C65.5156 112.817 66.0894 112.75 66.6296 112.528C67.0722 112.346 67.5035 112.138 67.9611 111.982C68.2237 111.893 68.4637 111.737 68.7038 111.596C69.5327 111.113 70.3729 110.638 71.1869 110.129C71.7907 109.75 72.3571 109.316 72.9498 108.915C73.6324 108.455 74.3151 108.002 75.009 107.556C75.6016 107.177 76.1155 106.732 76.5318 106.153C77.372 104.987 78.2235 103.825 79.1987 102.763C80.1102 101.768 80.9954 100.747 82.1131 99.9707C82.822 99.4769 83.5347 98.9905 84.3149 98.5969C84.7762 98.363 85.2638 98.1811 85.7439 98.0512C86.8917 97.7356 87.9682 97.9509 88.8572 98.8123C88.9622 98.9125 89.0147 99.0388 89.0635 99.1687C89.1085 99.2987 89.1535 99.4361 89.2322 99.5474C89.3785 99.7479 89.4273 99.967 89.4235 100.201C89.4198 100.654 89.4911 101.092 89.6186 101.523C89.8811 102.44 89.8661 103.349 89.5623 104.255C89.4948 104.46 89.4573 104.675 89.4423 104.89C89.4123 105.31 89.326 105.715 89.1985 106.112C89.1347 106.316 89.0897 106.531 89.071 106.747C89.0372 107.103 88.9172 107.434 88.8272 107.779C88.6059 108.596 88.3358 109.398 88.1783 110.233C88.1407 110.43 88.2195 110.53 88.4146 110.545C88.6059 110.564 88.7896 110.515 88.9584 110.434C89.5023 110.166 90.0874 109.995 90.6313 109.739C91.3777 109.394 92.1542 109.123 92.9081 108.8C93.3582 108.607 93.8158 108.406 94.2997 108.265C94.6973 108.15 95.0873 107.979 95.4774 107.831C96.0551 107.612 96.6252 107.363 97.2178 107.177C97.5442 107.073 97.7542 106.814 97.9793 106.583C98.3881 106.16 98.7894 105.729 99.1945 105.299C99.3746 105.106 99.5846 104.946 99.7909 104.783C99.9185 104.682 100.057 104.627 100.215 104.597C100.492 104.545 100.777 104.556 100.95 104.779C101.137 105.024 101.051 105.302 100.894 105.559C100.451 106.271 99.8997 106.899 99.3633 107.541C98.5306 108.544 97.7092 109.554 97.079 110.69C96.809 111.176 96.5614 111.711 96.4677 112.279C96.3889 112.769 96.7227 113.133 97.2066 112.984C97.7542 112.814 98.3281 112.747 98.8682 112.524C99.3108 112.346 99.7422 112.13 100.2 111.978C100.447 111.896 100.672 111.748 100.901 111.614C101.76 111.117 102.623 110.627 103.467 110.103C104.059 109.736 104.611 109.305 105.188 108.915C105.871 108.455 106.546 107.983 107.251 107.564C107.848 107.207 108.212 106.698 108.425 106.071C108.62 105.503 108.876 104.961 109.097 104.404C109.247 104.033 109.416 103.669 109.562 103.297C109.716 102.908 109.918 102.544 110.095 102.172C110.278 101.786 110.436 101.382 110.638 100.999C111.212 99.9076 111.719 98.7826 112.3 97.6984C112.836 96.6922 113.455 95.7306 113.995 94.7244C114.607 93.5809 115.349 92.519 116.032 91.4163C116.422 90.7888 116.835 90.1725 117.199 89.5264C117.379 89.2108 117.337 89.1069 116.966 89.0252C116.52 88.9249 116.062 88.9658 115.612 88.9955C113.943 89.1106 112.274 89.1663 110.605 89.1291C109.382 89.1031 108.174 89.2405 106.966 89.3779C106.377 89.4447 105.785 89.5004 105.192 89.5004C104.236 89.5004 103.29 89.5673 102.349 89.7121C101.546 89.8309 100.736 89.894 99.9222 89.8829C99.3258 89.8754 98.7407 89.9497 98.1555 90.0536C97.5892 90.1539 97.019 90.2579 96.4377 90.2653C96.2239 90.2653 96.0063 90.321 95.7925 90.3692C95.2111 90.4955 94.6335 90.618 94.0371 90.6291C93.8158 90.6329 93.5982 90.6663 93.3995 90.7628C92.7656 91.0673 92.0904 91.0153 91.4228 90.993C91.1677 90.9856 90.9801 90.8593 90.8751 90.6254C90.8376 90.54 90.7964 90.4583 90.7476 90.3767C90.3838 89.764 90.4475 89.4039 91.0139 88.9955C91.5915 88.5833 92.2104 88.3012 92.9494 88.3012C93.4932 88.3012 94.0371 88.2158 94.5772 88.3829C94.7048 88.4237 94.8585 88.4126 94.9973 88.3977C96.0888 88.2863 97.1803 88.3123 98.2718 88.3123C99.1495 88.3123 100.016 88.2269 100.886 88.123C101.599 88.0376 102.315 87.9893 103.035 87.9819C105.143 87.9522 107.251 87.9559 109.359 87.9522C111.531 87.9522 113.699 87.9076 115.871 87.8556C116.587 87.8371 117.304 87.748 118.016 87.6774C118.286 87.6514 118.496 87.5289 118.68 87.3024C119.314 86.519 119.858 85.6725 120.469 84.8779C121.632 83.3705 122.754 81.8371 124.044 80.4262C124.839 79.5574 125.616 78.6737 126.433 77.8272C126.808 77.4373 127.334 77.4819 127.682 77.6341C128.001 77.7752 128.132 78.0759 127.99 78.4584C127.765 79.0636 127.514 79.6613 127.135 80.196C126.193 81.5178 125.165 82.7764 124.168 84.0574C123.38 85.0673 122.536 86.0363 121.865 87.1316C121.801 87.2356 121.677 87.321 121.745 87.4584C121.816 87.6069 121.977 87.5957 122.116 87.5994C122.274 87.6032 122.427 87.5994 122.585 87.5994C130.454 87.5697 138.324 87.5623 146.193 87.5809C147.446 87.5809 147.131 87.6217 147.896 86.6935C148.781 85.6205 149.64 84.5252 150.623 83.5264C151.497 82.6391 152.431 81.8296 153.428 81.0908C153.95 80.7046 154.531 80.4113 155.12 80.1254C155.615 79.8841 156.14 79.7579 156.65 79.5797C157.344 79.3383 158.064 79.3495 158.762 79.5871C159.055 79.6873 159.351 79.7801 159.613 79.9658C160.33 80.4707 160.45 81.1985 160.394 81.9782C160.311 83.0883 159.88 84.0908 159.385 85.0747C158.935 85.9769 158.342 86.7863 157.775 87.618C157.715 87.7071 157.674 87.8111 157.607 87.8965C157.46 88.0858 157.453 88.2603 157.554 88.4942C157.738 88.9175 157.734 89.3371 157.355 89.6824C157.262 89.7678 157.164 89.8531 157.04 89.8754C155.971 90.0574 155.345 90.7962 154.692 91.5685C153.196 93.347 151.688 95.118 150.041 96.7591C147.967 98.8271 145.867 100.869 143.684 102.833C141.861 104.474 139.981 106.045 138.125 107.645C137.96 107.786 137.806 107.946 137.626 108.065C137.086 108.425 136.872 108.986 136.677 109.557C136.482 110.125 136.298 110.697 136.107 111.265C136.081 111.339 136.028 111.406 136.02 111.481C135.945 112.219 135.597 112.899 135.518 113.638C135.503 113.79 135.477 113.946 135.435 114.094C135.042 115.457 135.094 116.853 135.192 118.234C135.252 119.044 135.544 119.823 136.317 120.31C136.752 120.585 137.225 120.625 137.66 120.436C138.143 120.224 138.661 120.124 139.134 119.868C139.831 119.493 140.54 119.148 141.204 118.713C142.206 118.06 143.17 117.351 144.089 116.586C145.019 115.814 145.912 114.993 146.812 114.184C149.58 111.689 152.172 109.023 154.827 106.42C155.124 106.127 155.42 105.833 155.709 105.529C155.829 105.403 155.964 105.358 156.125 105.365C156.238 105.369 156.35 105.377 156.414 105.484C156.485 105.607 156.38 105.677 156.328 105.77C155.968 106.413 155.439 106.917 154.929 107.437C152.498 109.917 150.056 112.387 147.569 114.807C146.812 115.542 145.99 116.207 145.184 116.89C144.047 117.856 142.847 118.736 141.598 119.549C140.882 120.016 140.128 120.414 139.37 120.811C139.201 120.9 139.025 120.948 138.841 120.989C138.721 121.015 138.586 121.03 138.485 121.089C137.746 121.542 136.936 121.401 136.163 121.309C135.784 121.264 135.428 120.974 135.162 120.666C134.381 119.771 133.958 118.739 133.95 117.547C133.943 116.53 133.943 115.509 134.021 114.495C134.036 114.328 134.055 114.158 134.1 113.994C134.224 113.53 134.321 113.066 134.351 112.583C134.366 112.32 134.426 112.064 134.539 111.822C134.625 111.64 134.674 111.443 134.693 111.243C134.723 110.901 134.801 110.575 134.959 110.266C135.087 110.014 135.098 109.732 135.139 109.457C135.154 109.364 135.147 109.268 135.06 109.205C134.955 109.13 134.85 109.171 134.76 109.238C134.396 109.502 134.033 109.769 133.669 110.036C132.603 110.812 131.527 111.57 130.33 112.145C129.91 112.349 129.46 112.487 129.055 112.721C128.916 112.799 128.763 112.821 128.605 112.828C128.417 112.836 128.23 112.836 128.042 112.854C126.891 112.988 126.186 112.394 125.694 111.458C125.199 110.519 125.057 109.509 125.117 108.462C125.117 108.417 125.128 108.369 125.128 108.325C125.147 107.898 125.06 107.835 124.648 107.894C124.262 107.95 123.946 108.102 123.68 108.391C122.709 109.439 121.632 110.374 120.559 111.321C120.016 111.8 119.385 112.123 118.722 112.398C118.463 112.505 118.211 112.464 117.968 112.305C117.176 111.781 116.929 110.946 117.266 110.047C117.75 108.748 118.47 107.59 119.31 106.494C119.779 105.885 120.387 105.432 120.995 104.972C121.332 104.716 121.696 104.456 122.079 104.356C123.043 104.103 124.04 103.903 124.959 104.541C125.012 104.578 125.06 104.612 125.117 104.641C125.473 104.853 125.544 104.846 125.859 104.59C126.024 104.452 126.159 104.278 126.385 104.211C126.79 104.096 127.003 104.252 126.958 104.656C126.943 104.779 126.94 104.913 126.887 105.02C126.628 105.551 126.542 106.138 126.336 106.684C126.283 106.828 126.212 106.973 126.201 107.125C126.114 108.184 125.938 109.249 126.193 110.304C126.343 110.924 126.636 111.503 127.217 111.844C127.701 112.134 128.264 112.108 128.751 111.896C129.16 111.718 129.584 111.559 129.985 111.354C130.777 110.95 131.527 110.486 132.258 109.995C133.084 109.446 133.913 108.889 134.666 108.25C135.18 107.816 135.698 107.352 136.081 106.788C136.276 106.498 136.366 106.141 136.512 105.818C136.636 105.54 136.767 105.258 136.872 104.968C137.097 104.359 137.378 103.78 137.618 103.182C137.892 102.507 138.275 101.89 138.579 101.233C138.879 100.591 139.22 99.967 139.558 99.3432C139.888 98.7343 140.24 98.1365 140.585 97.5351C140.874 97.0264 141.152 96.5103 141.452 96.0054C141.887 95.2776 142.318 94.5499 142.783 93.8371C143.173 93.243 143.578 92.6638 143.98 92.0772C144.422 91.4274 144.884 90.7888 145.326 90.1353C145.611 89.7121 145.897 89.2888 146.223 88.8952C146.309 88.7913 146.41 88.665 146.332 88.5202C146.253 88.3717 146.088 88.4014 145.953 88.4014C144.861 88.4014 143.766 88.4014 142.675 88.4014C139.816 88.4051 136.958 88.3903 134.104 88.4237C132.247 88.446 130.394 88.5722 128.538 88.665C126.497 88.7653 124.449 88.7913 122.405 88.743C121.906 88.7319 121.407 88.7653 120.908 88.7876C120.436 88.8098 120.038 89.0215 119.685 89.3111C119.153 89.7455 118.729 90.2727 118.354 90.8482C117.589 92.0289 116.899 93.2467 116.171 94.4497C115.518 95.5338 114.873 96.6217 114.277 97.7356C113.695 98.8197 113.114 99.9076 112.593 101.025C112.176 101.916 111.7 102.781 111.276 103.665C110.965 104.318 110.695 104.991 110.395 105.651C110.08 106.353 109.731 107.044 109.446 107.757C109.269 108.198 109.041 108.622 108.891 109.075C108.733 109.554 108.53 110.025 108.32 110.486C108.174 110.809 108.069 111.15 107.953 111.481C107.769 111.986 107.555 112.479 107.379 112.988C107.199 113.508 107.045 114.042 106.824 114.555C106.636 114.989 106.512 115.457 106.355 115.906C106.239 116.237 106.111 116.578 106.04 116.916C105.912 117.507 105.661 118.056 105.511 118.639C105.368 119.188 105.2 119.734 105.027 120.276C104.926 120.585 104.873 120.904 104.78 121.212C104.498 122.148 104.472 123.132 104.183 124.06C104.033 124.539 104.063 125.036 103.977 125.523C103.778 126.677 103.819 127.828 104.059 128.972C104.183 129.562 104.517 130.008 105.136 130.19C105.507 130.297 105.729 130.513 105.699 130.721C105.672 130.906 105.413 131.059 105.05 131.081C104.258 131.129 103.647 130.806 103.245 130.141C102.75 129.317 102.552 128.404 102.529 127.45C102.518 126.986 102.529 126.525 102.533 126.061C102.533 125.69 102.574 125.322 102.668 124.962C102.765 124.587 102.825 124.208 102.848 123.822C102.874 123.406 102.934 122.994 103.092 122.601C103.159 122.426 103.193 122.244 103.212 122.059C103.249 121.58 103.324 121.112 103.493 120.655C103.557 120.484 103.576 120.295 103.602 120.113C103.639 119.835 103.692 119.567 103.816 119.311C103.917 119.099 103.936 118.865 103.999 118.643C104.217 117.893 104.348 117.117 104.633 116.382C104.787 115.981 104.896 115.561 105.016 115.149C105.177 114.603 105.38 114.068 105.552 113.53C105.714 113.021 105.849 112.498 106.1 112.015C106.284 111.659 106.362 111.262 106.497 110.887C106.719 110.255 107.049 109.654 107.15 108.963L107.139 108.978ZM59.4429 143.144C60.4181 143.326 61.3371 142.921 62.2711 142.643C62.6349 142.535 63.0287 142.438 63.3588 142.238C63.7039 142.026 64.0752 141.859 64.4391 141.696C65.4255 141.25 66.3332 140.675 67.1922 140.047C68.58 139.034 69.9753 138.02 71.2131 136.817C72.3046 135.763 73.4374 134.749 74.4201 133.587C75.1103 132.774 75.7066 131.886 76.3743 131.055C77.3345 129.856 78.0884 128.526 78.9174 127.245C79.345 126.585 79.7351 125.901 80.1139 125.214C80.744 124.067 81.4455 122.961 81.9631 121.754C82.3082 120.948 82.6907 120.158 83.0733 119.37C83.2346 119.036 83.3584 118.691 83.5047 118.353C83.726 117.844 83.9135 117.325 84.1536 116.823C84.3524 116.404 84.4874 115.962 84.6562 115.535C84.9 114.922 85.1813 114.321 85.3351 113.675C85.3689 113.541 85.4364 113.396 85.2901 113.292C85.1663 113.203 85.02 113.229 84.885 113.281C84.7987 113.315 84.72 113.367 84.6374 113.411C84.2774 113.597 83.921 113.783 83.5609 113.964C83.0208 114.239 82.4694 114.492 81.9481 114.796C81.1866 115.242 80.3915 115.628 79.645 116.099C78.7411 116.667 77.7996 117.184 76.9144 117.778C75.3953 118.795 73.865 119.797 72.3946 120.889C71.3744 121.65 70.3279 122.374 69.3489 123.184C67.7586 124.502 66.2095 125.861 64.7016 127.268C63.16 128.712 61.7534 130.271 60.4631 131.942C59.4879 133.205 58.5877 134.508 57.8375 135.911C57.3687 136.784 56.9711 137.679 56.7723 138.651C56.746 138.77 56.701 138.889 56.6635 139.004C56.3334 139.977 56.3109 140.946 56.7535 141.885C57.1061 142.624 57.6687 143.118 58.554 143.133C58.8353 143.136 59.1166 143.133 59.4392 143.133L59.4429 143.144ZM153.788 89.3593C153.788 89.3928 153.796 89.3296 153.796 89.2702C153.803 88.9286 153.717 88.8321 153.368 88.7987C153.229 88.7838 153.087 88.7876 152.948 88.7876C152.292 88.7801 151.639 88.769 150.983 88.7207C150.206 88.665 149.437 88.5239 148.653 88.498C148.117 88.4794 147.779 88.6873 147.498 89.1106C146.962 89.92 146.388 90.7071 145.848 91.5202C145.266 92.3927 144.7 93.2764 144.145 94.1675C143.834 94.665 143.522 95.1588 143.252 95.6786C142.96 96.2393 142.611 96.7702 142.303 97.3197C141.842 98.1403 141.384 98.9608 140.945 99.7888C140.63 100.387 140.345 100.999 140.049 101.608C139.861 101.994 139.678 102.384 139.49 102.77C139.197 103.364 138.901 103.955 138.612 104.549C138.56 104.66 138.504 104.794 138.62 104.89C138.755 104.998 138.841 104.872 138.939 104.797C139.756 104.203 140.469 103.487 141.249 102.852C143.012 101.426 144.674 99.889 146.35 98.3705C148.155 96.7368 149.884 95.0289 151.515 93.2244C152.314 92.3408 153.128 91.4682 153.946 90.5994C154.085 90.4509 154.145 90.3432 153.976 90.1762C153.777 89.9757 153.725 89.7232 153.785 89.3556L153.788 89.3593ZM87.4506 100.32C87.4431 99.618 86.9892 99.1687 86.4379 99.2801C85.7064 99.4286 84.9975 99.6588 84.3524 100.052C83.3922 100.635 82.5407 101.352 81.7155 102.102C80.8191 102.915 79.9526 103.747 79.2325 104.727C78.4635 105.77 77.7284 106.843 76.9219 107.861C75.9579 109.082 75.2303 110.434 74.5176 111.8C74.3788 112.067 74.2888 112.368 74.1575 112.646C74.075 112.814 74.0638 113.003 74.0938 113.192C74.12 113.341 74.2063 113.419 74.3563 113.341C74.8364 113.092 75.3278 112.858 75.7892 112.576C76.8169 111.956 77.6871 111.132 78.5836 110.348C80.1627 108.967 81.603 107.452 83.0471 105.937C84.3599 104.56 85.6127 103.123 86.873 101.701C87.2518 101.274 87.3456 100.747 87.4506 100.32ZM155.06 87.9559C155.06 87.9559 155.06 87.941 155.06 87.9336C155.105 87.9336 155.154 87.9336 155.199 87.9336C156.144 87.9336 156.14 87.9336 156.718 87.2282C157.742 85.9806 158.586 84.6291 159.205 83.1329C159.478 82.472 159.46 81.8148 159.422 81.1391C159.411 80.9051 159.268 80.7566 159.092 80.6081C158.777 80.3408 158.424 80.2517 158.016 80.2405C157.528 80.2294 157.112 80.4373 156.661 80.5487C155.863 80.7492 155.157 81.1279 154.471 81.5512C153.578 82.1007 152.828 82.8247 152.07 83.5301C150.866 84.6514 149.842 85.9324 148.856 87.243C148.837 87.269 148.815 87.2913 148.803 87.3173C148.74 87.4398 148.773 87.5363 148.905 87.5697C149.025 87.5994 149.152 87.6032 149.276 87.6106C149.944 87.6477 150.615 87.6774 151.283 87.7183C152.543 87.7925 153.803 87.8742 155.064 87.9522L155.06 87.9559ZM123.568 106.687C123.579 106.405 123.388 106.171 123.196 106.26C122.791 106.45 122.326 106.487 121.959 106.776C121.141 107.426 120.436 108.18 119.776 108.986C119.505 109.316 119.378 109.713 119.16 110.07C119.097 110.174 119.044 110.318 119.16 110.411C119.288 110.512 119.385 110.389 119.487 110.318C119.678 110.189 119.881 110.073 120.068 109.936C121.227 109.097 122.262 108.117 123.305 107.144C123.448 107.014 123.534 106.854 123.564 106.687H123.568Z"
        fill="#BFEA88" />
    <path
        d="M221.994 114.956C222.013 114.555 222.032 114.154 222.054 113.753C222.069 113.441 222.125 113.141 222.264 112.858C222.298 112.792 222.328 112.714 222.339 112.639C222.444 111.737 222.864 110.935 223.243 110.133C223.487 109.621 223.599 109.053 223.933 108.578C224.102 108.34 224.286 108.106 224.353 107.813C224.428 107.497 224.391 107.415 224.053 107.412C223.273 107.404 222.497 107.274 221.717 107.297C220.918 107.319 220.126 107.241 219.338 107.118C218.753 107.029 218.168 106.922 217.576 106.907C217.261 106.899 216.968 106.777 216.668 106.684C215.854 106.431 215.674 106.565 215.771 107.408C215.835 107.969 215.79 108.526 215.696 109.068C215.614 109.528 215.423 109.985 215.213 110.412C214.815 111.232 214.26 111.964 213.735 112.706C213.438 113.126 213.037 113.46 212.617 113.753C212.009 114.18 211.42 114.641 210.663 114.811C210.003 114.96 209.459 114.782 209.009 114.318C208.48 113.772 208.427 113.078 208.446 112.376C208.469 111.559 208.795 110.831 209.155 110.107C209.669 109.075 210.348 108.162 211.102 107.297C211.214 107.167 211.312 107.029 211.413 106.892C211.462 106.829 211.495 106.755 211.443 106.68C211.394 106.61 211.312 106.606 211.233 106.613C211.203 106.613 211.169 106.617 211.139 106.628C210.183 106.981 209.162 106.884 208.183 107.059C207.505 107.181 206.822 107.215 206.135 107.233C205.239 107.256 204.361 107.118 203.48 107.018C203.202 106.988 202.921 106.948 202.643 106.929C202.295 106.91 201.976 106.803 201.653 106.673C201.267 106.517 201.151 106.591 201.083 106.996C201.061 107.133 201.038 107.271 201.034 107.408C201.034 108.028 200.787 108.578 200.539 109.127C200.363 109.521 200.254 109.933 200.033 110.315C199.643 110.983 199.215 111.626 198.713 112.212C197.872 113.193 196.923 114.061 195.896 114.845C195.667 115.019 195.412 115.127 195.157 115.238C194.369 115.58 194.009 115.465 193.323 114.726C193.199 114.596 193.184 114.422 193.146 114.254C192.977 113.497 193.067 112.743 193.217 112.004C193.308 111.559 193.506 111.128 193.69 110.705C194.005 109.988 194.358 109.283 194.677 108.566C194.755 108.396 194.883 108.258 194.965 108.091C195.022 107.976 195.059 107.854 194.98 107.738C194.894 107.612 194.763 107.642 194.639 107.668C194.564 107.686 194.485 107.701 194.414 107.735C193.551 108.158 192.632 108.451 191.755 108.841C190.764 109.283 189.74 109.654 188.765 110.133C188.086 110.467 187.359 110.712 186.672 111.039C186.181 111.273 185.667 111.451 185.202 111.741C184.696 112.06 184.455 112.558 184.26 113.078C184.062 113.612 183.84 114.136 183.623 114.663C183.446 115.09 183.244 115.502 183.094 115.944C182.94 116.408 182.745 116.861 182.524 117.306C182.209 117.941 181.931 118.591 181.627 119.233C181.305 119.917 180.978 120.596 180.645 121.276C180.371 121.829 180.086 122.375 179.816 122.928C179.553 123.47 179.223 123.975 178.938 124.506C178.615 125.1 178.259 125.679 177.888 126.247C176.89 127.773 175.919 129.314 174.842 130.788C173.781 132.24 172.588 133.58 171.376 134.905C170.581 135.774 169.782 136.643 168.886 137.408C167.802 138.336 166.714 139.264 165.562 140.107C164.64 140.783 163.687 141.433 162.659 141.956C161.883 142.35 161.121 142.78 160.315 143.092C159.771 143.3 159.246 143.612 158.635 143.631C158.575 143.631 158.503 143.642 158.455 143.672C157.656 144.117 156.778 143.924 155.934 143.983C155.825 143.991 155.716 143.969 155.608 143.969C155.244 143.969 154.932 143.846 154.595 143.698C154.002 143.434 153.612 143.007 153.271 142.502C153.237 142.45 153.181 142.409 153.162 142.353C152.798 141.344 152.517 140.323 152.869 139.249C152.967 138.952 153.05 138.659 153.061 138.347C153.076 137.85 153.365 137.441 153.552 137.011C153.747 136.561 153.897 136.094 154.145 135.659C154.67 134.731 155.214 133.818 155.821 132.941C156.234 132.344 156.658 131.753 157.119 131.193C158.357 129.685 159.662 128.237 161.084 126.893C162.232 125.805 163.417 124.754 164.61 123.719C165.217 123.191 165.892 122.738 166.515 122.23C167.299 121.591 168.102 120.986 168.923 120.399C170.198 119.486 171.489 118.595 172.787 117.719C173.736 117.076 174.703 116.453 175.678 115.851C176.402 115.402 177.168 115.016 177.888 114.566C178.627 114.106 179.399 113.712 180.157 113.289C180.915 112.866 181.68 112.457 182.456 112.068C182.79 111.901 182.974 111.67 183.086 111.321C183.446 110.219 183.634 109.082 183.863 107.954C183.975 107.397 184.14 106.855 184.238 106.29C184.324 105.785 184.32 105.277 184.403 104.776C184.425 104.642 184.444 104.482 184.287 104.408C184.122 104.326 183.994 104.419 183.874 104.534C183.139 105.247 182.411 105.967 181.661 106.662C180.225 107.987 178.769 109.29 177.336 110.62C176.219 111.655 174.988 112.55 173.754 113.438C173.049 113.946 172.25 114.31 171.429 114.604C170.806 114.826 169.872 114.362 169.917 113.556C169.943 113.048 170.022 112.561 170.176 112.064C170.401 111.332 170.78 110.683 171.11 110.007C171.429 109.357 171.834 108.752 172.235 108.147C172.693 107.453 173.158 106.758 173.653 106.086C174.613 104.794 175.57 103.502 176.68 102.329C177.449 101.519 178.195 100.691 179.114 100.042C179.846 99.5256 180.585 99.0243 181.391 98.6085C181.852 98.3709 182.34 98.1926 182.82 98.0627C183.968 97.7471 185.044 97.9699 185.93 98.8313C186.035 98.9315 186.091 99.054 186.132 99.1914C186.173 99.3399 186.23 99.4847 186.327 99.611C186.458 99.778 186.492 99.9748 186.492 100.179C186.485 100.677 186.578 101.159 186.71 101.638C186.95 102.511 186.927 103.376 186.638 104.237C186.612 104.311 186.582 104.386 186.578 104.46C186.541 105.329 186.192 106.142 186.11 107.003C186.098 107.111 186.091 107.226 186.046 107.319C185.776 107.913 185.735 108.574 185.491 109.179C185.348 109.532 185.311 109.925 185.236 110.304C185.206 110.453 185.296 110.538 185.438 110.56C185.629 110.59 185.813 110.545 185.986 110.471C186.864 110.078 187.767 109.751 188.649 109.372C189.392 109.053 190.142 108.759 190.888 108.462C191.346 108.28 191.803 108.084 192.284 107.946C192.771 107.805 193.236 107.575 193.716 107.401C194.181 107.23 194.643 107.048 195.112 106.884C195.569 106.725 195.896 106.457 196.139 106.064C196.391 105.656 196.631 105.243 196.931 104.868C197.175 104.568 197.448 104.297 197.79 104.096C198.101 103.914 198.409 103.884 198.713 104.096C198.87 104.204 199.035 104.3 199.23 104.278C199.733 104.226 200.078 104.501 200.322 104.868C200.854 105.659 201.612 106.038 202.535 106.164C202.595 106.172 202.662 106.179 202.718 106.205C203.551 106.55 204.429 106.513 205.303 106.513C205.989 106.513 206.687 106.565 207.362 106.476C208.532 106.324 209.71 106.209 210.85 105.878C210.955 105.849 211.064 105.8 211.169 105.8C211.766 105.815 212.287 105.544 212.834 105.377C213.071 105.303 213.247 105.158 213.367 104.95C213.446 104.816 213.532 104.694 213.675 104.612C213.881 104.497 214.065 104.471 214.29 104.586C214.56 104.727 214.766 104.935 214.972 105.143C215.321 105.492 215.719 105.678 216.207 105.819C217.234 106.116 218.27 106.127 219.312 106.142C219.657 106.146 219.999 106.175 220.34 106.212C221.769 106.361 223.206 106.391 224.642 106.409C225.175 106.417 225.52 106.179 225.801 105.771C226.368 104.954 227.065 104.248 227.767 103.547C228.344 102.964 228.933 102.384 229.582 101.883C230.22 101.389 230.91 100.974 231.604 100.561C232.035 100.305 232.5 100.112 232.969 99.9748C233.884 99.7038 234.796 99.7409 235.583 100.372C235.921 100.643 236.229 100.944 236.412 101.36C236.551 101.672 236.802 101.694 237.035 101.434C237.538 100.866 238.037 100.29 238.52 99.7075C239.953 97.981 241.375 96.2434 242.804 94.5132C244.135 92.9018 245.471 91.2941 246.81 89.6902C248.04 88.2162 249.282 86.7496 250.519 85.2867C250.669 85.1085 250.838 84.9489 251 84.7855C251.112 84.6704 251.262 84.6147 251.42 84.5961C251.716 84.5664 251.877 84.7706 251.798 85.0602C251.701 85.4167 251.453 85.6877 251.24 85.9588C250.287 87.158 249.383 88.3907 248.505 89.6456C247.796 90.6592 247.121 91.6914 246.431 92.7125C245.906 93.4922 245.377 94.2719 244.856 95.0553C244.278 95.9315 243.708 96.8115 243.138 97.6914C242.56 98.5862 241.99 99.4847 241.42 100.383C240.793 101.375 240.246 102.41 239.653 103.424C239.188 104.222 238.802 105.065 238.325 105.856C238.123 106.194 237.935 106.554 237.811 106.94C237.703 107.274 237.519 107.582 237.38 107.909C236.968 108.867 236.465 109.792 236.079 110.761C235.895 111.229 235.734 111.719 235.55 112.186C235.306 112.792 235.175 113.423 234.983 114.039C234.77 114.726 234.68 115.454 234.593 116.17C234.544 116.582 234.736 116.987 234.848 117.388C234.89 117.54 235.021 117.589 235.16 117.633C235.535 117.756 235.756 117.96 235.707 118.168C235.64 118.461 235.411 118.636 235.137 118.732C234.646 118.907 233.944 118.535 233.682 117.99C233.363 117.336 233.19 116.668 233.295 115.933C233.348 115.569 233.325 115.194 233.337 114.823C233.348 114.496 233.393 114.177 233.49 113.865C233.569 113.612 233.618 113.356 233.637 113.092C233.659 112.769 233.716 112.45 233.881 112.16C233.911 112.108 233.941 112.049 233.948 111.99C234.004 111.37 234.301 110.813 234.466 110.222C234.593 109.758 234.762 109.287 234.991 108.845C235.197 108.451 235.351 108.028 235.535 107.623C235.696 107.259 235.861 106.892 236.034 106.532C236.124 106.346 236.101 106.231 235.88 106.209C235.535 106.175 235.321 105.967 235.148 105.693C234.957 105.384 234.8 105.362 234.541 105.633C234.282 105.901 234.049 106.19 233.809 106.472C232.725 107.746 231.638 109.012 230.569 110.297C229.837 111.177 229.155 112.101 228.431 112.985C227.392 114.251 226.416 115.576 225.216 116.709C224.811 117.091 224.357 117.362 223.832 117.54C223.273 117.73 222.756 117.462 222.459 117.087C222.163 116.709 221.953 116.278 222.005 115.762C222.032 115.502 222.009 115.238 222.009 114.975C222.002 114.975 221.998 114.975 221.99 114.975L221.994 114.956ZM156.527 143.144C157.498 143.326 158.417 142.914 159.351 142.639C159.7 142.535 160.082 142.446 160.397 142.253C160.743 142.042 161.114 141.871 161.478 141.711C162.464 141.269 163.372 140.69 164.231 140.066C165.649 139.038 167.066 138.002 168.327 136.78C169.415 135.722 170.555 134.712 171.526 133.543C172.119 132.83 172.689 132.095 173.233 131.349C173.679 130.736 174.171 130.16 174.553 129.5C174.955 128.809 175.427 128.152 175.859 127.476C176.132 127.045 176.406 126.615 176.657 126.173C176.973 125.627 177.243 125.052 177.576 124.517C178.379 123.232 178.99 121.851 179.632 120.488C179.992 119.724 180.33 118.948 180.671 118.175C180.843 117.782 181.005 117.381 181.166 116.983C181.38 116.456 181.609 115.936 181.792 115.398C181.995 114.8 182.295 114.24 182.419 113.612C182.475 113.323 182.359 113.196 182.074 113.248C181.969 113.267 181.867 113.319 181.774 113.367C181.474 113.527 181.177 113.705 180.873 113.857C179.632 114.488 178.379 115.108 177.179 115.814C176.444 116.245 175.716 116.69 174.996 117.139C174.313 117.566 173.63 117.997 172.967 118.454C172.314 118.899 171.639 119.311 171.005 119.787C170.435 120.214 169.835 120.6 169.261 121.023C168.364 121.688 167.46 122.345 166.594 123.047C165.532 123.904 164.505 124.803 163.492 125.716C162.168 126.912 160.836 128.1 159.64 129.425C158.695 130.472 157.802 131.56 156.958 132.685C156.196 133.699 155.518 134.764 154.925 135.886C154.456 136.773 154.043 137.683 153.841 138.67C153.815 138.789 153.77 138.908 153.728 139.023C153.395 139.996 153.38 140.969 153.83 141.9C154.186 142.636 154.752 143.129 155.638 143.137C155.919 143.137 156.2 143.137 156.527 143.137V143.144ZM184.515 100.324C184.512 99.6221 184.054 99.1691 183.507 99.2805C182.775 99.4253 182.066 99.6555 181.421 100.053C180.465 100.639 179.606 101.345 178.78 102.102C177.888 102.919 177.014 103.743 176.297 104.727C175.528 105.789 174.756 106.855 173.953 107.891C173.015 109.108 172.288 110.445 171.583 111.793C171.444 112.06 171.357 112.365 171.222 112.639C171.14 112.806 171.129 112.996 171.159 113.185C171.181 113.334 171.267 113.415 171.421 113.337C171.901 113.089 172.393 112.855 172.854 112.576C173.882 111.956 174.752 111.136 175.648 110.349C177.228 108.967 178.668 107.453 180.112 105.938C181.425 104.56 182.678 103.123 183.938 101.701C184.317 101.274 184.41 100.747 184.515 100.32V100.324ZM223.311 115.55C223.311 115.517 223.311 115.58 223.311 115.639C223.322 115.907 223.341 116.193 223.614 116.323C223.9 116.456 224.087 116.2 224.26 116.052C224.927 115.472 225.565 114.86 226.139 114.188C227.144 113.014 228.153 111.841 229.151 110.657C229.957 109.699 230.73 108.711 231.54 107.757C232.53 106.591 233.543 105.44 234.556 104.293C234.736 104.089 234.807 103.877 234.8 103.621C234.788 103.198 234.657 102.815 234.469 102.429C234.342 102.165 234.177 102.039 233.903 102.035C233.464 102.032 233.033 102.065 232.65 102.329C232.421 102.488 232.185 102.637 231.941 102.771C230.599 103.528 229.496 104.568 228.457 105.678C227.602 106.595 226.814 107.571 226.079 108.585C225.516 109.361 225.066 110.2 224.646 111.054C224.413 111.529 224.278 112.034 224.087 112.521C223.911 112.959 223.682 113.389 223.614 113.868C223.566 114.221 223.498 114.566 223.386 114.904C223.326 115.082 223.303 115.264 223.311 115.547V115.55ZM199.902 106.962C199.909 106.428 199.616 105.767 199.264 105.455C199.039 105.258 198.923 105.24 198.69 105.422C198.469 105.592 198.289 105.804 198.131 106.038C197.666 106.729 197.257 107.449 196.845 108.173C196.147 109.405 195.382 110.605 194.872 111.93C194.695 112.387 194.609 112.877 194.493 113.356C194.455 113.508 194.474 113.672 194.639 113.761C194.789 113.839 194.939 113.824 195.085 113.735C195.138 113.701 195.183 113.66 195.235 113.623C196.132 112.977 196.957 112.261 197.674 111.414C198.285 110.694 198.829 109.936 199.264 109.094C199.481 108.67 199.534 108.214 199.725 107.794C199.857 107.508 199.902 107.204 199.902 106.962ZM214.684 108.106C214.627 107.612 214.582 107.2 214.53 106.788C214.507 106.602 214.47 106.409 214.252 106.342C214.054 106.283 213.934 106.424 213.81 106.543C213.363 106.974 212.936 107.419 212.538 107.894C211.642 108.964 210.835 110.096 210.224 111.347C210.029 111.745 209.95 112.194 209.83 112.625C209.793 112.758 209.808 112.903 209.849 113.037C209.969 113.401 210.284 113.568 210.618 113.412C210.899 113.282 211.184 113.141 211.424 112.951C212.118 112.402 212.767 111.811 213.33 111.121C213.813 110.523 214.147 109.847 214.436 109.153C214.582 108.804 214.616 108.407 214.684 108.106ZM240.298 98.8944C240.156 98.8684 240.115 98.9909 240.051 99.0652C239.072 100.224 238.097 101.382 237.114 102.537C236.825 102.875 236.709 103.246 236.716 103.684C236.724 104.178 236.694 104.672 236.427 105.117C236.364 105.225 236.352 105.351 236.364 105.477C236.371 105.54 236.382 105.607 236.454 105.622C236.525 105.641 236.574 105.592 236.596 105.533C236.652 105.388 236.686 105.236 236.757 105.102C237.11 104.438 237.455 103.769 237.841 103.12C238.288 102.362 238.7 101.586 239.222 100.873C239.623 100.324 239.916 99.7112 240.291 99.1468C240.34 99.0726 240.381 98.9798 240.298 98.8907V98.8944Z"
        fill="#BFEA88" />
    <path
        d="M44.3494 114.986C44.372 114.555 44.3945 114.124 44.417 113.694C44.432 113.411 44.4882 113.144 44.612 112.888C44.6533 112.806 44.687 112.713 44.702 112.624C44.8708 111.611 45.3209 110.701 45.786 109.795C45.9398 109.494 45.9773 109.156 46.1499 108.852C46.5775 108.102 47.0726 107.393 47.5302 106.661C48.4904 105.124 49.7544 103.851 51.0597 102.614C51.9749 101.749 53.0177 101.055 54.1354 100.461C54.5931 100.216 55.0657 99.9856 55.5495 99.8817C56.5923 99.6552 57.5712 99.8408 58.3252 100.684C58.4902 100.869 58.644 101.055 58.749 101.285C58.9178 101.653 59.1578 101.686 59.4204 101.374C60.3844 100.242 61.3784 99.1354 62.3048 97.9732C63.2313 96.8111 64.1803 95.6713 65.1292 94.524C66.4795 92.8903 67.8336 91.2604 69.1952 89.6304C70.4179 88.1713 71.6445 86.7158 72.8747 85.2641C73.0248 85.0859 73.1936 84.9262 73.3549 84.7592C73.4674 84.6441 73.6174 84.5846 73.7712 84.5661C74.0675 84.5327 74.2401 84.7369 74.1575 85.0191C74.045 85.4015 73.7787 85.6911 73.5424 85.9955C72.9048 86.8124 72.2709 87.6329 71.6745 88.4757C70.9431 89.5079 70.2341 90.5586 69.5177 91.602C68.7075 92.7864 67.8974 93.9708 67.0984 95.1626C66.5508 95.9831 66.0294 96.8222 65.4968 97.6539C64.9229 98.5524 64.3528 99.4472 63.7827 100.349C63.1563 101.341 62.6049 102.377 62.016 103.387C61.5509 104.185 61.1683 105.028 60.6882 105.819C60.4857 106.153 60.2944 106.517 60.1743 106.903C60.0693 107.237 59.893 107.552 59.7392 107.868C59.4054 108.544 59.1128 109.242 58.794 109.921C58.4527 110.656 58.1826 111.429 57.8976 112.19C57.6688 112.799 57.5937 113.448 57.3124 114.035C57.2524 114.158 57.2262 114.302 57.2149 114.44C57.1924 114.859 57.1099 115.264 56.9974 115.669C56.8323 116.27 57.0574 116.827 57.2187 117.388C57.2562 117.521 57.3799 117.562 57.5037 117.599C57.6087 117.629 57.7175 117.655 57.8075 117.711C58.1151 117.908 58.1414 118.175 57.8863 118.439C57.5412 118.799 57.0836 118.854 56.6598 118.587C56.3222 118.372 56.1121 118.082 55.9359 117.715C55.6508 117.128 55.5945 116.541 55.6545 115.918C55.6883 115.55 55.6808 115.179 55.6958 114.807C55.7071 114.466 55.7558 114.132 55.8608 113.805C55.9396 113.567 55.9771 113.326 55.9959 113.081C56.0221 112.758 56.0709 112.439 56.2359 112.145C56.2659 112.093 56.2997 112.034 56.3034 111.974C56.356 111.351 56.6598 110.797 56.8211 110.207C56.9486 109.743 57.1136 109.271 57.3424 108.83C57.545 108.432 57.7063 108.017 57.8863 107.608C58.0513 107.244 58.2201 106.88 58.3889 106.517C58.4977 106.275 58.4864 106.231 58.2126 106.182C57.8901 106.127 57.6838 105.945 57.5187 105.685C57.3049 105.347 57.1586 105.325 56.8811 105.622C56.6148 105.904 56.371 106.205 56.1197 106.502C55.1557 107.63 54.1842 108.755 53.2277 109.895C52.395 110.89 51.5849 111.911 50.8009 112.944C50.2871 113.619 49.7244 114.262 49.1806 114.915C48.6629 115.531 48.1416 116.144 47.5527 116.697C47.1588 117.065 46.7237 117.34 46.2061 117.503C45.651 117.681 45.0659 117.458 44.7395 116.976C44.462 116.56 44.3157 116.125 44.3569 115.628C44.3757 115.413 44.3569 115.197 44.3569 114.982C44.3494 114.982 44.3419 114.982 44.3382 114.982L44.3494 114.986ZM45.6622 115.483C45.6698 115.606 45.6698 115.732 45.6885 115.851C45.771 116.363 46.0448 116.489 46.4499 116.177C46.9788 115.769 47.4664 115.312 47.9128 114.819C49.3418 113.252 50.6847 111.614 52.0387 109.988C53.6291 108.072 55.2607 106.194 56.8923 104.311C57.0949 104.077 57.1624 103.843 57.1474 103.554C57.1324 103.142 56.9823 102.781 56.8098 102.414C56.6935 102.165 56.5322 102.05 56.2772 102.043C55.8383 102.031 55.407 102.061 55.0244 102.321C54.7806 102.488 54.533 102.644 54.2742 102.789C53.2577 103.353 52.41 104.122 51.5736 104.905C50.8009 105.625 50.137 106.442 49.4694 107.255C48.7605 108.113 48.0666 108.986 47.5602 109.977C47.3726 110.345 47.1588 110.701 46.9863 111.083C46.7688 111.562 46.6262 112.067 46.4349 112.55C46.2624 112.988 46.0261 113.419 45.9661 113.898C45.9248 114.236 45.8573 114.566 45.7485 114.889C45.6848 115.082 45.6585 115.279 45.6585 115.483H45.6622ZM62.6574 98.9015C62.5149 98.8718 62.4736 98.9943 62.4098 99.0722C61.4309 100.227 60.4556 101.389 59.4729 102.544C59.1879 102.882 59.0678 103.253 59.0753 103.691C59.0828 104.185 59.0528 104.679 58.7903 105.124C58.7378 105.213 58.734 105.332 58.7265 105.436C58.719 105.51 58.7265 105.603 58.8165 105.629C58.914 105.655 58.9516 105.573 58.9778 105.503C59.0266 105.373 59.0566 105.232 59.1203 105.113C59.4767 104.448 59.818 103.78 60.2043 103.13C60.6507 102.377 61.067 101.601 61.5809 100.884C61.9785 100.331 62.2823 99.7257 62.6537 99.1576C62.7024 99.0834 62.7437 98.9906 62.6612 98.9015H62.6574Z"
        fill="#BFEA88" />
    <path
        d="M241.66 122.147C241.528 122.14 241.356 122.136 241.187 122.114C240.669 122.054 240.403 121.791 240.369 121.271C240.339 120.744 240.388 120.25 240.681 119.764C240.932 119.344 241.123 118.887 241.39 118.472C241.768 117.885 242.204 117.343 242.665 116.819C243.715 115.635 244.818 114.51 246.029 113.485C246.292 113.266 246.528 113.017 246.795 112.806C247.031 112.62 247.046 112.408 246.967 112.149C246.708 111.269 246.247 110.485 245.797 109.694C245.279 108.785 244.724 107.89 244.237 106.965C243.936 106.397 243.64 105.8 243.486 105.18C243.153 103.828 243.291 102.547 244.338 101.481C244.863 100.947 245.444 100.49 246.101 100.123C246.251 100.041 246.378 99.9258 246.525 99.8367C247.098 99.4951 247.74 99.302 248.344 99.0273C248.809 98.8157 249.323 98.7228 249.765 98.4555C249.818 98.4221 249.878 98.3924 249.938 98.385C250.695 98.2996 251.431 98.0211 252.203 98.0805C252.845 98.1288 253.471 98.2624 253.985 98.6968C254.323 98.9827 254.473 99.5508 254.326 99.9592C254.18 100.36 253.726 100.55 253.404 100.282C252.62 99.6251 251.776 99.8218 250.932 100.071C250.35 100.241 249.78 100.446 249.214 100.665C248.723 100.858 248.246 101.088 247.789 101.348C247.155 101.708 246.483 102.009 245.924 102.484C245.291 103.022 244.893 103.672 244.968 104.533C244.975 104.611 244.968 104.693 244.994 104.764C245.302 105.484 245.426 106.275 245.891 106.932C246.089 107.21 246.198 107.533 246.371 107.827C246.772 108.517 247.166 109.219 247.481 109.951C247.657 110.355 247.882 110.745 247.995 111.183C248.119 111.651 248.362 111.707 248.786 111.462C249.36 111.128 249.934 110.79 250.542 110.511C251.134 110.244 251.708 109.932 252.29 109.642C252.732 109.423 253.175 109.201 253.632 109C254.041 108.818 254.473 108.684 254.866 108.458C255.174 108.283 255.527 108.191 255.853 108.046C256.821 107.623 257.807 107.251 258.82 106.943C259.307 106.795 259.821 106.705 260.335 106.672C260.53 106.661 260.767 106.635 260.834 106.899C260.875 107.062 260.665 107.225 260.38 107.277C259.604 107.426 258.854 107.663 258.111 107.927C257.365 108.191 256.644 108.525 255.898 108.792C255.56 108.915 255.249 109.093 254.93 109.249C253.715 109.832 252.5 110.426 251.311 111.064C250.478 111.514 249.69 112.041 248.88 112.531C248.745 112.613 248.7 112.743 248.689 112.884C248.678 113.036 248.678 113.192 248.681 113.344C248.689 113.916 248.7 114.484 248.708 115.056C248.719 115.865 248.441 116.593 248.096 117.306C247.361 118.828 246.153 119.931 244.792 120.877C244.158 121.319 243.46 121.676 242.751 121.999C242.421 122.151 242.05 122.136 241.652 122.144L241.66 122.147ZM247.53 114.933C247.515 114.61 247.515 114.283 247.477 113.964C247.451 113.738 247.357 113.693 247.158 113.801C246.956 113.912 246.742 114.009 246.566 114.168C246.221 114.48 245.864 114.781 245.519 115.093C244.447 116.054 243.393 117.035 242.515 118.182C242.042 118.798 241.641 119.452 241.318 120.153C241.24 120.324 241.202 120.506 241.206 120.692C241.213 121.093 241.45 121.264 241.821 121.119C242.455 120.87 243.077 120.599 243.67 120.254C244.578 119.727 245.411 119.11 246.112 118.342C246.99 117.376 247.556 116.27 247.534 114.929L247.53 114.933Z"
        fill="#BFEA88" />
    <path
        d="M72.9273 99.3287C72.8973 99.7631 72.661 100.094 72.4584 100.439C72.3834 100.561 72.2409 100.558 72.1209 100.502C71.7008 100.305 71.4157 99.9487 71.1344 99.6071C70.9243 99.3509 70.9768 99.0242 71.0181 98.716C71.0594 98.3819 71.2544 98.122 71.4495 97.8621C71.5582 97.7173 71.7083 97.7099 71.8696 97.7618C72.1359 97.8435 72.3309 98.0254 72.4659 98.2519C72.6197 98.5155 72.7435 98.8014 72.8673 99.0799C72.9048 99.1616 72.9085 99.2581 72.9235 99.3324L72.9273 99.3287Z"
        fill="#BFEA88" />
    <path
        d="M105.158 99.3285C105.128 99.7592 104.892 100.093 104.693 100.435C104.622 100.557 104.476 100.554 104.356 100.498C103.936 100.301 103.654 99.9448 103.369 99.6033C103.167 99.3619 103.215 99.05 103.242 98.7604C103.275 98.4077 103.474 98.1293 103.681 97.8582C103.793 97.7134 103.939 97.706 104.101 97.7543C104.367 97.8359 104.562 98.0142 104.697 98.2444C104.851 98.508 104.975 98.7939 105.098 99.0723C105.136 99.154 105.14 99.2505 105.155 99.3248L105.158 99.3285Z"
        fill="#BFEA88" />
    <path fill-rule="evenodd" clip-rule="evenodd"
        d="M298.491 46.6189H295.217C292.355 46.6189 290.034 48.9396 290.034 51.8023C290.034 54.665 292.355 56.9857 295.217 56.9857H298.491C301.354 56.9857 303.675 54.665 303.675 51.8023C303.675 48.9396 301.354 46.6189 298.491 46.6189ZM295.217 45.8005C291.903 45.8005 289.216 48.4876 289.216 51.8023C289.216 55.1171 291.903 57.8042 295.217 57.8042H298.491C301.806 57.8042 304.493 55.1171 304.493 51.8023C304.493 48.4876 301.806 45.8005 298.491 45.8005H295.217Z"
        fill="#BFEA88" />
    <path
        d="M292.937 51.713C292.937 50.9473 292.937 50.1821 292.937 49.4164C292.937 49.332 292.937 49.3324 293.016 49.3329C293.737 49.3334 294.458 49.3343 295.178 49.3343C296.112 49.3343 297.046 49.3343 297.979 49.3343C298.234 49.3343 298.49 49.3343 298.745 49.3343C298.93 49.3343 299.115 49.3343 299.299 49.359C299.356 49.3666 299.413 49.3709 299.468 49.3951C299.493 49.4065 299.523 49.4079 299.551 49.415C299.605 49.4283 299.657 49.4501 299.707 49.4729C299.807 49.5184 299.904 49.5711 299.996 49.6332C300.099 49.7034 300.191 49.7865 300.276 49.8761C300.338 49.9406 300.397 50.0075 300.448 50.0815C300.49 50.1423 300.529 50.2044 300.563 50.2694C300.585 50.3126 300.61 50.3557 300.627 50.4027C300.644 50.4521 300.658 50.5042 300.68 50.5498C300.703 50.5991 300.71 50.6475 300.717 50.6987C300.717 50.7054 300.717 50.713 300.72 50.7191C300.765 50.8131 300.757 50.9146 300.76 51.0147C300.763 51.112 300.759 51.2092 300.759 51.3069C300.759 51.3662 300.753 51.4246 300.729 51.4801C300.72 51.5038 300.717 51.5294 300.714 51.5551C300.71 51.5911 300.706 51.6267 300.682 51.6571C300.667 51.6756 300.668 51.7016 300.666 51.7249C300.663 51.7472 300.658 51.7671 300.641 51.7828C300.637 51.7866 300.632 51.7918 300.632 51.797C300.624 51.8478 300.592 51.8881 300.572 51.9332C300.554 51.9763 300.529 52.0176 300.502 52.056C300.479 52.0873 300.463 52.1225 300.439 52.1538C300.39 52.2178 300.34 52.2804 300.285 52.3397C300.23 52.3995 300.169 52.4541 300.107 52.5067C300.08 52.53 300.051 52.5489 300.057 52.5916C300.062 52.623 300.069 52.6533 300.092 52.677C300.094 52.6799 300.099 52.6827 300.099 52.6861C300.109 52.7359 300.151 52.77 300.163 52.8189C300.166 52.8312 300.17 52.844 300.18 52.8526C300.196 52.8659 300.203 52.8834 300.208 52.9033C300.211 52.9209 300.219 52.9365 300.232 52.9494C300.236 52.9527 300.241 52.9565 300.241 52.9607C300.25 53.0082 300.284 53.0428 300.302 53.0865C300.32 53.1311 300.346 53.1718 300.369 53.2145C300.372 53.2198 300.378 53.2236 300.379 53.2288C300.389 53.2786 300.421 53.3189 300.444 53.3621C300.467 53.4043 300.478 53.4537 300.513 53.4892C300.522 53.4973 300.524 53.512 300.528 53.5239C300.534 53.5428 300.54 53.5613 300.557 53.5737C300.559 53.5756 300.562 53.5779 300.562 53.5803C300.571 53.6278 300.607 53.6614 300.621 53.706C300.627 53.7231 300.633 53.7392 300.646 53.7521C300.649 53.7554 300.654 53.7592 300.655 53.7634C300.665 53.8104 300.696 53.8469 300.717 53.8887C300.74 53.9361 300.758 53.9874 300.791 54.0296C300.801 54.0419 300.808 54.0547 300.802 54.0699C300.796 54.0846 300.782 54.0832 300.769 54.0837C300.31 54.0898 299.85 54.0865 299.39 54.0865C299.356 54.0865 299.321 54.0851 299.287 54.0808C299.244 54.0756 299.211 54.0552 299.201 54.0068C299.199 53.9912 299.191 53.9774 299.18 53.9655C299.175 53.9598 299.168 53.9537 299.167 53.9466C299.158 53.8972 299.125 53.8588 299.104 53.8156C299.083 53.7729 299.069 53.7245 299.035 53.6885C299.034 53.6871 299.032 53.6856 299.032 53.6837C299.024 53.6349 298.984 53.6021 298.971 53.5552C298.968 53.5414 298.962 53.5296 298.952 53.5196C298.948 53.5153 298.942 53.5111 298.941 53.5063C298.931 53.4551 298.889 53.42 298.877 53.3702C298.874 53.3564 298.868 53.3445 298.857 53.335C298.845 53.3246 298.839 53.3099 298.836 53.2943C298.831 53.2739 298.824 53.2549 298.807 53.2406C298.805 53.2383 298.801 53.2349 298.8 53.2316C298.791 53.1847 298.759 53.1486 298.74 53.1059C298.72 53.0608 298.696 53.0177 298.672 52.9745C298.666 52.9636 298.656 52.9536 298.653 52.9413C298.646 52.9095 298.624 52.8957 298.595 52.8938C298.523 52.8896 298.45 52.8848 298.377 52.8829C298.297 52.881 298.217 52.8825 298.138 52.8825C297.226 52.8825 296.315 52.8825 295.404 52.8825C295.145 52.8825 294.886 52.882 294.627 52.8825C294.552 52.8825 294.476 52.8872 294.4 52.8896C294.392 52.8896 294.385 52.891 294.377 52.8919C294.321 52.8991 294.309 52.9119 294.309 52.9693C294.309 53.1866 294.309 53.4043 294.309 53.6216C294.309 53.7644 294.306 53.9067 294.312 54.0495C294.314 54.0751 294.3 54.0851 294.277 54.0851C294.217 54.0851 294.156 54.0851 294.096 54.0851C293.737 54.0851 293.378 54.0851 293.019 54.0851C293.003 54.0851 292.986 54.0808 292.97 54.0832C292.939 54.0875 292.936 54.0699 292.936 54.0452C292.936 53.9703 292.936 53.8958 292.936 53.8208C292.936 53.1182 292.937 52.4156 292.937 51.713ZM296.585 50.4966C295.876 50.4966 295.166 50.4966 294.457 50.4966C294.431 50.4966 294.405 50.4967 294.38 50.5004C294.336 50.5071 294.316 50.5303 294.312 50.5754C294.311 50.5892 294.311 50.6029 294.311 50.6167C294.311 50.9061 294.311 51.1955 294.311 51.4844C294.311 51.5385 294.312 51.5925 294.314 51.6466C294.316 51.6922 294.337 51.714 294.38 51.7211C294.418 51.7273 294.455 51.7183 294.492 51.7192C294.724 51.7254 294.957 51.7083 295.188 51.7287C295.225 51.732 295.261 51.7192 295.297 51.7192C296.134 51.7192 296.971 51.7192 297.807 51.7192C297.856 51.7192 297.905 51.7206 297.953 51.7282C297.996 51.7349 298.037 51.7183 298.079 51.7187C298.3 51.7216 298.522 51.7216 298.743 51.7235C298.832 51.7244 298.914 51.6893 298.999 51.6741C299.003 51.6737 299.007 51.6713 299.01 51.6694C299.07 51.631 299.135 51.6001 299.187 51.5475C299.225 51.509 299.262 51.4697 299.287 51.4232C299.314 51.3729 299.35 51.324 299.348 51.2609C299.348 51.25 299.355 51.2386 299.359 51.2272C299.381 51.1575 299.387 51.0873 299.362 51.0161C299.35 50.9848 299.344 50.9521 299.342 50.9184C299.341 50.8989 299.335 50.8819 299.321 50.8681C299.308 50.8553 299.303 50.8387 299.297 50.8216C299.293 50.8093 299.291 50.7965 299.281 50.7875C299.253 50.7599 299.234 50.7244 299.206 50.6959C299.169 50.6575 299.131 50.6181 299.086 50.5939C299.035 50.5673 298.984 50.5408 298.925 50.5275C298.838 50.5076 298.75 50.4952 298.661 50.4957C297.969 50.4962 297.277 50.4966 296.585 50.4966Z"
        fill="#BFEA88" />
    <path
        d="M44.222 15.0111C58.1153 15.0111 67.1645 16.5548 67.1645 26.9348C67.1645 37.2615 58.1153 39.3375 44.222 39.3375H23.5152C9.03648 39.3375 0.785706 37.2615 0.785706 25.8702H12.1239C12.1239 30.0222 16.8614 30.0222 23.5152 30.0222H44.222C50.7694 30.0222 55.7199 30.0222 55.7199 26.9348C55.7199 23.2618 50.8759 23.3151 44.222 23.3151L23.5152 23.2619C9.56878 23.2619 1.26478 21.7182 1.26478 11.9237C1.26478 2.076 9.62201 0 23.5152 0H44.222C58.7008 0 66.6322 2.076 66.6322 13.4674H55.2408C55.2408 9.31539 50.9823 9.31539 44.222 9.31539H23.5152C16.9679 9.31539 12.7626 9.31539 12.7626 11.9237C12.7626 15.0643 16.8082 15.0111 23.5152 15.0111H44.222Z"
        fill="#BFEA88" />
    <path
        d="M136.272 0C151.762 0 160.066 5.16339 160.066 19.6422C160.066 35.1855 151.762 39.3375 136.272 39.3375H94.8586C80.3266 39.3375 71.0645 35.1855 71.0645 19.6422C71.0645 5.16339 79.3152 0 94.8586 0H136.272ZM136.272 30.0222C143.458 30.0222 147.61 27.9462 147.61 19.6422C147.61 11.3914 143.618 9.31539 136.272 9.31539H94.8586C87.566 9.31539 83.4672 11.3914 83.4672 19.6422C83.4672 27.9462 87.566 30.0222 94.8586 30.0222H136.272Z"
        fill="#BFEA88" />
    <path
        d="M224.114 1.01138H239.658V38.2729H228.266V11.6575L207.559 38.2729H197.179L176.473 11.6575V38.2729H165.134V1.01138H180.625L202.396 28.9575L224.114 1.01138Z"
        fill="#BFEA88" />
    <path d="M257.358 28.9575H305V38.2729H246.02V1.01138H305V10.3268H257.358V15.0111H302.924V24.3265H257.358V28.9575Z"
        fill="#BFEA88" />
    <path d="M16.6863 83.4384H5.34816V46.1769H67.9476V55.4923H16.6863V60.1766H65.8716V69.492H16.6863V83.4384Z"
        fill="#BFEA88" />
    <path
        d="M136.386 45.1655C151.876 45.1655 160.18 50.3289 160.18 64.8077C160.18 80.351 151.876 84.5031 136.386 84.5031H94.9726C80.4406 84.5031 71.1784 80.351 71.1784 64.8077C71.1784 50.3289 79.4292 45.1655 94.9726 45.1655H136.386ZM136.386 75.1877C143.572 75.1877 147.724 73.1117 147.724 64.8077C147.724 56.5569 143.732 54.4809 136.386 54.4809H94.9726C87.68 54.4809 83.5812 56.5569 83.5812 64.8077C83.5812 73.1117 87.68 75.1877 94.9726 75.1877H136.386Z"
        fill="#BFEA88" />
    <path d="M176.587 74.123H223.164V83.4384H165.248V46.1769H176.587V74.123Z" fill="#BFEA88" />
    <path
        d="M268.417 83.4384L242.866 70.876L238.395 73.3246V83.4384H227.056V46.1769H238.395V63.1575L269.481 46.1769H288.112L252.714 65.4997L289.124 83.4384H268.417Z"
        fill="#BFEA88" />
</svg>