<svg width="164" height="164" viewBox="0 0 164 164" fill="none" xmlns="http://www.w3.org/2000/svg">
<path d="M82.1568 164C35.434 164 0 130.447 0 81.8432C0 35.1205 33.5526 0 82.1568 0C128.88 0 164 33.5526 164 81.8432C164 128.566 130.447 164 82.1568 164ZM82.1568 152.711C121.354 152.711 151.143 123.549 151.143 81.8432C151.143 41.7056 122.922 11.2887 82.1568 11.2887C42.6463 11.2887 12.8566 40.1377 12.8566 81.8432C12.8566 122.294 41.392 152.711 82.1568 152.711Z" fill="#BFEA88"/>
<path d="M84.312 119C65.4974 119 52.9203 109.548 52 95.2671H64.5771C65.7019 103.075 72.8596 108.007 84.312 108.007C93.617 108.007 98.5251 104.411 98.5251 98.3493C98.5251 92.6986 94.1283 90.4384 87.175 88.2808L75.5182 84.7877C67.1335 82.2192 54.0451 78.5205 54.0451 64.4452C54.0451 52.6301 63.7591 44 79.6083 44C96.8891 44 107.932 53.3493 108.853 68.5548H96.3778C95.8666 60.4384 89.9359 54.9931 79.1993 54.9931C71.3258 54.9931 66.2132 58.2808 66.2132 63.8288C66.2132 70.0959 72.4506 71.637 79.4038 73.8973L90.2426 77.2877C100.366 80.4726 111 84.1712 111 97.7329C111 110.781 100.672 119 84.312 119Z" fill="#BFEA88"/>
</svg>
