<svg width="833" height="833" viewBox="0 0 833 833" fill="none" xmlns="http://www.w3.org/2000/svg">
    <g clip-path="url(#clip0_422_2514)">
        <path
            d="M415.82 672.14C557.382 672.14 672.14 557.382 672.14 415.82C672.14 274.258 557.382 159.5 415.82 159.5C274.258 159.5 159.5 274.258 159.5 415.82C159.5 557.382 274.258 672.14 415.82 672.14Z"
            fill="#192928" />
        <path
            d="M415.82 672.64C347.22 672.64 282.73 645.93 234.22 597.42C185.71 548.91 159 484.42 159 415.82C159 347.22 185.71 282.73 234.22 234.22C282.73 185.71 347.22 159 415.82 159C484.42 159 548.91 185.71 597.42 234.22C645.93 282.73 672.64 347.22 672.64 415.82C672.64 484.42 645.93 548.91 597.42 597.42C548.91 645.93 484.42 672.64 415.82 672.64ZM415.82 160C347.49 160 283.25 186.61 234.93 234.93C186.61 283.25 160 347.49 160 415.82C160 484.15 186.61 548.39 234.93 596.71C283.25 645.03 347.49 671.64 415.82 671.64C484.15 671.64 548.39 645.03 596.71 596.71C645.03 548.39 671.64 484.15 671.64 415.82C671.64 347.49 645.03 283.25 596.71 234.93C548.39 186.61 484.15 160 415.82 160Z"
            fill="#BFEA88" />
        <path
            d="M312.05 344.86V322.21C312.05 307.49 306.05 303.98 296.53 303.98C287.01 303.98 281.13 307.49 281.13 322.21V373.29C281.13 387.9 286.79 391.75 296.53 391.75C306.27 391.75 312.05 388.01 312.05 373.29V350.19H299.03V375.22C299.03 377.82 298.46 378.96 296.65 378.96C294.38 378.96 294.27 377.15 294.27 375.11V318.93C294.27 316.1 294.84 314.63 296.65 314.63C298.46 314.63 299.03 316.1 299.03 319.05V344.87H312.05V344.86Z"
            fill="#BFEA88" />
        <path
            d="M341.86 304.881V390.961H355V355.401H357.27C367.35 355.401 372.79 350.641 372.79 339.881V320.511C372.79 309.751 367.01 304.881 356.82 304.881H341.87H341.86ZM359.76 320.961V339.651C359.76 342.141 359.42 343.391 356.93 343.391H355V316.891H356.7C358.85 316.891 359.76 317.911 359.76 320.971V320.961Z"
            fill="#BFEA88" />
        <path d="M396.91 390.961V317.001H406.88V304.881H373.58V317.001H383.66V390.961H396.91Z" fill="#BFEA88" />
        <path
            d="M338.89 317.001V304.881H314.65V390.961H340.13V378.841H328.01V351.091H337.07V338.971H328.01V317.001H338.89Z"
            fill="#BFEA88" />
        <path
            d="M247.99 390.961L237 304.881H222.84L212.08 390.961H225.33L226.46 377.141H233.48L234.61 390.961H247.97H247.99ZM227.15 365.021L229.87 324.131H230.21L232.81 365.021H227.15Z"
            fill="#BFEA88" />
        <path
            d="M278.981 344.86V322.21C278.981 307.49 272.981 303.98 263.461 303.98C253.941 303.98 248.061 307.49 248.061 322.21V373.29C248.061 387.9 253.721 391.75 263.461 391.75C273.201 391.75 278.981 388.01 278.981 373.29V350.19H265.961V375.22C265.961 377.82 265.391 378.96 263.581 378.96C261.311 378.96 261.201 377.15 261.201 375.11V318.93C261.201 316.1 261.771 314.63 263.581 314.63C265.391 314.63 265.961 316.1 265.961 319.05V344.87H278.981V344.86Z"
            fill="#BFEA88" />
        <path
            d="M169.16 390.961C170.97 373.521 172.9 356.081 174.71 338.521H174.94C176.75 355.961 178.45 373.631 180.26 390.961H193.62L203.59 304.881H190.34C188.98 326.851 187.51 348.711 186.15 369.551H185.92C184.33 351.221 182.73 332.091 181.06 312.801C173.24 330.591 167.38 349.441 163.76 369.081C163.75 369.241 163.73 369.401 163.72 369.551H163.67C162.39 376.591 161.39 383.731 160.7 390.961H169.16Z"
            fill="#BFEA88" />
        <path
            d="M649.87 390.961V311.211C648.92 309.091 647.95 306.981 646.94 304.891H636.5V390.971H649.86L649.87 390.961Z"
            fill="#BFEA88" />
        <path
            d="M620.931 304.881L615.041 341.581H614.921V304.881H601.561V390.961H614.921V353.701H615.041L619.681 390.961H634.181L626.701 347.581L635.421 304.881H620.931Z"
            fill="#BFEA88" />
        <path
            d="M598.84 322.1C598.84 307.38 592.84 303.98 583.32 303.98C573.8 303.98 567.92 307.49 567.92 322.1V373.29C567.92 387.9 573.58 391.75 583.32 391.75C593.06 391.75 598.84 388.01 598.84 373.29V322.1ZM585.82 374.54C585.82 377.48 585.25 378.96 583.44 378.96C581.63 378.96 580.95 377.49 580.95 374.54V321.53C580.95 315.87 581.63 314.62 583.44 314.62C585.25 314.62 585.82 315.87 585.82 321.53V374.54Z"
            fill="#BFEA88" />
        <path d="M653.101 318.761V390.961H666.351V361.521C663.161 346.751 658.711 332.461 653.101 318.761Z"
            fill="#BFEA88" />
        <path
            d="M534.74 322.1V373.29C534.74 387.9 540.4 391.75 550.14 391.75C559.88 391.75 565.66 388.01 565.66 373.29V322.1C565.66 307.38 559.66 303.98 550.14 303.98C540.62 303.98 534.74 307.49 534.74 322.1ZM552.64 321.53V374.54C552.64 377.48 552.07 378.96 550.26 378.96C548.45 378.96 547.77 377.49 547.77 374.54V321.53C547.77 315.87 548.45 314.62 550.26 314.62C552.07 314.62 552.64 315.87 552.64 321.53Z"
            fill="#BFEA88" />
        <path d="M422.58 304.881H409.22V390.961H422.58V304.881Z" fill="#BFEA88" />
        <path
            d="M532.71 333.761V321.081C532.71 309.871 526.82 304.881 517.19 304.881H501.79V390.961H517.19C526.82 390.961 532.71 387.221 532.71 373.521V358.121C532.71 352.121 530.33 348.611 526.71 346.231V345.891C530.33 343.401 532.71 339.771 532.71 333.771V333.761ZM519.69 374.991C519.69 378.051 519.01 378.951 516.86 378.951H514.93V351.771H516.86C519.24 351.771 519.69 353.021 519.69 355.171V374.991ZM519.69 335.801C519.69 338.071 519.35 339.651 516.86 339.651H514.93V316.881H516.86C519.01 316.881 519.69 318.131 519.69 320.841V335.791V335.801Z"
            fill="#BFEA88" />
        <path
            d="M443.141 347.581C441.101 329.911 439.741 318.361 438.041 304.881H425.811V390.961H439.061V352.111H439.291C441.441 368.531 442.911 378.731 444.611 390.961H456.501V304.881H443.361V347.581H443.131H443.141Z"
            fill="#BFEA88" />
        <path
            d="M490.231 339.88V322.21C490.231 307.6 484.341 303.98 474.711 303.98C464.401 303.98 459.311 308.4 459.311 322.21V373.29C459.311 387.67 464.971 391.75 472.451 391.75C476.411 391.75 480.041 389.94 481.281 385.63H481.511L482.081 390.95H490.231V343.72H476.191V355.84H484.121L477.211 361.5V374.52C477.211 377.46 476.641 378.94 474.831 378.94C472.561 378.94 472.341 377.13 472.341 374.75V318.91C472.341 315.97 473.021 314.61 474.831 314.61C476.641 314.61 477.211 316.08 477.211 319.03V339.87H490.231V339.88Z"
            fill="#BFEA88" />
        <path
            d="M218.501 399.73H203.551V485.81H216.691V450.25H218.961C229.041 450.25 234.481 445.49 234.481 434.73V415.36C234.481 404.6 228.701 399.73 218.511 399.73H218.501ZM221.441 434.5C221.441 436.99 221.101 438.24 218.611 438.24H216.691V411.74H218.391C220.541 411.74 221.451 412.76 221.451 415.82V434.51L221.441 434.5Z"
            fill="#BFEA88" />
        <path
            d="M270.78 416.95V468.14C270.78 482.75 276.44 486.6 286.18 486.6C295.92 486.6 301.7 482.86 301.7 468.14V416.95C301.7 402.23 295.7 398.83 286.18 398.83C276.66 398.83 270.78 402.34 270.78 416.95ZM288.68 416.38V469.39C288.68 472.33 288.11 473.81 286.3 473.81C284.49 473.81 283.81 472.34 283.81 469.39V416.38C283.81 410.72 284.49 409.47 286.3 409.47C288.11 409.47 288.68 410.72 288.68 416.38Z"
            fill="#BFEA88" />
        <path
            d="M303.19 457.38V468.14C303.19 482.75 309.08 486.6 318.71 486.6C328.34 486.6 334.11 482.75 334.11 468.14V399.73H321.09V468.48C321.09 470.75 320.86 472.78 318.6 472.78C316.56 472.78 316.22 470.74 316.22 468.36V457.37H303.2L303.19 457.38Z"
            fill="#BFEA88" />
        <path d="M361.4 411.85V399.73H337.16V485.81H362.64V473.69H350.52V445.94H359.58V433.83H350.52V411.85H361.4Z"
            fill="#BFEA88" />
        <path
            d="M621.071 485.81V457.27L632.281 399.73H617.791L614.501 436.54H614.281L610.881 399.73H596.381L607.711 457.27V485.81H621.071Z"
            fill="#BFEA88" />
        <path
            d="M660.53 485.81H662.46C668.76 463.56 672.14 440.08 672.14 415.82C672.14 410.42 671.95 405.06 671.62 399.74H671.29L660.53 485.82V485.81Z"
            fill="#BFEA88" />
        <path
            d="M192.11 429.64V415.03C192.11 406.2 187.13 399.74 177.5 399.74H161.19V445.2C162.78 459.11 165.46 472.68 169.18 485.82H174.44V451.96C174.44 450.03 174.78 449.36 176.03 449.36H177.39C178.98 449.36 179.43 450.38 179.43 452.42V475.64C179.43 483.12 179.66 484.47 180.22 485.83H192.91V484.81C192.23 484.24 192.12 483.56 192.12 480.51V452.42C192.12 446.53 189.4 442.57 184.42 442V441.89C189.18 441.21 192.12 437.25 192.12 429.66L192.11 429.64ZM179.31 432.58C179.31 435.18 178.52 436.32 176.93 436.32H174.44V411.74H176.48C178.86 411.74 179.31 413.55 179.31 415.82V432.58Z"
            fill="#BFEA88" />
        <path
            d="M394.721 439.72V417.07C394.721 402.35 388.721 398.84 379.201 398.84C369.681 398.84 363.801 402.35 363.801 417.07V468.15C363.801 482.76 369.461 486.61 379.201 486.61C388.941 486.61 394.721 482.87 394.721 468.15V445.05H381.701V470.08C381.701 472.68 381.131 473.82 379.321 473.82C377.051 473.82 376.941 472.01 376.941 469.97V413.79C376.941 410.96 377.511 409.49 379.321 409.49C381.131 409.49 381.701 410.96 381.701 413.91V439.73H394.721V439.72Z"
            fill="#BFEA88" />
        <path
            d="M460.521 430.09V416.84C460.521 402.23 454.521 398.83 445.001 398.83C435.481 398.83 429.711 402.34 429.711 416.73V423.07C429.711 430.21 430.731 434.62 432.881 438.02C434.241 440.51 436.161 442.44 438.321 444.48L443.301 448.78C446.131 451.27 447.491 454.67 447.491 458.18V469.39C447.491 472.22 447.151 473.81 445.111 473.81C442.841 473.81 442.731 472.22 442.731 469.39V455.01H429.591V468.15C429.591 482.87 435.481 486.61 444.991 486.61C455.301 486.61 460.511 482.19 460.511 468.15V460C460.511 450.94 459.941 447.31 456.321 443.92L450.661 438.6C448.061 436.22 445.681 434.18 444.201 431.92C443.181 430.33 442.731 428.86 442.731 427.16V416.51C442.731 414.02 442.731 411.41 445.111 411.41C447.491 411.41 447.491 414.24 447.491 416.51V430.1H460.511L460.521 430.09Z"
            fill="#BFEA88" />
        <path d="M493.86 485.81V411.85H503.82V399.73H470.53V411.85H480.61V485.81H493.86Z" fill="#BFEA88" />
        <path d="M537.08 485.81V399.73H524.17V437.68H519.3V399.73H506.16V485.81H519.3V449.8H524.17V485.81H537.08Z"
            fill="#BFEA88" />
        <path
            d="M658.371 411.85V399.73H634.131V485.81H659.621V473.69H647.501V445.94H656.561V433.83H647.501V411.85H658.371Z"
            fill="#BFEA88" />
        <path
            d="M250.751 451.95C250.751 450.02 251.091 449.35 252.341 449.35H253.701C255.291 449.35 255.741 450.37 255.741 452.41V475.63C255.741 483.11 255.971 484.46 256.531 485.82H269.221V484.8C268.541 484.23 268.431 483.55 268.431 480.5V452.41C268.431 446.52 265.711 442.56 260.731 441.99V441.88C265.491 441.2 268.431 437.24 268.431 429.65V415.04C268.431 406.21 263.451 399.75 253.821 399.75H237.511V485.83H250.761V451.97L250.751 451.95ZM250.751 411.74H252.791C255.171 411.74 255.621 413.55 255.621 415.82V432.58C255.621 435.18 254.831 436.32 253.241 436.32H250.751V411.74Z"
            fill="#BFEA88" />
        <path d="M418.87 485.81V411.85H428.83V399.73H395.54V411.85H405.62V485.81H418.87Z" fill="#BFEA88" />
        <path
            d="M586.941 430.09V416.84C586.941 402.23 580.941 398.83 571.421 398.83C561.901 398.83 556.131 402.34 556.131 416.73V423.07C556.131 430.21 557.151 434.62 559.301 438.02C560.661 440.51 562.581 442.44 564.741 444.48L569.721 448.78C572.551 451.27 573.911 454.67 573.911 458.18V469.39C573.911 472.22 573.571 473.81 571.531 473.81C569.261 473.81 569.151 472.22 569.151 469.39V455.01H556.011V468.15C556.011 482.87 561.901 486.61 571.411 486.61C581.721 486.61 586.931 482.19 586.931 468.15V460C586.931 450.94 586.361 447.31 582.741 443.92L577.081 438.6C574.481 436.22 572.101 434.18 570.621 431.92C569.601 430.33 569.151 428.86 569.151 427.16V416.51C569.151 414.02 569.151 411.41 571.531 411.41C573.911 411.41 573.911 414.24 573.911 416.51V430.1H586.931L586.941 430.09Z"
            fill="#BFEA88" />
        <path d="M553.701 399.73H540.341V485.81H553.701V399.73Z" fill="#BFEA88" />
        <mask id="mask0_422_2514" style="mask-type:luminance" maskUnits="userSpaceOnUse" x="263" y="508" width="285"
            height="90">
            <path d="M547.8 508.46H263.24V597.65H547.8V508.46Z" fill="white" />
        </mask>
        <g mask="url(#mask0_422_2514)">
            <path
                d="M421.48 546.35C422.41 545.75 423.1 545.25 423.84 544.85C424.42 544.53 425.03 544.2 425.67 544.08C426.68 543.88 427.21 544.39 427.26 545.43C427.28 545.8 427.23 546.18 427.23 546.55C427.23 546.88 427.23 547.21 427.23 547.8C427.83 547.51 428.24 547.22 428.7 547.1C429.35 546.92 430.21 546.56 430.65 546.83C431.04 547.07 431.11 548.07 431.06 548.71C430.97 550.01 430.57 551.3 430.55 552.6C430.54 553.77 430.66 555.02 431.09 556.09C431.87 558 434.31 558.64 436.62 557.81C439.82 556.67 441.66 554.11 443.42 551.43C443.86 550.76 444.57 550.25 445.16 549.68C446.75 548.14 448.41 546.71 450.61 546.09C450.86 546.02 451.11 545.94 451.37 545.9C452.36 545.74 453.39 545.65 454.02 546.59C454.68 547.57 454.38 548.6 453.8 549.54C451.69 552.97 448.51 555.03 444.93 556.61C444.5 556.8 443.84 557.25 443.87 557.52C443.93 558.03 444.3 558.64 444.73 558.94C446.67 560.3 448.87 560.02 451 559.6C454.07 558.99 456.82 557.55 459.53 556.03C461.06 555.18 462.58 554.3 464.02 553.29C464.76 552.78 465.41 552.06 465.92 551.3C468.58 547.32 471.04 543.21 474.41 539.78C475.54 538.63 476.9 537.65 478.29 536.85C479.35 536.23 480.49 536.82 480.66 538.04C480.82 539.19 480.77 540.44 480.45 541.55C480.06 542.93 479.33 544.22 478.67 545.52C478.35 546.16 477.8 546.86 477.03 546.37C476.74 546.19 476.77 545.23 476.91 544.7C477.37 543.05 477.97 541.44 478.49 539.81C478.58 539.52 478.54 539.19 478.57 538.87C478.47 538.79 478.37 538.72 478.27 538.64C477.45 539.29 476.49 539.82 475.83 540.6C474.02 542.74 472.18 544.87 470.65 547.2C467.69 551.72 464.93 556.38 462.11 560.98C461.92 561.28 461.81 561.63 461.79 562.13C466.56 559.51 471.23 556.78 476.42 555.1C475.58 555.5 474.74 555.91 473.9 556.31C469.21 558.55 464.81 561.28 460.57 564.28C460.27 564.49 459.98 564.77 459.8 565.08C458.68 567.11 457.57 569.14 456.52 571.2C456.37 571.49 456.44 572.04 456.61 572.34C458.49 575.38 458.81 578.67 458.11 582.07C457.09 586.93 455.01 591.33 451.93 595.23C451.34 595.98 450.56 596.62 449.77 597.14C447.95 598.33 446.21 597.5 446.21 595.33C446.21 593.3 446.4 591.22 446.9 589.25C448.21 583.96 450.7 579.13 453.07 574.27C453.22 573.97 453.32 573.64 453.5 573.36C453.93 572.68 453.65 572.29 453.05 571.91C450.89 570.54 450.9 570.17 453.05 568.82C455.9 567.03 458.38 564.94 459.8 561.72C460.64 559.82 461.87 558.09 462.91 556.28C463.13 555.9 463.33 555.52 463.38 554.93C463.05 555.11 462.7 555.27 462.39 555.49C458.96 557.94 455.19 559.7 451.16 560.91C449.42 561.43 447.62 561.52 445.86 561.02C443.72 560.4 442.21 558.35 442.12 556.08C442.12 555.9 442.08 555.72 442.03 555.29C441.49 555.73 441.09 556.06 440.67 556.39C438.84 557.81 436.87 558.9 434.46 558.88C431.84 558.86 429.79 557.05 429.63 554.41C429.55 553.08 429.74 551.73 429.84 550.39C429.89 549.59 430 548.81 430.11 547.7C429.52 548.02 429.18 548.11 428.98 548.33C427.5 549.9 426.05 551.48 424.6 553.07C424.27 553.42 424.05 553.9 423.67 554.18C423.39 554.39 422.95 554.38 422.58 554.48C422.49 554.08 422.2 553.6 422.33 553.3C422.83 552.14 423.49 551.04 424.03 549.9C424.63 548.65 425.17 547.36 425.73 546.09C425.62 545.99 425.51 545.89 425.39 545.79C424.96 546.01 424.5 546.18 424.12 546.46C420.84 548.94 417.69 551.54 415.64 555.25C414.78 556.8 413.59 558.18 412.5 559.6C412.25 559.93 411.83 560.2 411.43 560.34C410.62 560.61 410 560.02 410.23 559.19C410.38 558.66 410.66 558.15 410.99 557.71C412.22 556.06 413.4 554.37 414.78 552.86C417.58 549.8 419.58 546.21 421.73 542.71C421.85 542.51 421.87 542.25 422.03 541.71C420.99 542.16 420.2 542.5 419.41 542.83C414.37 544.99 409.29 547 403.84 547.87C403.12 547.98 402.75 548.28 402.59 549.05C402.13 551.3 401.3 553.41 399.82 555.22C399.7 555.36 399.59 555.52 399.46 555.65C398.55 556.57 397.57 557.55 396.16 557C394.79 556.46 394.77 555.05 394.71 553.83C394.63 552.25 394.68 552.24 393.11 552.13C389.92 551.9 386.77 552.22 383.65 552.85C383.03 552.98 382.6 553.21 382.68 553.95C383.24 558.94 380.69 562.55 377.3 565.69C372.15 570.46 366.02 573.59 359.46 575.89C356.74 576.85 353.92 577.55 351.02 577.19C349.85 577.05 348.6 576.6 347.62 575.94C346.08 574.9 345.91 573.04 346.86 570.98C348.39 567.66 351.1 565.43 353.91 563.31C358.58 559.77 363.94 557.61 369.44 555.8C372.55 554.77 375.72 553.93 378.87 553.01C379.87 552.72 380.12 552.26 379.37 551.53C377.66 549.89 375.99 548.08 373.99 546.87C368.06 543.3 361.56 540.96 355.07 538.63C354.09 538.28 353.12 537.89 352.15 537.5C346.3 535.09 345.81 529.27 349.22 524.98C351.25 522.42 353.99 520.71 356.75 519.06C361.79 516.05 367.01 513.41 372.58 511.54C379.18 509.32 385.92 508.01 392.92 508.64C394.88 508.82 396.71 509.47 398.24 510.77C400.4 512.6 400.9 515.76 399.18 518.52C397.95 520.51 396.53 522.45 394.86 524.07C392.06 526.8 389 529.27 386.02 531.8C385.02 532.65 383.95 532.72 383.51 532.13C382.99 531.44 383.43 530.25 384.64 529.69C389.03 527.69 392.27 524.25 395.49 520.84C396.6 519.67 397.48 518.22 398.21 516.77C399.32 514.54 398.53 512.26 396.25 511.23C394.78 510.57 393.15 510.07 391.55 509.94C386.78 509.56 382.12 510.33 377.51 511.57C368.79 513.92 360.97 518.08 353.69 523.35C351.85 524.68 350.34 526.28 349.55 528.51C348.66 531.03 349.25 533.44 351.59 534.73C353.56 535.81 355.73 536.58 357.87 537.31C364.84 539.68 371.68 542.33 377.67 546.74C379.34 547.97 380.76 549.45 381.65 551.36C382.04 552.2 382.66 552.17 383.42 552.08C385.79 551.8 388.16 551.5 390.53 551.34C391.67 551.27 392.83 551.46 393.97 551.65C394.75 551.78 395.17 551.62 395.57 550.87C396.43 549.23 397.38 547.62 398.4 546.06C398.84 545.39 399.48 544.81 400.14 544.34C401.08 543.67 401.81 543.97 402.21 545.06C403.12 547.51 403.12 547.53 405.76 546.95C411.62 545.67 417.22 543.72 422.32 540.49C423.1 540 423.73 539.27 424.5 538.76C424.86 538.52 425.38 538.51 425.83 538.39C425.71 538.81 425.66 539.28 425.44 539.64C424.17 541.66 422.85 543.64 421.56 545.65C421.49 545.75 421.52 545.93 421.48 546.38V546.35ZM352.18 576.03C352.2 576.1 352.21 576.17 352.23 576.24C354.08 575.84 355.96 575.57 357.76 575.01C364.94 572.78 371.47 569.32 376.79 563.92C379.19 561.49 381.18 558.69 380.75 554.91C380.62 553.71 380.48 553.52 379.28 553.83C376.55 554.55 373.82 555.3 371.11 556.13C365.02 557.99 359.25 560.57 354.03 564.26C351.52 566.04 349.33 568.19 347.87 570.96C346.44 573.67 347.58 575.71 350.62 575.95C351.14 575.99 351.66 576 352.18 576.02V576.03ZM455.31 573.78C455.05 574.17 454.87 574.37 454.77 574.6C452.66 579.29 450.46 583.95 448.5 588.7C447.64 590.78 446.99 593.02 447.34 595.37C447.54 596.66 448.25 597.01 449.37 596.33C449.72 596.12 450.03 595.85 450.32 595.56C452.2 593.74 453.49 591.53 454.66 589.21C456.38 585.8 457.6 582.25 457.29 578.36C457.16 576.68 456.71 575.09 455.3 573.77L455.31 573.78ZM443.62 555.03C443.77 555.14 443.92 555.26 444.08 555.37C445.22 554.72 446.4 554.12 447.51 553.41C449.4 552.21 451.21 550.88 452.37 548.9C452.61 548.49 452.53 547.88 452.59 547.37C452.06 547.37 451.49 547.23 451.01 547.38C448.42 548.19 446.51 549.97 444.92 552.06C444.29 552.89 444.05 554.02 443.63 555.02L443.62 555.03ZM396.88 553.78C396.8 553.94 396.49 554.29 396.46 554.67C396.44 554.96 396.81 555.55 396.92 555.53C397.32 555.45 397.74 555.25 398.04 554.97C399.88 553.25 400.77 551.02 401.24 548.61C401.31 548.26 401.08 547.73 400.81 547.5C400.67 547.38 400 547.61 399.8 547.87C398.92 549 398.04 550.15 397.33 551.4C397 551.98 397.05 552.78 396.88 553.79V553.78ZM455.89 568.63C455.79 568.57 455.68 568.51 455.58 568.45C455.18 568.76 454.74 569.04 454.41 569.42C454.26 569.59 454.32 569.96 454.29 570.25C454.57 570.21 454.98 570.27 455.1 570.11C455.43 569.67 455.64 569.13 455.9 568.63H455.89Z"
                fill="#BFEA88" />
            <path
                d="M269.93 556.44C270.33 556.17 270.75 555.91 271.14 555.62C273.68 553.79 276.14 551.84 278.79 550.18C280.74 548.95 282.9 548.06 285.36 548.46C286.82 548.7 287.73 549.42 288.05 550.9C288.13 551.29 288.33 551.66 288.52 552.18C289.28 551.76 289.96 551.41 290.62 551.03C293.72 549.22 296.88 547.55 300.36 546.59C301.11 546.38 301.88 546.2 302.65 546.1C303.84 545.95 304.64 546.66 304.54 547.87C304.48 548.59 304.24 549.34 303.91 550C303.07 551.75 302.13 553.44 301.25 555.17C301.1 555.47 301.04 555.82 300.94 556.14C301.02 556.2 301.11 556.26 301.19 556.32C301.49 556.09 301.83 555.9 302.09 555.62C304.55 552.97 307 550.29 309.47 547.64C310.23 546.82 311 545.99 311.87 545.3C313.19 544.25 314.56 544.59 315.02 546.19C315.39 547.45 315.49 548.84 315.48 550.16C315.46 551.57 315.14 552.98 314.97 554.39C314.93 554.67 314.97 554.96 314.97 555.54C317.26 554.42 319.37 553.37 321.5 552.32C321.58 552.46 321.65 552.59 321.73 552.73C321.42 552.93 321.12 553.15 320.8 553.34C319.12 554.31 317.46 555.32 315.74 556.21C314.75 556.72 314.28 557.49 313.99 558.51C311.81 566 308.75 573.06 303.7 579.1C301.22 582.07 298.53 584.81 294.96 586.48C292.36 587.7 290.5 586.46 290.73 583.6C290.81 582.57 291.1 581.54 291.43 580.55C292.44 577.48 294.42 574.96 296.31 572.42C300.61 566.65 305.67 561.65 311.74 557.76C313.03 556.93 313.75 555.93 313.9 554.48C314.11 552.44 314.27 550.39 314.42 548.34C314.45 548.01 314.43 547.64 314.31 547.34C314.1 546.85 313.88 546.14 313.5 546.01C313.15 545.89 312.47 546.32 312.14 546.69C309.29 549.9 306.49 553.17 303.64 556.38C302.73 557.41 301.7 558.35 300.69 559.29C299.99 559.95 299.13 560.58 298.2 559.92C297.3 559.29 297.24 558.24 297.71 557.28C298.85 554.94 300.05 552.62 301.24 550.29C301.53 549.72 301.89 549.19 302.15 548.62C302.29 548.31 302.28 547.93 302.33 547.58C301.98 547.54 301.58 547.38 301.28 547.49C299.07 548.27 296.83 548.98 294.7 549.94C292.77 550.82 290.95 551.93 289.14 553.06C288.61 553.39 288.13 554.06 287.94 554.67C286.07 560.77 282.44 565.54 277.26 569.18C277.04 569.33 276.82 569.47 276.59 569.58C275.75 569.98 274.88 570.29 274.09 569.55C273.32 568.83 273.63 567.95 273.93 567.15C274.83 564.76 276.29 562.71 278.1 560.97C280.47 558.7 282.92 556.5 285.48 554.47C286.74 553.47 286.9 552.38 286.67 551.03C286.5 550.04 285.7 549.43 284.43 549.72C282.71 550.12 280.92 550.59 279.43 551.48C274.21 554.58 269.79 558.64 266.09 563.46C266 563.58 265.91 563.7 265.82 563.82C265.3 564.56 264.63 565.11 263.75 564.56C262.89 564.02 263.37 563.22 263.71 562.57C265.59 558.92 267.5 555.29 269.37 551.64C269.7 551 269.86 550.27 270.11 549.58C270.17 549.41 270.23 549.23 270.33 549.08C272.33 546.21 274.37 543.36 276.35 540.47C280.06 535.07 283.99 529.85 289 525.56C290.35 524.4 291.66 523.14 293.5 522.73C295.02 522.39 296.35 523.32 296.53 524.88C296.7 526.35 296.19 527.61 295.33 528.74C291.82 533.35 287.69 537.33 283.07 540.8C281.25 542.16 279.41 543.52 277.51 544.77C275.65 545.99 274.24 547.56 273.21 549.52C272.24 551.37 271.18 553.18 270.18 555.01C269.98 555.38 269.86 555.8 269.71 556.19C269.79 556.26 269.88 556.33 269.96 556.41L269.93 556.44ZM312.69 558.51C312.6 558.45 312.51 558.38 312.42 558.32C311.56 558.94 310.7 559.54 309.85 560.16C303.04 565.18 297.38 571.25 293.18 578.63C292.2 580.35 291.36 582.15 291.51 584.23C291.61 585.54 292.17 586.04 293.48 585.89C293.88 585.84 294.29 585.73 294.65 585.56C297.69 584.13 300.04 581.82 302.16 579.32C307.09 573.52 310.27 566.76 312.54 559.54C312.64 559.21 312.63 558.85 312.67 558.51H312.69ZM276.81 543.65C276.89 543.72 276.97 543.79 277.05 543.87C277.3 543.73 277.57 543.61 277.81 543.44C282.25 540.26 286.48 536.83 290.23 532.85C292.04 530.93 293.9 529.02 294.89 526.48C295.17 525.77 295.42 524.98 294.69 524.58C294.23 524.33 293.36 524.41 292.88 524.7C291.78 525.37 290.73 526.17 289.78 527.06C285.42 531.18 281.82 535.95 278.5 540.93C277.91 541.82 277.37 542.74 276.81 543.66V543.65ZM286.15 555.58C285.65 555.61 285.51 555.58 285.44 555.63C284.8 556.07 284.14 556.51 283.54 557C280.12 559.73 277.16 562.86 275.17 566.81C274.93 567.3 275 567.94 274.92 568.51C275.45 568.37 276.08 568.37 276.51 568.07C280.09 565.63 282.89 562.46 284.85 558.59C285.31 557.68 285.67 556.73 286.16 555.59L286.15 555.58Z"
                fill="#BFEA88" />
            <path
                d="M521.26 552.58C522.35 553 523.43 553.47 524.54 553.84C529.5 555.52 534.55 556.58 539.81 555.72C542.37 555.3 544.82 554.54 546.83 552.79C547 552.64 547.18 552.52 547.37 552.39C547.42 552.35 547.51 552.37 547.79 552.56C547.23 553.12 546.71 553.75 546.08 554.23C544.22 555.65 542.04 556.27 539.76 556.57C533.89 557.33 528.21 556.48 522.81 554.11C520.44 553.07 518.16 552.62 515.7 553.48C515.28 553.63 514.8 553.91 514.57 554.27C511.26 559.68 507.99 565.12 504.71 570.55C504.45 570.98 504.16 571.39 503.89 571.81C503.75 571.77 503.61 571.72 503.47 571.68C503.57 571.24 503.58 570.75 503.79 570.36C506.27 565.89 508.78 561.44 511.29 556.99C511.79 556.11 512.3 555.24 512.87 554.41C513.27 553.81 513.16 553.48 512.61 553.03C512.17 552.68 511.55 551.82 511.67 551.63C512.04 551.08 512.77 550.36 513.3 550.4C515.24 550.56 516.01 549.36 516.94 548.02C521.53 541.39 526.13 534.76 530.87 528.23C532.97 525.34 535.19 522.48 538.23 520.45C538.73 520.11 539.27 519.4 539.98 520.14C540.6 520.79 540.71 521.53 540.17 522.27C539.21 523.6 538.3 524.98 537.22 526.2C534.93 528.81 532.54 531.33 530.19 533.89C529.6 534.53 529.04 535.14 528.02 535.07C527.73 535.05 527.33 535.47 527.12 535.78C523.92 540.42 520.73 545.07 517.58 549.74C517.36 550.05 517.41 550.54 517.33 550.94C517.75 550.98 518.24 551.18 518.58 551.03C521.62 549.73 524.65 548.41 527.65 547C528.79 546.46 529.83 545.7 530.92 545.06C531.27 544.85 531.64 544.57 532.02 544.53C532.47 544.49 532.94 544.67 533.4 544.76C533.16 545.13 533.01 545.63 532.67 545.85C529.26 548.05 525.96 550.46 522.06 551.78C521.79 551.87 521.54 552.05 521.28 552.2C521.26 552.31 521.24 552.42 521.23 552.54H521.25L521.26 552.58Z"
                fill="#BFEA88" />
            <path
                d="M501.009 548.479C499.799 549.109 498.599 549.769 497.379 550.379C494.699 551.709 491.969 552.859 488.899 552.989C488.499 553.009 488.019 553.569 487.769 553.999C486.719 555.759 485.799 557.589 484.719 559.339C484.299 560.019 483.679 560.619 483.039 561.109C481.639 562.189 480.139 561.549 480.209 559.779C480.269 558.249 480.739 556.719 481.199 555.229C481.909 552.909 483.259 550.909 484.649 548.959C484.779 548.779 484.899 548.579 485.049 548.419C485.719 547.709 486.359 546.909 487.509 547.329C488.379 547.649 488.909 548.709 488.849 549.949C488.849 550.059 488.829 550.169 488.809 550.279C488.579 552.199 488.909 552.509 490.839 552.029C494.639 551.069 498.069 549.259 501.379 547.249C502.059 546.839 502.649 546.059 502.979 545.299C506.089 538.379 510.549 532.359 515.389 526.609C517.549 524.039 519.829 521.559 522.229 519.209C523.369 518.089 524.869 517.299 526.279 516.489C527.139 515.999 528.199 515.899 529.019 516.619C529.839 517.339 529.949 518.369 529.739 519.409C529.109 522.499 527.469 525.059 525.559 527.489C520.259 534.209 513.829 539.709 506.849 544.559C504.999 545.849 503.749 547.389 503.069 549.469C501.759 553.549 500.289 557.589 499.219 561.739C498.629 564.019 498.649 566.469 498.529 568.859C498.449 570.369 498.919 570.819 500.349 571.179C499.919 572.099 498.719 572.169 498.169 571.149C497.689 570.269 497.279 569.159 497.339 568.189C497.549 564.989 497.749 561.759 498.389 558.639C499.009 555.579 500.169 552.639 501.079 549.649C501.169 549.349 501.209 549.029 501.279 548.719C501.189 548.649 501.099 548.579 501.019 548.509L501.009 548.479ZM505.599 544.009C505.709 544.099 505.819 544.189 505.919 544.289C506.229 544.109 506.559 543.959 506.849 543.749C508.759 542.329 510.689 540.919 512.569 539.439C517.709 535.379 522.409 530.859 526.269 525.529C527.649 523.629 528.779 521.549 529.099 519.149C529.359 517.219 528.529 516.399 526.729 517.129C525.459 517.639 524.239 518.499 523.249 519.469C516.709 525.889 511.409 533.259 506.979 541.279C506.489 542.169 506.059 543.099 505.609 544.019L505.599 544.009ZM481.979 559.689C482.109 559.739 482.229 559.789 482.369 559.839C484.649 558.059 485.909 555.539 486.929 552.909C487.059 552.579 486.229 551.839 485.759 551.359C485.709 551.319 484.949 551.739 484.799 552.079C483.839 554.179 482.939 556.299 482.069 558.439C481.919 558.809 481.999 559.279 481.979 559.689ZM487.759 548.879C486.539 549.309 486.089 550.059 486.499 550.819C486.629 551.069 486.979 551.279 487.259 551.339C487.379 551.359 487.709 550.969 487.739 550.739C487.809 550.169 487.759 549.589 487.759 548.879Z"
                fill="#BFEA88" />
        </g>
        <path
            d="M415.82 622.44C529.933 622.44 622.44 529.933 622.44 415.82C622.44 301.707 529.933 209.2 415.82 209.2C301.707 209.2 209.2 301.707 209.2 415.82C209.2 529.933 301.707 622.44 415.82 622.44Z"
            fill="#192928" />
        <path
            d="M415.82 622.94C301.61 622.94 208.7 530.02 208.7 415.82C208.7 301.62 301.61 208.69 415.82 208.69C530.03 208.69 622.94 301.61 622.94 415.81C622.94 530.01 530.02 622.93 415.82 622.93V622.94ZM415.82 209.69C302.16 209.69 209.7 302.16 209.7 415.81C209.7 529.46 302.17 621.93 415.82 621.93C529.47 621.93 621.94 529.46 621.94 415.81C621.94 302.16 529.47 209.69 415.82 209.69Z"
            fill="#BFEA88" />
    </g>
    <defs>
        <clipPath id="clip0_422_2514">
            <rect width="513.64" height="513.64" fill="white" transform="translate(159 159)" />
        </clipPath>
    </defs>
</svg>