<svg width="833" height="833" viewBox="0 0 833 833" fill="none" xmlns="http://www.w3.org/2000/svg">
    <g clip-path="url(#clip0_422_2912)">
        <path
            d="M416.12 622.74C530.233 622.74 622.74 530.233 622.74 416.12C622.74 302.007 530.233 209.5 416.12 209.5C302.007 209.5 209.5 302.007 209.5 416.12C209.5 530.233 302.007 622.74 416.12 622.74Z"
            fill="#192928" />
        <path
            d="M416.12 622.74C530.233 622.74 622.74 530.233 622.74 416.12C622.74 302.007 530.233 209.5 416.12 209.5C302.007 209.5 209.5 302.007 209.5 416.12C209.5 530.233 302.007 622.74 416.12 622.74Z"
            fill="#192928" />
        <path
            d="M416.12 623.25C301.92 623.25 209 530.33 209 416.12C209 301.91 301.92 209 416.12 209C530.32 209 623.24 301.92 623.24 416.12C623.24 530.32 530.32 623.24 416.12 623.24V623.25ZM416.12 210C302.47 210 210 302.47 210 416.12C210 529.77 302.47 622.24 416.12 622.24C529.77 622.24 622.24 529.77 622.24 416.12C622.24 302.47 529.78 210 416.12 210Z"
            fill="#BFEA88" />
        <path
            d="M342.16 305.19V391.27H355.3V355.71H357.57C367.65 355.71 373.09 350.95 373.09 340.19V320.82C373.09 310.06 367.31 305.19 357.12 305.19H342.17H342.16ZM360.06 321.27V339.96C360.06 342.45 359.72 343.7 357.23 343.7H355.3V317.2H357C359.15 317.2 360.06 318.22 360.06 321.28V321.27Z"
            fill="#BFEA88" />
        <path d="M617.07 367.9L619.98 391.26H621.25C620.3 383.33 618.9 375.53 617.07 367.9Z" fill="#BFEA88" />
        <path d="M339.19 317.3V305.19H314.95V391.26H340.44V379.14H328.32V351.4H337.38V339.28H328.32V317.3H339.19Z"
            fill="#BFEA88" />
        <path
            d="M312.35 345.17V322.52C312.35 307.8 306.35 304.29 296.83 304.29C287.31 304.29 281.43 307.8 281.43 322.52V373.6C281.43 388.21 287.09 392.06 296.83 392.06C306.57 392.06 312.35 388.32 312.35 373.6V350.5H299.33V375.53C299.33 378.13 298.76 379.27 296.95 379.27C294.68 379.27 294.57 377.46 294.57 375.42V319.24C294.57 316.41 295.14 314.94 296.95 314.94C298.76 314.94 299.33 316.41 299.33 319.36V345.18H312.35V345.17Z"
            fill="#BFEA88" />
        <path d="M397.22 391.26V317.3H407.18V305.19H373.89V317.3H383.97V391.26H397.22Z" fill="#BFEA88" />
        <path
            d="M226.77 377.44H233.79L234.92 391.26H248.28L238.07 311.24C235.39 315.78 232.88 320.42 230.55 325.17L233.11 365.33H227.45L230.05 326.18C223.84 339.01 218.92 352.59 215.45 366.74L212.38 391.27H225.63L226.76 377.45L226.77 377.44Z"
            fill="#BFEA88" />
        <path
            d="M279.28 373.59V350.49H266.26V375.52C266.26 378.12 265.69 379.26 263.88 379.26C261.61 379.26 261.5 377.45 261.5 375.41V319.23C261.5 316.4 262.07 314.93 263.88 314.93C265.69 314.93 266.26 316.4 266.26 319.35V345.17H279.28V322.52C279.28 307.8 273.28 304.29 263.76 304.29C254.24 304.29 248.36 307.8 248.36 322.52V373.6C248.36 388.21 254.02 392.06 263.76 392.06C273.5 392.06 279.28 388.32 279.28 373.6V373.59Z"
            fill="#BFEA88" />
        <path
            d="M565.97 322.4C565.97 307.68 559.97 304.28 550.45 304.28C540.93 304.28 535.05 307.79 535.05 322.4V373.59C535.05 388.2 540.71 392.05 550.45 392.05C560.19 392.05 565.97 388.31 565.97 373.59V322.4ZM552.95 374.84C552.95 377.78 552.38 379.26 550.57 379.26C548.76 379.26 548.08 377.79 548.08 374.84V321.83C548.08 316.17 548.76 314.92 550.57 314.92C552.38 314.92 552.95 316.17 552.95 321.83V374.84Z"
            fill="#BFEA88" />
        <path
            d="M443.44 347.881C441.4 330.211 440.04 318.661 438.34 305.181H426.11V391.261H439.36V352.411H439.59C441.74 368.831 443.21 379.031 444.91 391.261H456.8V305.181H443.66V347.881H443.43H443.44Z"
            fill="#BFEA88" />
        <path
            d="M490.53 340.18V322.51C490.53 307.9 484.64 304.28 475.01 304.28C464.7 304.28 459.61 308.7 459.61 322.51V373.59C459.61 387.97 465.27 392.05 472.75 392.05C476.71 392.05 480.34 390.24 481.58 385.93H481.81L482.38 391.25H490.53V344.02H476.49V356.14H484.42L477.51 361.8V374.82C477.51 377.76 476.94 379.24 475.13 379.24C472.86 379.24 472.64 377.43 472.64 375.05V319.21C472.64 316.27 473.32 314.91 475.13 314.91C476.94 314.91 477.51 316.38 477.51 319.33V340.17H490.53V340.18Z"
            fill="#BFEA88" />
        <path d="M615.23 360.741C611.83 348.511 607.34 336.731 601.87 325.521V391.261H615.23V360.741Z" fill="#BFEA88" />
        <path
            d="M533.02 334.071V321.381C533.02 310.171 527.13 305.181 517.5 305.181H502.1V391.261H517.5C527.13 391.261 533.02 387.521 533.02 373.821V358.421C533.02 352.421 530.64 348.911 527.02 346.531V346.191C530.64 343.701 533.02 340.071 533.02 334.071ZM520 375.301C520 378.361 519.32 379.261 517.17 379.261H515.24V352.081H517.17C519.55 352.081 520 353.331 520 355.481V375.301ZM520 336.111C520 338.381 519.66 339.961 517.17 339.961H515.24V317.191H517.17C519.32 317.191 520 318.441 520 321.151V336.101V336.111Z"
            fill="#BFEA88" />
        <path d="M422.88 305.19H409.52V391.27H422.88V305.19Z" fill="#BFEA88" />
        <path
            d="M583.629 304.28C573.889 304.28 568.229 307.79 568.229 322.4V373.59C568.229 388.2 573.889 392.05 583.629 392.05C593.369 392.05 599.149 388.31 599.149 373.59V322.4C599.149 321.59 599.129 320.81 599.089 320.07C596.409 314.97 593.529 310 590.449 305.16C588.459 304.53 586.169 304.28 583.639 304.28H583.629ZM586.119 374.84C586.119 377.78 585.549 379.26 583.739 379.26C581.929 379.26 581.249 377.79 581.249 374.84V321.83C581.249 316.17 581.929 314.92 583.739 314.92C585.549 314.92 586.119 316.17 586.119 321.83V374.84Z"
            fill="#BFEA88" />
        <path
            d="M286.49 486.91C296 486.91 302.01 483.17 302.01 468.45V417.26C302.01 402.54 296.01 399.14 286.49 399.14C276.97 399.14 271.09 402.65 271.09 417.26V468.45C271.09 483.06 276.75 486.91 286.49 486.91ZM284.11 416.69C284.11 411.03 284.79 409.78 286.6 409.78C288.41 409.78 288.98 411.03 288.98 416.69V469.7C288.98 472.64 288.41 474.12 286.6 474.12C284.79 474.12 284.11 472.65 284.11 469.7V416.69Z"
            fill="#BFEA88" />
        <path
            d="M614.81 436.85H614.58L611.18 400.04H596.68L608.01 457.58V486.12H610.58C618.45 464.26 622.75 440.7 622.75 416.13C622.75 410.72 622.54 405.35 622.13 400.05H618.09L614.81 436.86V436.85Z"
            fill="#BFEA88" />
        <path
            d="M303.49 457.69V468.45C303.49 483.06 309.38 486.91 319.01 486.91C328.64 486.91 334.41 483.06 334.41 468.45V400.04H321.39V468.79C321.39 471.06 321.16 473.09 318.9 473.09C316.86 473.09 316.52 471.05 316.52 468.67V457.68H303.5L303.49 457.69Z"
            fill="#BFEA88" />
        <path
            d="M395.03 440.02V417.37C395.03 402.65 389.03 399.14 379.51 399.14C369.99 399.14 364.11 402.65 364.11 417.37V468.45C364.11 483.06 369.77 486.91 379.51 486.91C389.25 486.91 395.03 483.17 395.03 468.45V445.35H382.01V470.38C382.01 472.98 381.44 474.12 379.63 474.12C377.36 474.12 377.25 472.31 377.25 470.27V414.09C377.25 411.26 377.82 409.79 379.63 409.79C381.44 409.79 382.01 411.26 382.01 414.21V440.03H395.03V440.02Z"
            fill="#BFEA88" />
        <path d="M419.17 486.12V412.16H429.14V400.04H395.84V412.16H405.92V486.12H419.17Z" fill="#BFEA88" />
        <path d="M361.7 412.16V400.04H337.46V486.12H362.95V474H350.83V446.25H359.89V434.13H350.83V412.16H361.7Z"
            fill="#BFEA88" />
        <path d="M537.39 486.12V400.04H524.48V437.98H519.61V400.04H506.47V486.12H519.61V450.1H524.48V486.12H537.39Z"
            fill="#BFEA88" />
        <path
            d="M268.73 480.79V452.7C268.73 446.81 266.01 442.85 261.03 442.28V442.17C265.79 441.49 268.73 437.53 268.73 429.94V415.33C268.73 406.5 263.75 400.04 254.12 400.04H237.81V486.12H251.06V452.26C251.06 450.33 251.4 449.66 252.65 449.66H254.01C255.6 449.66 256.05 450.68 256.05 452.72V475.94C256.05 483.42 256.28 484.77 256.84 486.13H269.53V485.11C268.85 484.54 268.74 483.86 268.74 480.81L268.73 480.79ZM255.93 432.88C255.93 435.48 255.14 436.62 253.55 436.62H251.06V412.04H253.1C255.48 412.04 255.93 413.85 255.93 416.12V432.88Z"
            fill="#BFEA88" />
        <path
            d="M587.25 468.45V460.3C587.25 451.24 586.68 447.61 583.06 444.22L577.4 438.9C574.8 436.52 572.42 434.48 570.94 432.22C569.92 430.63 569.47 429.16 569.47 427.46V416.81C569.47 414.32 569.47 411.71 571.85 411.71C574.23 411.71 574.23 414.54 574.23 416.81V430.4H587.25V417.15C587.25 402.54 581.25 399.14 571.73 399.14C562.21 399.14 556.44 402.65 556.44 417.04V423.38C556.44 430.52 557.46 434.93 559.61 438.33C560.97 440.82 562.89 442.75 565.05 444.79L570.03 449.09C572.86 451.58 574.22 454.98 574.22 458.49V469.7C574.22 472.53 573.88 474.12 571.84 474.12C569.57 474.12 569.46 472.53 569.46 469.7V455.32H556.32V468.46C556.32 483.18 562.21 486.92 571.72 486.92C582.03 486.92 587.24 482.5 587.24 468.46L587.25 468.45Z"
            fill="#BFEA88" />
        <path
            d="M216.99 471.4V450.55H219.26C229.34 450.55 234.78 445.79 234.78 435.03V415.66C234.78 404.9 229 400.03 218.81 400.03H210.12C209.71 405.34 209.5 410.7 209.5 416.11C209.5 435.26 212.12 453.79 216.99 471.39V471.4ZM216.99 412.04H218.69C220.84 412.04 221.75 413.06 221.75 416.12V434.81C221.75 437.3 221.41 438.55 218.92 438.55H217V412.05L216.99 412.04Z"
            fill="#BFEA88" />
        <path d="M494.16 486.12V412.16H504.13V400.04H470.83V412.16H480.91V486.12H494.16Z" fill="#BFEA88" />
        <path d="M554 400.04H540.64V486.12H554V400.04Z" fill="#BFEA88" />
        <path
            d="M460.83 430.39V417.14C460.83 402.53 454.83 399.13 445.31 399.13C435.79 399.13 430.02 402.64 430.02 417.03V423.37C430.02 430.51 431.04 434.92 433.19 438.32C434.55 440.81 436.47 442.74 438.63 444.78L443.61 449.08C446.44 451.57 447.8 454.97 447.8 458.48V469.69C447.8 472.52 447.46 474.11 445.42 474.11C443.15 474.11 443.04 472.52 443.04 469.69V455.31H429.9V468.45C429.9 483.17 435.79 486.91 445.3 486.91C455.61 486.91 460.82 482.49 460.82 468.45V460.3C460.82 451.24 460.25 447.61 456.63 444.22L450.97 438.9C448.37 436.52 445.99 434.48 444.51 432.22C443.49 430.63 443.04 429.16 443.04 427.46V416.81C443.04 414.32 443.04 411.71 445.42 411.71C447.8 411.71 447.8 414.54 447.8 416.81V430.4H460.82L460.83 430.39Z"
            fill="#BFEA88" />
        <path
            d="M421.78 546.66C422.71 546.06 423.4 545.56 424.14 545.16C424.72 544.84 425.33 544.51 425.97 544.39C426.98 544.19 427.51 544.7 427.56 545.74C427.58 546.11 427.53 546.49 427.53 546.86C427.53 547.19 427.53 547.52 427.53 548.11C428.13 547.82 428.54 547.53 429 547.41C429.65 547.23 430.51 546.87 430.95 547.14C431.34 547.38 431.41 548.38 431.36 549.02C431.27 550.32 430.87 551.61 430.85 552.91C430.84 554.08 430.96 555.33 431.39 556.4C432.17 558.31 434.61 558.95 436.92 558.12C440.12 556.98 441.96 554.42 443.72 551.74C444.16 551.07 444.87 550.56 445.46 549.99C447.05 548.45 448.71 547.02 450.91 546.4C451.16 546.33 451.41 546.25 451.67 546.21C452.66 546.05 453.69 545.96 454.32 546.9C454.98 547.88 454.68 548.91 454.1 549.85C451.99 553.28 448.81 555.34 445.23 556.92C444.8 557.11 444.14 557.56 444.17 557.83C444.23 558.34 444.6 558.95 445.03 559.25C446.97 560.61 449.17 560.33 451.3 559.91C454.37 559.3 457.12 557.86 459.83 556.34C461.36 555.49 462.88 554.61 464.32 553.6C465.06 553.09 465.71 552.37 466.22 551.61C468.88 547.63 471.34 543.52 474.71 540.09C475.84 538.94 477.2 537.96 478.59 537.16C479.65 536.54 480.79 537.13 480.96 538.35C481.12 539.5 481.07 540.75 480.75 541.86C480.36 543.24 479.63 544.53 478.97 545.83C478.65 546.47 478.1 547.17 477.33 546.68C477.04 546.5 477.07 545.54 477.21 545.01C477.67 543.36 478.27 541.75 478.79 540.12C478.88 539.83 478.84 539.5 478.87 539.18C478.77 539.1 478.67 539.03 478.57 538.95C477.75 539.6 476.79 540.13 476.13 540.91C474.32 543.05 472.48 545.18 470.95 547.51C467.99 552.03 465.23 556.69 462.41 561.29C462.22 561.59 462.11 561.94 462.09 562.44C466.86 559.82 471.53 557.09 476.72 555.41C475.88 555.81 475.04 556.22 474.2 556.62C469.51 558.86 465.11 561.59 460.87 564.59C460.57 564.8 460.28 565.08 460.1 565.39C458.98 567.42 457.87 569.45 456.82 571.51C456.67 571.8 456.74 572.35 456.91 572.65C458.79 575.69 459.11 578.98 458.41 582.38C457.39 587.24 455.31 591.64 452.23 595.54C451.64 596.29 450.86 596.93 450.07 597.45C448.25 598.64 446.51 597.81 446.51 595.64C446.51 593.61 446.7 591.53 447.2 589.56C448.51 584.27 451 579.44 453.37 574.58C453.52 574.28 453.62 573.95 453.8 573.67C454.23 572.99 453.95 572.6 453.35 572.22C451.19 570.85 451.2 570.48 453.35 569.13C456.2 567.34 458.68 565.25 460.1 562.03C460.94 560.13 462.17 558.4 463.21 556.59C463.43 556.21 463.63 555.83 463.68 555.24C463.35 555.42 463 555.58 462.69 555.8C459.26 558.25 455.49 560.01 451.46 561.22C449.72 561.74 447.92 561.83 446.16 561.33C444.02 560.71 442.51 558.66 442.42 556.39C442.42 556.21 442.38 556.03 442.33 555.6C441.79 556.04 441.39 556.37 440.97 556.7C439.14 558.12 437.17 559.21 434.76 559.19C432.14 559.17 430.09 557.36 429.93 554.72C429.85 553.39 430.04 552.04 430.14 550.7C430.19 549.9 430.3 549.12 430.41 548.01C429.82 548.33 429.48 548.42 429.28 548.64C427.8 550.21 426.35 551.79 424.9 553.38C424.57 553.73 424.35 554.21 423.97 554.49C423.69 554.7 423.25 554.69 422.88 554.79C422.79 554.39 422.5 553.91 422.63 553.61C423.13 552.45 423.79 551.35 424.33 550.21C424.93 548.96 425.47 547.67 426.03 546.4C425.92 546.3 425.81 546.2 425.69 546.1C425.26 546.32 424.8 546.49 424.42 546.77C421.14 549.25 417.99 551.85 415.94 555.56C415.08 557.11 413.89 558.49 412.8 559.91C412.55 560.24 412.13 560.51 411.73 560.65C410.92 560.92 410.3 560.33 410.53 559.5C410.68 558.97 410.96 558.46 411.29 558.02C412.52 556.37 413.7 554.68 415.08 553.17C417.88 550.11 419.88 546.52 422.03 543.02C422.15 542.82 422.17 542.56 422.33 542.02C421.29 542.47 420.5 542.81 419.71 543.14C414.67 545.3 409.59 547.31 404.14 548.18C403.42 548.29 403.05 548.59 402.89 549.36C402.43 551.61 401.6 553.72 400.12 555.53C400 555.67 399.89 555.83 399.76 555.96C398.85 556.88 397.87 557.86 396.46 557.31C395.09 556.77 395.07 555.36 395.01 554.14C394.93 552.56 394.98 552.55 393.41 552.44C390.22 552.21 387.07 552.53 383.95 553.16C383.33 553.29 382.9 553.52 382.98 554.26C383.54 559.25 380.99 562.86 377.6 566C372.45 570.77 366.32 573.9 359.76 576.2C357.04 577.16 354.22 577.86 351.32 577.5C350.15 577.36 348.9 576.91 347.92 576.25C346.38 575.21 346.21 573.35 347.16 571.29C348.69 567.97 351.4 565.74 354.21 563.62C358.88 560.08 364.24 557.92 369.74 556.11C372.85 555.08 376.02 554.24 379.17 553.32C380.17 553.03 380.42 552.57 379.67 551.84C377.96 550.2 376.29 548.39 374.29 547.18C368.36 543.61 361.86 541.27 355.37 538.94C354.39 538.59 353.42 538.2 352.45 537.81C346.6 535.4 346.11 529.58 349.52 525.29C351.55 522.73 354.29 521.02 357.05 519.37C362.09 516.36 367.31 513.72 372.88 511.85C379.48 509.63 386.22 508.32 393.22 508.95C395.18 509.13 397.01 509.78 398.54 511.08C400.7 512.91 401.2 516.07 399.48 518.83C398.25 520.82 396.83 522.76 395.16 524.38C392.36 527.11 389.3 529.58 386.32 532.11C385.32 532.96 384.25 533.03 383.81 532.44C383.29 531.75 383.73 530.56 384.94 530C389.33 528 392.57 524.56 395.79 521.15C396.9 519.98 397.78 518.53 398.51 517.08C399.62 514.85 398.83 512.57 396.55 511.54C395.08 510.88 393.45 510.38 391.85 510.25C387.08 509.87 382.42 510.64 377.81 511.88C369.09 514.23 361.27 518.39 353.99 523.66C352.15 524.99 350.64 526.59 349.85 528.82C348.96 531.34 349.55 533.75 351.89 535.04C353.86 536.12 356.03 536.89 358.17 537.62C365.14 539.99 371.98 542.64 377.97 547.05C379.64 548.28 381.06 549.76 381.95 551.67C382.34 552.51 382.96 552.48 383.72 552.39C386.09 552.11 388.46 551.81 390.83 551.65C391.97 551.58 393.13 551.77 394.27 551.96C395.05 552.09 395.47 551.93 395.87 551.18C396.73 549.54 397.68 547.93 398.7 546.37C399.14 545.7 399.78 545.12 400.44 544.65C401.38 543.98 402.11 544.28 402.51 545.37C403.42 547.82 403.42 547.84 406.06 547.26C411.92 545.98 417.52 544.03 422.62 540.8C423.4 540.31 424.03 539.58 424.8 539.07C425.16 538.83 425.68 538.82 426.13 538.7C426.01 539.12 425.96 539.59 425.74 539.95C424.47 541.97 423.15 543.95 421.86 545.96C421.79 546.06 421.82 546.24 421.78 546.69V546.66ZM352.48 576.34C352.5 576.41 352.51 576.48 352.53 576.55C354.38 576.15 356.26 575.88 358.06 575.32C365.24 573.09 371.77 569.63 377.09 564.23C379.49 561.8 381.48 559 381.05 555.22C380.92 554.02 380.78 553.83 379.58 554.14C376.85 554.86 374.12 555.61 371.41 556.44C365.32 558.3 359.55 560.88 354.33 564.57C351.82 566.35 349.63 568.5 348.17 571.27C346.74 573.98 347.88 576.02 350.92 576.26C351.44 576.3 351.96 576.31 352.48 576.33V576.34ZM455.61 574.09C455.35 574.48 455.17 574.68 455.07 574.91C452.96 579.6 450.76 584.26 448.8 589.01C447.94 591.09 447.29 593.33 447.64 595.68C447.84 596.97 448.55 597.32 449.67 596.64C450.02 596.43 450.33 596.16 450.62 595.87C452.5 594.05 453.79 591.84 454.96 589.52C456.68 586.11 457.9 582.56 457.59 578.67C457.46 576.99 457.01 575.4 455.6 574.08L455.61 574.09ZM443.92 555.34C444.07 555.45 444.22 555.57 444.38 555.68C445.52 555.03 446.7 554.43 447.81 553.72C449.7 552.52 451.51 551.19 452.67 549.21C452.91 548.8 452.83 548.19 452.89 547.68C452.36 547.68 451.79 547.54 451.31 547.69C448.72 548.5 446.81 550.28 445.22 552.37C444.59 553.2 444.35 554.33 443.93 555.33L443.92 555.34ZM397.18 554.09C397.1 554.25 396.79 554.6 396.76 554.98C396.74 555.27 397.11 555.86 397.22 555.84C397.62 555.76 398.04 555.56 398.34 555.28C400.18 553.56 401.07 551.33 401.54 548.92C401.61 548.57 401.38 548.04 401.11 547.81C400.97 547.69 400.3 547.92 400.1 548.18C399.22 549.31 398.34 550.46 397.63 551.71C397.3 552.29 397.35 553.09 397.18 554.1V554.09ZM456.19 568.94C456.09 568.88 455.98 568.82 455.88 568.76C455.48 569.07 455.04 569.35 454.71 569.73C454.56 569.9 454.62 570.27 454.59 570.56C454.87 570.52 455.28 570.58 455.4 570.42C455.73 569.98 455.94 569.44 456.2 568.94H456.19Z"
            fill="#BFEA88" />
        <path
            d="M315.26 555.85C315.26 555.28 315.23 554.99 315.26 554.7C315.43 553.29 315.75 551.88 315.77 550.47C315.79 549.14 315.68 547.76 315.31 546.5C314.84 544.9 313.48 544.55 312.16 545.61C311.29 546.3 310.52 547.13 309.76 547.95C307.29 550.6 304.84 553.27 302.38 555.93C302.12 556.2 301.78 556.4 301.48 556.63C301.4 556.57 301.31 556.51 301.23 556.45C301.33 556.12 301.39 555.78 301.54 555.48C302.42 553.75 303.36 552.05 304.2 550.31C304.52 549.65 304.76 548.91 304.83 548.19C304.93 546.98 304.13 546.26 302.94 546.42C302.17 546.52 301.4 546.71 300.65 546.91C297.17 547.88 294.01 549.54 290.91 551.35C290.25 551.74 289.57 552.09 288.81 552.5C288.61 551.97 288.42 551.61 288.34 551.22C288.03 549.74 287.11 549.02 285.65 548.78C283.19 548.38 281.03 549.27 279.08 550.5C276.43 552.16 273.97 554.12 271.43 555.94C271.03 556.23 270.62 556.49 270.22 556.76C270.14 556.69 270.05 556.62 269.97 556.54C270.13 556.14 270.24 555.73 270.44 555.36C271.44 553.53 272.5 551.72 273.47 549.87C274.51 547.91 275.91 546.34 277.77 545.12C279.67 543.88 281.51 542.52 283.33 541.15C287.95 537.68 292.08 533.7 295.59 529.08C296.45 527.95 296.96 526.69 296.79 525.22C296.61 523.66 295.28 522.73 293.76 523.07C291.92 523.48 290.62 524.73 289.26 525.9C284.26 530.19 280.33 535.41 276.61 540.81C274.63 543.7 272.6 546.55 270.59 549.42C270.49 549.57 270.43 549.75 270.37 549.92C270.12 550.61 269.96 551.33 269.63 551.98C268.53 554.14 267.41 556.28 266.29 558.43C267.09 559.27 267.91 560.1 268.73 560.94C271.91 557.37 275.54 554.3 279.68 551.83C281.17 550.94 282.97 550.47 284.68 550.07C285.94 549.77 286.75 550.39 286.92 551.38C287.15 552.72 286.98 553.82 285.73 554.82C283.16 556.85 280.71 559.06 278.35 561.32C276.76 562.84 275.47 564.62 274.56 566.65C274.82 566.9 275.09 567.14 275.35 567.38C275.37 567.29 275.4 567.2 275.43 567.12C277.41 563.17 280.38 560.04 283.8 557.31C284.41 556.82 285.06 556.39 285.7 555.94C285.78 555.89 285.92 555.92 286.41 555.89C285.92 557.03 285.56 557.99 285.1 558.89C283.14 562.77 280.35 565.93 276.76 568.37C276.69 568.42 276.61 568.45 276.54 568.48C276.89 568.8 277.24 569.12 277.59 569.44C282.73 565.81 286.33 561.06 288.19 554.99C288.38 554.38 288.86 553.71 289.39 553.38C291.19 552.26 293.02 551.14 294.95 550.26C297.07 549.29 299.32 548.58 301.53 547.81C301.84 547.7 302.23 547.86 302.58 547.9C302.53 548.25 302.54 548.63 302.4 548.94C302.14 549.51 301.78 550.04 301.49 550.61C300.3 552.94 299.11 555.26 297.96 557.6C297.49 558.56 297.56 559.61 298.45 560.24C299.38 560.9 300.24 560.27 300.94 559.61C301.95 558.67 302.97 557.73 303.89 556.7C306.74 553.49 309.54 550.22 312.39 547.01C312.72 546.64 313.4 546.21 313.75 546.33C314.13 546.46 314.35 547.17 314.56 547.66C314.69 547.96 314.7 548.33 314.67 548.66C314.51 550.71 314.36 552.75 314.15 554.8C314 556.25 313.28 557.25 311.99 558.08C305.92 561.97 300.86 566.97 296.56 572.74C294.67 575.28 292.69 577.8 291.68 580.87C291.66 580.93 291.64 580.99 291.62 581.05C291.82 581.2 292.02 581.36 292.22 581.51C292.53 580.62 292.97 579.77 293.44 578.94C297.63 571.55 303.29 565.48 310.11 560.47C310.96 559.85 311.82 559.24 312.68 558.63C312.77 558.69 312.86 558.76 312.95 558.82C312.91 559.17 312.92 559.53 312.82 559.85C310.54 567.07 307.36 573.82 302.44 579.63C300.77 581.6 298.96 583.44 296.79 584.84C297.07 585.04 297.36 585.23 297.64 585.43C300.07 583.8 302.08 581.68 303.97 579.42C309.01 573.37 312.08 566.32 314.26 558.83C314.56 557.81 315.02 557.04 316.01 556.53C317.73 555.64 319.39 554.63 321.07 553.66C321.39 553.48 321.69 553.26 322 553.05C321.92 552.91 321.84 552.78 321.77 552.64C319.65 553.69 317.53 554.73 315.24 555.86L315.26 555.85ZM277.11 543.95C277.67 543.04 278.21 542.11 278.8 541.22C282.12 536.24 285.71 531.48 290.08 527.35C291.02 526.46 292.07 525.66 293.18 524.99C293.66 524.7 294.52 524.62 294.99 524.87C295.72 525.27 295.47 526.06 295.19 526.77C294.2 529.32 292.34 531.22 290.53 533.14C286.78 537.12 282.55 540.55 278.11 543.73C277.88 543.9 277.61 544.02 277.35 544.16C277.27 544.09 277.19 544.02 277.11 543.94V543.95Z"
            fill="#BFEA88" />
        <path
            d="M521.56 552.88C522.65 553.3 523.73 553.77 524.84 554.14C529.8 555.82 534.85 556.88 540.11 556.02C542.67 555.6 545.12 554.84 547.13 553.09C547.3 552.94 547.48 552.82 547.67 552.69C547.72 552.65 547.81 552.67 548.09 552.86C547.53 553.42 547.01 554.05 546.38 554.53C544.52 555.95 542.34 556.57 540.06 556.87C534.19 557.63 528.51 556.78 523.11 554.41C520.74 553.37 518.46 552.92 516 553.78C515.58 553.93 515.1 554.21 514.87 554.57C511.56 559.98 508.29 565.42 505.01 570.85C504.75 571.28 504.46 571.69 504.19 572.11C504.05 572.07 503.91 572.02 503.77 571.98C503.87 571.54 503.88 571.05 504.09 570.66C506.57 566.19 509.08 561.74 511.59 557.29C512.09 556.41 512.6 555.54 513.17 554.71C513.57 554.11 513.46 553.78 512.91 553.33C512.47 552.98 511.85 552.12 511.97 551.93C512.34 551.38 513.07 550.66 513.6 550.7C515.54 550.86 516.31 549.66 517.24 548.32C521.83 541.69 526.43 535.06 531.17 528.53C533.27 525.64 535.49 522.78 538.53 520.75C539.03 520.41 539.57 519.7 540.28 520.44C540.9 521.09 541.01 521.83 540.47 522.57C539.51 523.9 538.6 525.28 537.52 526.5C535.23 529.11 532.84 531.63 530.49 534.19C529.9 534.83 529.34 535.44 528.32 535.37C528.03 535.35 527.63 535.77 527.42 536.08C524.22 540.72 521.03 545.37 517.88 550.04C517.66 550.35 517.71 550.84 517.63 551.24C518.05 551.28 518.54 551.48 518.88 551.33C521.92 550.03 524.95 548.71 527.95 547.3C529.09 546.76 530.13 546 531.22 545.36C531.57 545.15 531.94 544.87 532.32 544.83C532.77 544.79 533.24 544.97 533.7 545.06C533.46 545.43 533.31 545.93 532.97 546.15C529.56 548.35 526.26 550.76 522.36 552.08C522.09 552.17 521.84 552.35 521.58 552.5C521.56 552.61 521.54 552.72 521.53 552.84H521.55L521.56 552.88Z"
            fill="#BFEA88" />
        <path
            d="M501.32 548.79C500.11 549.42 498.91 550.08 497.69 550.69C495.01 552.02 492.28 553.17 489.21 553.3C488.81 553.32 488.33 553.88 488.08 554.31C487.03 556.07 486.11 557.9 485.03 559.65C484.61 560.33 483.99 560.93 483.35 561.42C481.95 562.5 480.45 561.86 480.52 560.09C480.58 558.56 481.05 557.03 481.51 555.54C482.22 553.22 483.57 551.22 484.96 549.27C485.09 549.09 485.21 548.89 485.36 548.73C486.03 548.02 486.67 547.22 487.82 547.64C488.69 547.96 489.22 549.02 489.16 550.26C489.16 550.37 489.14 550.48 489.12 550.59C488.89 552.51 489.22 552.82 491.15 552.34C494.95 551.38 498.38 549.57 501.69 547.56C502.37 547.15 502.96 546.37 503.29 545.61C506.4 538.69 510.86 532.67 515.7 526.92C517.86 524.35 520.14 521.87 522.54 519.52C523.68 518.4 525.18 517.61 526.59 516.8C527.45 516.31 528.51 516.21 529.33 516.93C530.15 517.65 530.26 518.68 530.05 519.72C529.42 522.81 527.78 525.37 525.87 527.8C520.57 534.52 514.14 540.02 507.16 544.87C505.31 546.16 504.06 547.7 503.38 549.78C502.07 553.86 500.6 557.9 499.53 562.05C498.94 564.33 498.96 566.78 498.84 569.17C498.76 570.68 499.23 571.13 500.66 571.49C500.23 572.41 499.03 572.48 498.48 571.46C498 570.58 497.59 569.47 497.65 568.5C497.86 565.3 498.06 562.07 498.7 558.95C499.32 555.89 500.48 552.95 501.39 549.96C501.48 549.66 501.52 549.34 501.59 549.03C501.5 548.96 501.41 548.89 501.33 548.82L501.32 548.79ZM505.91 544.32C506.02 544.41 506.13 544.5 506.23 544.6C506.54 544.42 506.87 544.27 507.16 544.06C509.07 542.64 511 541.23 512.88 539.75C518.02 535.69 522.72 531.17 526.58 525.84C527.96 523.94 529.09 521.86 529.41 519.46C529.67 517.53 528.84 516.71 527.04 517.44C525.77 517.95 524.55 518.81 523.56 519.78C517.02 526.2 511.72 533.57 507.29 541.59C506.8 542.48 506.37 543.41 505.92 544.33L505.91 544.32ZM482.29 560C482.42 560.05 482.54 560.1 482.68 560.15C484.96 558.37 486.22 555.85 487.24 553.22C487.37 552.89 486.54 552.15 486.07 551.67C486.02 551.63 485.26 552.05 485.11 552.39C484.15 554.49 483.25 556.61 482.38 558.75C482.23 559.12 482.31 559.59 482.29 560ZM488.07 549.19C486.85 549.62 486.4 550.37 486.81 551.13C486.94 551.38 487.29 551.59 487.57 551.65C487.69 551.67 488.02 551.28 488.05 551.05C488.12 550.48 488.07 549.9 488.07 549.19Z"
            fill="#BFEA88" />
        <path
            d="M416.12 569.931C501.066 569.931 569.93 501.067 569.93 416.121C569.93 331.174 501.066 262.311 416.12 262.311C331.173 262.311 262.31 331.174 262.31 416.121C262.31 501.067 331.173 569.931 416.12 569.931Z"
            fill="#192928" />
        <path
            d="M416.12 570.43C331.03 570.43 261.81 501.21 261.81 416.12C261.81 331.03 331.04 261.82 416.12 261.82C501.2 261.82 570.43 331.04 570.43 416.13C570.43 501.22 501.21 570.44 416.12 570.44V570.43ZM416.12 262.81C331.59 262.81 262.81 331.58 262.81 416.12C262.81 500.66 331.58 569.43 416.12 569.43C500.66 569.43 569.43 500.66 569.43 416.12C569.43 331.58 500.66 262.82 416.12 262.82V262.81Z"
            fill="#BFEA88" />
    </g>
    <defs>
        <clipPath id="clip0_422_2912">
            <rect width="414.25" height="414.25" fill="white" transform="translate(209 209)" />
        </clipPath>
    </defs>
</svg>