<svg width="833" height="833" viewBox="0 0 833 833" fill="none" xmlns="http://www.w3.org/2000/svg">
    <g clip-path="url(#clip0_422_2116)">
        <path
            d="M416.45 726.4C587.631 726.4 726.4 587.631 726.4 416.45C726.4 245.269 587.631 106.5 416.45 106.5C245.269 106.5 106.5 245.269 106.5 416.45C106.5 587.631 245.269 726.4 416.45 726.4Z"
            fill="#192928" />
        <path
            d="M416.45 726.91C333.53 726.91 255.56 694.62 196.93 635.98C138.29 577.34 106 499.38 106 416.45C106 333.52 138.29 255.57 196.93 196.93C255.57 138.29 333.53 106 416.45 106C499.37 106 577.34 138.29 635.97 196.93C694.61 255.57 726.9 333.53 726.9 416.45C726.9 499.37 694.61 577.34 635.97 635.97C577.33 694.6 499.37 726.9 416.45 726.9V726.91ZM416.45 107C333.79 107 256.08 139.19 197.63 197.64C139.19 256.08 107 333.79 107 416.45C107 499.11 139.19 576.82 197.64 635.27C256.09 693.72 333.8 725.91 416.46 725.91C499.12 725.91 576.83 693.72 635.28 635.27C693.73 576.82 725.92 499.11 725.92 416.45C725.92 333.79 693.73 256.08 635.28 197.63C576.82 139.19 499.11 107 416.45 107Z"
            fill="#BFEA88" />
        <path
            d="M200.95 249.9L187.38 238.84L191.28 234.05C194.45 230.15 199.42 229.68 203.37 232.91C207.42 236.21 208.02 241.21 204.84 245.11L200.94 249.9H200.95ZM200.78 247.06L203.43 243.8C205.72 240.99 205.12 237.21 201.96 234.64C199.03 232.26 195.14 232.37 192.85 235.18L190.2 238.44L200.78 247.06Z"
            fill="#BFEA88" />
        <path
            d="M211.9 236.68L199 224.86L207.07 216.05L208.49 217.35L201.82 224.63L205.89 228.36L211.89 221.82L213.27 223.09L207.27 229.63L211.88 233.85L218.7 226.4L220.12 227.7L211.89 236.68H211.9Z"
            fill="#BFEA88" />
        <path
            d="M217.45 222.85L219.02 221.31C220.77 222.74 223.29 222.28 225.49 220.12C227.4 218.25 227.63 216.48 226.36 215.18C225.12 213.91 223.54 214.51 221.97 215.31L219.14 216.75C217.82 217.41 214.78 219.34 212.39 216.89C210.41 214.87 210.78 211.92 213.37 209.39C216.23 206.59 219.41 206.31 222.22 208.78L220.67 210.3C218.81 208.65 216.62 208.88 214.64 210.82C213.07 212.36 212.66 214.16 213.83 215.36C215.18 216.74 216.89 215.62 218.29 214.91L220.92 213.56C223 212.5 225.52 211.26 227.83 213.62C229.98 215.82 229.6 218.78 226.83 221.49C223.68 224.57 219.93 225.06 217.46 222.86L217.45 222.85Z"
            fill="#BFEA88" />
        <path d="M232.8 215.45L221.04 202.49L222.59 201.08L234.35 214.04L232.8 215.45Z" fill="#BFEA88" />
        <path
            d="M230.54 205.49C227.22 201.49 227.25 196.55 231.35 193.16C234.77 190.32 238.87 190.43 242.17 193.28L240.5 194.67C237.96 192.62 235.05 192.6 232.58 194.64C229.6 197.11 229.44 200.72 232.23 204.09C235.06 207.5 238.7 208.01 241.47 205.71C243.99 203.62 244.17 200.58 242.14 198.14L237.6 201.91L236.45 200.52L241.18 196.59C242.58 195.42 243.93 195.51 245.01 196.82L248.98 201.61L247.54 202.81L243.72 198.21L243.68 198.24C245.89 201.41 245.67 204.71 242.69 207.18C238.98 210.26 234.05 209.73 230.53 205.48L230.54 205.49Z"
            fill="#BFEA88" />
        <path
            d="M251.18 199.96L240.93 185.79L242.87 184.38L259.38 190.32L250.88 178.58L252.58 177.35L262.83 191.52L260.89 192.93L244.38 186.99L252.88 198.73L251.18 199.96Z"
            fill="#BFEA88" />
        <path
            d="M277.73 182.03L269.2 166.76L274.59 163.75C278.98 161.3 283.76 162.69 286.25 167.14C288.8 171.7 287.51 176.57 283.13 179.02L277.74 182.03H277.73ZM278.62 179.33L282.29 177.28C285.45 175.51 286.29 171.78 284.3 168.22C282.46 164.93 278.8 163.59 275.63 165.36L271.96 167.41L278.62 179.32V179.33Z"
            fill="#BFEA88" />
        <path
            d="M292.76 173.78L285.12 158.04L295.87 152.83L296.71 154.56L287.83 158.87L290.24 163.84L298.22 159.97L299.04 161.66L291.06 165.53L293.79 171.15L302.88 166.74L303.72 168.47L292.77 173.78H292.76Z"
            fill="#BFEA88" />
        <path
            d="M303.03 162.959L305.06 162.109C306.16 164.089 308.67 164.579 311.51 163.389C313.98 162.359 314.84 160.799 314.14 159.119C313.45 157.479 311.76 157.459 310.02 157.619L306.86 157.909C305.4 158.039 301.85 158.709 300.53 155.549C299.44 152.939 300.87 150.339 304.21 148.939C307.9 147.389 310.96 148.309 312.66 151.639L310.65 152.479C309.53 150.259 307.41 149.659 304.85 150.739C302.82 151.589 301.78 153.109 302.43 154.659C303.17 156.429 305.17 156.029 306.74 155.889L309.68 155.609C312 155.399 314.81 155.169 316.08 158.209C317.27 161.049 315.82 163.659 312.24 165.159C308.18 166.859 304.51 165.929 303.03 162.969V162.959Z"
            fill="#BFEA88" />
        <path d="M320.029 161.76L313.899 145.38L315.869 144.64L321.999 161.03L320.029 161.77V161.76Z" fill="#BFEA88" />
        <path
            d="M321.61 151.66C320.01 146.71 321.86 142.14 326.93 140.5C331.16 139.13 334.92 140.75 336.94 144.62L334.87 145.29C333.26 142.45 330.57 141.35 327.53 142.33C323.84 143.52 322.36 146.82 323.71 150.98C325.07 155.19 328.27 157.02 331.69 155.91C334.81 154.9 336.1 152.14 335.12 149.12L329.51 150.94L328.96 149.23L334.81 147.33C336.55 146.77 337.76 147.35 338.28 148.96L340.2 154.88L338.42 155.46L336.58 149.77L336.53 149.79C337.41 153.55 335.98 156.54 332.3 157.73C327.71 159.22 323.33 156.9 321.63 151.65L321.61 151.66Z"
            fill="#BFEA88" />
        <path
            d="M342.83 154.16L338.56 137.19L340.89 136.6L354.03 148.25L350.49 134.19L352.53 133.68L356.8 150.65L354.47 151.24L341.33 139.59L344.87 153.65L342.83 154.16Z"
            fill="#BFEA88" />
        <path
            d="M374.109 147.38L371.859 130.02L377.979 129.22C382.959 128.57 386.889 131.64 387.549 136.7C388.219 141.88 385.219 145.93 380.229 146.58L374.109 147.38ZM375.939 145.2L380.109 144.66C383.699 144.19 385.869 141.04 385.339 137C384.849 133.26 381.939 130.66 378.349 131.12L374.179 131.66L375.939 145.2Z"
            fill="#BFEA88" />
        <path
            d="M391.149 145.29L389.899 127.84L401.819 126.99L401.959 128.91L392.109 129.62L392.499 135.13L401.349 134.5L401.479 136.37L392.629 137L393.079 143.23L403.149 142.51L403.289 144.43L391.149 145.3V145.29Z"
            fill="#BFEA88" />
        <path
            d="M404.72 139.05L406.92 139.01C407.21 141.26 409.36 142.64 412.43 142.59C415.1 142.54 416.48 141.42 416.45 139.6C416.42 137.83 414.86 137.18 413.17 136.68L410.13 135.78C408.72 135.35 405.19 134.66 405.13 131.24C405.08 128.42 407.38 126.53 411 126.46C415 126.39 417.51 128.37 417.85 132.09L415.68 132.13C415.46 129.66 413.72 128.31 410.94 128.36C408.74 128.4 407.21 129.42 407.24 131.1C407.27 133.02 409.28 133.39 410.79 133.84L413.63 134.67C415.87 135.33 418.56 136.16 418.61 139.46C418.66 142.53 416.34 144.42 412.47 144.49C408.07 144.57 405.01 142.34 404.73 139.05H404.72Z"
            fill="#BFEA88" />
        <path d="M420.92 144.229L421.27 126.729L423.37 126.769L423.02 144.269L420.92 144.229Z" fill="#BFEA88" />
        <path
            d="M426.119 135.429C426.449 130.239 429.859 126.679 435.169 127.009C439.609 127.289 442.509 130.179 442.959 134.519L440.789 134.379C440.339 131.149 438.239 129.129 435.049 128.929C431.179 128.679 428.589 131.199 428.319 135.569C428.039 139.989 430.339 142.859 433.929 143.089C437.199 143.299 439.409 141.209 439.609 138.039L433.719 137.669L433.829 135.869L439.969 136.259C441.789 136.379 442.709 137.359 442.599 139.059L442.209 145.269L440.339 145.149L440.719 139.189H440.669C440.099 143.009 437.679 145.259 433.809 145.009C428.999 144.699 425.779 140.939 426.129 135.429H426.119Z"
            fill="#BFEA88" />
        <path
            d="M444.95 145.57L447.21 128.21L449.59 128.52L457.53 144.18L459.41 129.8L461.49 130.07L459.23 147.43L456.85 147.12L448.91 131.46L447.03 145.84L444.95 145.57Z"
            fill="#BFEA88" />
        <path
            d="M476.53 150.75L480.81 133.78L486.8 135.29C491.67 136.52 494.2 140.82 492.95 145.77C491.67 150.84 487.39 153.5 482.52 152.27L476.53 150.76V150.75ZM479.04 149.4L483.11 150.43C486.63 151.32 489.8 149.18 490.79 145.23C491.71 141.57 489.96 138.08 486.45 137.2L482.38 136.17L479.04 149.41V149.4Z"
            fill="#BFEA88" />
        <path
            d="M493.14 155.079L498.41 138.399L509.8 141.999L509.22 143.839L499.8 140.869L498.14 146.139L506.6 148.809L506.04 150.599L497.58 147.929L495.7 153.889L505.33 156.929L504.75 158.759L493.14 155.099V155.079Z"
            fill="#BFEA88" />
        <path
            d="M508.02 154.26L510.08 155.04C509.52 157.23 511.01 159.32 513.88 160.4C516.38 161.34 518.08 160.81 518.72 159.1C519.35 157.44 518.13 156.26 516.75 155.18L514.25 153.22C513.1 152.3 510.07 150.36 511.27 147.16C512.27 144.52 515.09 143.61 518.49 144.88C522.23 146.29 523.83 149.06 522.78 152.64L520.74 151.87C521.45 149.49 520.32 147.6 517.72 146.62C515.66 145.84 513.86 146.23 513.27 147.8C512.59 149.6 514.32 150.68 515.56 151.65L517.89 153.46C519.72 154.9 521.92 156.66 520.75 159.75C519.67 162.63 516.81 163.53 513.19 162.16C509.07 160.61 507.05 157.41 508 154.24L508.02 154.26Z"
            fill="#BFEA88" />
        <path d="M521.2 165.069L528 148.939L529.94 149.759L523.14 165.889L521.2 165.069Z" fill="#BFEA88" />
        <path
            d="M529.28 158.819C531.51 154.119 536 152.079 540.81 154.359C544.83 156.269 546.45 160.029 545.26 164.219L543.3 163.289C544.09 160.119 542.88 157.469 539.99 156.099C536.49 154.439 533.15 155.809 531.27 159.769C529.37 163.769 530.44 167.289 533.69 168.829C536.65 170.239 539.48 169.119 540.84 166.249L535.51 163.719L536.28 162.089L541.83 164.729C543.48 165.509 543.96 166.769 543.23 168.299L540.56 173.919L538.87 173.119L541.43 167.719L541.39 167.699C539.44 171.039 536.36 172.229 532.86 170.569C528.5 168.499 526.91 163.809 529.28 158.819Z"
            fill="#BFEA88" />
        <path
            d="M542.99 175.209L551.53 159.939L553.62 161.109L555.18 178.599L562.26 165.939L564.09 166.969L555.55 182.239L553.46 181.069L551.9 163.579L544.82 176.239L542.99 175.209Z"
            fill="#BFEA88" />
        <path
            d="M570.409 191.76L580.669 177.59L585.669 181.21C589.739 184.16 590.489 189.09 587.499 193.22C584.429 197.45 579.469 198.34 575.399 195.39L570.399 191.77L570.409 191.76ZM573.239 191.43L576.639 193.89C579.579 196.02 583.309 195.2 585.699 191.9C587.909 188.84 587.579 184.96 584.639 182.83L581.239 180.37L573.229 191.43H573.239Z"
            fill="#BFEA88" />
        <path
            d="M584.22 201.94L595.3 188.39L604.55 195.95L603.33 197.44L595.68 191.19L592.18 195.47L599.05 201.09L597.86 202.54L590.99 196.92L587.03 201.76L594.85 208.15L593.63 209.64L584.2 201.93L584.22 201.94Z"
            fill="#BFEA88" />
        <path
            d="M598.37 206.709L600 208.189C598.67 210.019 599.28 212.509 601.55 214.579C603.53 216.379 605.3 216.509 606.53 215.159C607.73 213.849 607.03 212.299 606.15 210.789L604.55 208.049C603.82 206.769 601.72 203.839 604.03 201.309C605.93 199.219 608.9 199.419 611.58 201.859C614.54 204.559 615 207.719 612.69 210.659L611.08 209.189C612.62 207.239 612.27 205.059 610.22 203.189C608.59 201.709 606.77 201.399 605.65 202.639C604.35 204.059 605.56 205.709 606.35 207.069L607.85 209.619C609.02 211.639 610.41 214.089 608.19 216.529C606.12 218.799 603.13 218.589 600.27 215.979C597.02 213.019 596.31 209.299 598.37 206.699V206.709Z"
            fill="#BFEA88" />
        <path d="M606.609 221.6L618.879 209.12L620.379 210.59L608.109 223.07L606.609 221.6Z" fill="#BFEA88" />
        <path
            d="M616.42 218.769C620.22 215.229 625.15 214.979 628.78 218.879C631.81 222.139 631.93 226.229 629.28 229.689L627.8 228.099C629.7 225.439 629.56 222.539 627.38 220.199C624.74 217.359 621.13 217.409 617.93 220.389C614.69 223.399 614.38 227.069 616.84 229.709C619.07 232.109 622.11 232.109 624.44 229.949L620.42 225.629L621.74 224.399L625.93 228.899C627.17 230.239 627.16 231.579 625.92 232.739L621.36 236.979L620.08 235.609L624.45 231.539L624.42 231.499C621.38 233.879 618.08 233.849 615.44 231.019C612.15 227.489 612.4 222.549 616.44 218.779L616.42 218.769Z"
            fill="#BFEA88" />
        <path
            d="M623.13 239.07L636.69 228.02L638.21 229.88L633.22 246.71L644.46 237.55L645.79 239.18L632.23 250.23L630.71 248.37L635.7 231.54L624.46 240.7L623.13 239.07Z"
            fill="#BFEA88" />
        <path
            d="M146.46 532.16L160.33 520.4L161.23 522.38L149.85 532.01L164.59 529.75L165.44 531.62L154.03 541.32L168.81 539.04L169.71 541.02L151.73 543.77L150.76 541.63L162.05 532.04L147.42 534.31L146.45 532.17L146.46 532.16Z"
            fill="#BFEA88" />
        <path
            d="M155.11 550.51L170.51 542.21L176.18 552.73L174.49 553.64L169.81 544.95L164.95 547.57L169.16 555.38L167.51 556.27L163.3 548.46L157.8 551.42L162.59 560.31L160.9 561.22L155.13 550.5L155.11 550.51Z"
            fill="#BFEA88" />
        <path
            d="M162.47 563.981L177.4 554.851L181.59 561.701C183.18 564.301 182.75 567.051 180.54 568.411C178.94 569.391 176.93 569.071 175.3 567.661C176.1 569.841 175.48 571.981 173.64 573.101C171.23 574.571 168.42 573.711 166.76 571.011L162.47 563.991V563.981ZM165.19 564.751L168.52 570.191C169.43 571.681 171.14 572.081 172.7 571.121C174.36 570.101 174.44 568.271 173.46 566.671L170.36 561.591L165.2 564.751H165.19ZM171.95 560.611L174.99 565.581C175.97 567.181 177.71 567.641 179.23 566.711C180.6 565.881 180.92 564.301 180.05 562.871L176.84 557.621L171.96 560.611H171.95Z"
            fill="#BFEA88" />
        <path
            d="M171.38 578.28L185.79 568.36L192.55 578.18L190.97 579.27L185.4 571.18L180.73 574.4L185.88 581.87L184.3 582.96L179.15 575.49L172.58 580.01L171.39 578.28H171.38Z"
            fill="#BFEA88" />
        <path
            d="M179.9 590.471L193.81 579.841L195.09 581.511L182.71 590.971L188.4 598.421L186.87 599.591L179.9 590.471Z"
            fill="#BFEA88" />
        <path
            d="M194.091 594.61C198.051 591.24 202.981 591.2 206.391 595.2C209.671 599.04 209.191 603.95 205.061 607.47C201.061 610.88 196.091 610.94 192.651 606.91C189.411 603.1 189.891 598.19 194.091 594.61ZM203.661 605.84C206.951 603.03 207.441 599.4 204.921 596.45C202.421 593.52 198.771 593.44 195.481 596.25C192.151 599.09 191.611 602.73 194.111 605.66C196.641 608.63 200.331 608.67 203.651 605.84H203.661Z"
            fill="#BFEA88" />
        <path
            d="M202.82 617.96L211.81 602.15L213.34 603.7L205.96 616.66L219.02 609.47L220.46 610.93L213.08 623.96L226.18 616.74L227.71 618.29L211.77 627.05L210.12 625.38L217.43 612.49L204.47 619.64L202.82 617.97V617.96Z"
            fill="#BFEA88" />
        <path
            d="M231.33 644.441L238.17 627.591L239.89 628.931L234.27 642.741L246.28 633.901L247.9 635.161L242.29 649.041L254.33 640.161L256.05 641.501L241.4 652.271L239.55 650.831L245.1 637.101L233.19 645.891L231.34 644.451L231.33 644.441Z"
            fill="#BFEA88" />
        <path
            d="M247.49 656.66L257.3 642.17L267.2 648.87L266.12 650.46L257.94 644.93L254.84 649.51L262.19 654.48L261.14 656.03L253.79 651.06L250.29 656.24L258.66 661.9L257.58 663.49L247.5 656.67L247.49 656.66Z"
            fill="#BFEA88" />
        <path
            d="M260.271 665.2L269.26 650.19L276.141 654.31C278.761 655.88 279.651 658.51 278.321 660.74C277.361 662.35 275.421 663 273.331 662.5C275.051 664.06 275.491 666.24 274.381 668.08C272.931 670.5 270.041 671.04 267.321 669.41L260.271 665.18V665.2ZM263.04 664.62L268.51 667.9C270.01 668.8 271.701 668.36 272.641 666.79C273.641 665.12 272.861 663.46 271.251 662.49L266.15 659.43L263.04 664.62ZM267.111 657.82L272.111 660.81C273.721 661.77 275.481 661.37 276.391 659.85C277.211 658.48 276.771 656.93 275.331 656.07L270.061 652.91L267.12 657.82H267.111Z"
            fill="#BFEA88" />
        <path
            d="M274.79 673.741L282.96 658.261L293.51 663.831L292.61 665.531L283.92 660.941L281.27 665.961L289.3 670.201L288.4 671.901L280.37 667.661L276.65 674.711L274.79 673.731V673.741Z"
            fill="#BFEA88" />
        <path d="M287.99 680.591L295.37 664.73L297.27 665.62L290.7 679.74L299.2 683.69L298.39 685.43L287.99 680.591Z"
            fill="#BFEA88" />
        <path
            d="M302.49 677.68C304.43 672.86 308.78 670.54 313.65 672.5C318.34 674.38 320.19 678.95 318.17 683.99C316.21 688.86 311.84 691.23 306.92 689.25C302.28 687.39 300.43 682.81 302.49 677.69V677.68ZM316.17 683.18C317.78 679.17 316.53 675.73 312.93 674.28C309.36 672.84 306.09 674.47 304.48 678.48C302.85 682.54 304.06 686.02 307.64 687.45C311.26 688.9 314.54 687.23 316.17 683.18Z"
            fill="#BFEA88" />
        <path
            d="M321.08 694.29L321.68 676.11L323.75 676.77L323.25 691.67L331.47 679.23L333.42 679.85L332.95 694.82L341.19 682.33L343.26 682.99L333.22 698.16L330.98 697.45L331.45 682.64L323.31 695L321.07 694.29H321.08Z"
            fill="#BFEA88" />
        <path
            d="M358.65 704.441L356.83 686.351L358.97 686.731L360.45 701.561L366.94 688.141L368.96 688.501L370.48 703.391L376.98 689.921L379.12 690.301L371.19 706.661L368.88 706.251L367.38 691.511L360.95 704.841L358.64 704.431L358.65 704.441Z"
            fill="#BFEA88" />
        <path
            d="M378.66 707.701L380.56 690.301L392.44 691.601L392.23 693.511L382.41 692.441L381.81 697.931L390.63 698.891L390.43 700.751L381.61 699.791L380.93 706.001L390.97 707.101L390.76 709.011L378.66 707.691V707.701Z"
            fill="#BFEA88" />
        <path
            d="M393.94 709.271L394.89 691.801L402.9 692.241C405.94 692.411 407.97 694.321 407.83 696.911C407.73 698.781 406.32 700.261 404.24 700.801C406.49 701.371 407.9 703.101 407.78 705.251C407.63 708.071 405.32 709.901 402.15 709.731L393.94 709.281V709.271ZM396.12 707.461L402.49 707.811C404.24 707.911 405.53 706.721 405.63 704.901C405.74 702.951 404.27 701.851 402.4 701.741L396.46 701.421L396.13 707.461H396.12ZM396.55 699.551L402.37 699.871C404.24 699.971 405.61 698.791 405.7 697.021C405.79 695.421 404.67 694.261 403 694.171L396.86 693.841L396.55 699.561V699.551Z"
            fill="#BFEA88" />
        <path
            d="M410.7 709.971L410.99 692.471L422.91 692.671L422.88 694.591L413.06 694.431L412.97 700.101L422.04 700.251L422.01 702.171L412.94 702.021L412.81 709.991L410.71 709.961L410.7 709.971Z"
            fill="#BFEA88" />
        <path
            d="M425.6 709.961L424.76 692.481L426.86 692.381L427.61 707.941L436.98 707.491L437.07 709.411L425.6 709.961Z"
            fill="#BFEA88" />
        <path
            d="M437.06 700.651C436.54 695.481 439.31 691.401 444.54 690.871C449.56 690.361 453.33 693.551 453.87 698.951C454.4 704.171 451.63 708.301 446.35 708.831C441.38 709.331 437.61 706.151 437.05 700.651H437.06ZM451.73 699.161C451.29 694.861 448.58 692.391 444.73 692.781C440.9 693.171 438.76 696.121 439.2 700.431C439.64 704.781 442.33 707.301 446.16 706.911C450.04 706.521 452.17 703.511 451.73 699.161Z"
            fill="#BFEA88" />
        <path
            d="M461.24 706.731L453.34 690.351L455.48 689.971L461.95 703.411L463.46 688.571L465.48 688.221L472.01 701.701L473.51 686.811L475.65 686.431L473.8 704.521L471.49 704.931L465.04 691.591L463.56 706.321L461.25 706.731H461.24Z"
            fill="#BFEA88" />
        <path
            d="M499.25 698.291L489.24 683.101L491.31 682.441L499.51 694.901L499.04 680.001L500.99 679.381L509.25 691.871L508.76 676.921L510.83 676.261L511.4 694.441L509.16 695.151L500.99 682.791L501.48 697.581L499.24 698.291H499.25Z"
            fill="#BFEA88" />
        <path
            d="M518.501 691.891L512.101 675.6L523.221 671.23L523.921 673.021L514.731 676.63L516.751 681.771L525.011 678.531L525.701 680.281L517.441 683.521L519.721 689.341L529.121 685.651L529.821 687.44L518.491 691.891H518.501Z"
            fill="#BFEA88" />
        <path
            d="M532.74 686.201L525.46 670.291L532.76 666.951C535.53 665.681 538.22 666.431 539.3 668.801C540.08 670.511 539.52 672.471 537.93 673.911C540.19 673.371 542.24 674.251 543.13 676.201C544.31 678.771 543.12 681.461 540.23 682.781L532.75 686.201H532.74ZM530.53 676.381L535.83 673.961C537.54 673.181 538.2 671.501 537.46 669.891C536.79 668.431 535.27 667.921 533.74 668.621L528.15 671.181L530.53 676.391V676.381ZM533.83 683.591L539.63 680.941C541.22 680.211 541.82 678.561 541.06 676.901C540.25 675.131 538.44 674.831 536.73 675.611L531.32 678.091L533.84 683.591H533.83Z"
            fill="#BFEA88" />
        <path
            d="M548.02 679.051L539.88 663.561L550.43 658.011L551.33 659.711L542.63 664.281L545.27 669.301L553.3 665.081L554.2 666.781L546.17 671.001L549.88 678.061L548.02 679.041V679.051Z"
            fill="#BFEA88" />
        <path
            d="M561.13 672.04L552.23 656.97L554.04 655.9L561.96 669.31L570.03 664.54L571.01 666.2L561.13 672.03V672.04Z"
            fill="#BFEA88" />
        <path
            d="M566.94 658.451C564.06 654.121 564.61 649.221 568.99 646.311C573.19 643.511 578.01 644.571 581.01 649.091C583.92 653.461 583.39 658.401 578.98 661.341C574.82 664.111 570 663.051 566.94 658.451ZM579.22 650.281C576.83 646.681 573.28 645.771 570.05 647.911C566.84 650.041 566.33 653.651 568.73 657.251C571.15 660.891 574.71 661.861 577.91 659.731C581.16 657.571 581.64 653.921 579.22 650.281Z"
            fill="#BFEA88" />
        <path
            d="M591.14 652.54L576.5 641.74L578.22 640.41L590.21 649.27L584.62 635.45L586.24 634.19L598.3 643.06L592.68 629.2L594.4 627.87L601.21 644.74L599.35 646.18L587.42 637.4L592.99 651.11L591.13 652.55L591.14 652.54Z"
            fill="#BFEA88" />
        <path
            d="M620.8 627.37L604.88 618.59L606.41 617.04L619.46 624.25L612.1 611.28L613.54 609.82L626.66 617.03L619.27 604.03L620.8 602.48L629.76 618.3L628.11 619.97L615.13 612.83L622.45 625.69L620.8 627.36V627.37Z"
            fill="#BFEA88" />
        <path
            d="M634.86 612.751L621.63 601.301L629.45 592.261L630.91 593.521L624.45 600.991L628.63 604.601L634.44 597.891L635.86 599.121L630.05 605.831L634.78 609.921L641.39 602.281L642.85 603.541L634.88 612.751H634.86Z"
            fill="#BFEA88" />
        <path
            d="M644.85 601.07L631.01 590.36L635.92 584.01C637.79 581.6 640.51 581.02 642.57 582.61C644.05 583.76 644.47 585.76 643.73 587.77C645.48 586.25 647.7 586.07 649.4 587.39C651.63 589.12 651.83 592.05 649.89 594.56L644.85 601.07ZM638.33 593.4L641.9 588.79C643.05 587.31 642.86 585.51 641.45 584.43C640.18 583.45 638.59 583.71 637.57 585.03L633.81 589.89L638.34 593.39L638.33 593.4ZM644.6 598.25L648.5 593.21C649.57 591.83 649.33 590.09 647.89 588.97C646.35 587.78 644.6 588.36 643.46 589.84L639.82 594.55L644.61 598.25H644.6Z"
            fill="#BFEA88" />
        <path
            d="M655.05 587.67L640.65 577.72L647.43 567.91L649.01 569.01L643.42 577.09L648.09 580.32L653.25 572.85L654.83 573.95L649.67 581.42L656.23 585.96L655.04 587.69L655.05 587.67Z"
            fill="#BFEA88" />
        <path
            d="M663.42 575.38L648.55 566.15L649.66 564.37L662.89 572.58L667.83 564.62L669.47 565.64L663.42 575.39V575.38Z"
            fill="#BFEA88" />
        <path
            d="M662.26 560.65C657.7 558.15 655.92 553.55 658.45 548.95C660.88 544.52 665.64 543.23 670.39 545.84C674.99 548.36 676.82 552.99 674.27 557.63C671.86 562.01 667.11 563.31 662.26 560.65ZM669.35 547.72C665.56 545.64 661.99 546.48 660.13 549.87C658.28 553.24 659.5 556.68 663.29 558.76C667.12 560.86 670.72 560.07 672.58 556.7C674.46 553.28 673.19 549.82 669.36 547.72H669.35Z"
            fill="#BFEA88" />
        <path
            d="M680.97 544.171L663 541.401L663.9 539.421L678.63 541.701L667.26 532.051L668.11 530.191L682.91 532.451L671.5 522.781L672.4 520.801L686.26 532.581L685.28 534.721L670.64 532.481L681.94 542.041L680.96 544.181L680.97 544.171Z"
            fill="#BFEA88" />
        <path
            d="M312.68 345.5V322.85C312.68 308.13 306.68 304.62 297.16 304.62C287.64 304.62 281.76 308.13 281.76 322.85V373.93C281.76 388.54 287.42 392.39 297.16 392.39C306.9 392.39 312.68 388.65 312.68 373.93V350.83H299.66V375.86C299.66 378.46 299.09 379.6 297.28 379.6C295.01 379.6 294.9 377.79 294.9 375.75V319.57C294.9 316.74 295.47 315.27 297.28 315.27C299.09 315.27 299.66 316.74 299.66 319.69V345.51H312.68V345.5Z"
            fill="#BFEA88" />
        <path
            d="M339.52 317.631V305.521H315.28V391.59H340.77V379.471H328.65V351.73H337.71V339.611H328.65V317.631H339.52Z"
            fill="#BFEA88" />
        <path
            d="M621.56 305.521L615.67 342.211H615.56V305.521H602.19V391.59H615.56V354.331H615.67L620.32 391.59H634.81L627.34 348.211L636.06 305.521H621.56Z"
            fill="#BFEA88" />
        <path
            d="M190.98 305.521C189.62 327.491 188.15 349.351 186.79 370.191H186.56C184.75 349.351 182.94 327.491 181.01 305.521H169.8C167.99 327.491 166.18 349.351 164.36 370.191H164.13C162.66 349.351 161.41 327.491 159.94 305.521H146.69L156.43 391.601H169.79C171.6 374.161 173.53 356.721 175.34 339.161H175.57C177.38 356.601 179.08 374.271 180.89 391.601H194.25L204.22 305.521H190.97H190.98Z"
            fill="#BFEA88" />
        <path d="M112.49 391.59V355.58C110.14 367.36 108.46 379.37 107.49 391.59H112.49Z" fill="#BFEA88" />
        <path d="M397.551 391.59V317.631H407.511V305.521H374.221V317.631H384.301V391.59H397.551Z" fill="#BFEA88" />
        <path
            d="M115.3 373.92C115.3 388.53 120.96 392.38 130.7 392.38C140.44 392.38 146.22 388.64 146.22 373.92V322.73C146.22 308.01 140.22 304.61 130.7 304.61C129.48 304.61 128.33 304.66 127.24 304.79C122.47 317.14 118.47 329.86 115.3 342.92V373.93V373.92ZM128.32 322.16C128.32 316.5 129 315.25 130.81 315.25C132.62 315.25 133.19 316.5 133.19 322.16V375.17C133.19 378.11 132.62 379.59 130.81 379.59C129 379.59 128.32 378.12 128.32 375.17V322.16Z"
            fill="#BFEA88" />
        <path
            d="M342.49 305.521V391.601H355.63V356.04H357.9C367.98 356.04 373.42 351.281 373.42 340.521V321.15C373.42 310.39 367.64 305.521 357.45 305.521H342.5H342.49ZM360.39 321.601V340.29C360.39 342.78 360.05 344.031 357.56 344.031H355.63V317.531H357.33C359.48 317.531 360.39 318.551 360.39 321.611V321.601Z"
            fill="#BFEA88" />
        <path
            d="M279.61 345.5V322.85C279.61 308.13 273.61 304.62 264.09 304.62C254.57 304.62 248.69 308.13 248.69 322.85V373.93C248.69 388.54 254.35 392.39 264.09 392.39C273.83 392.39 279.61 388.65 279.61 373.93V350.83H266.59V375.86C266.59 378.46 266.02 379.6 264.21 379.6C261.94 379.6 261.83 377.79 261.83 375.75V319.57C261.83 316.74 262.4 315.27 264.21 315.27C266.02 315.27 266.59 316.74 266.59 319.69V345.51H279.61V345.5Z"
            fill="#BFEA88" />
        <path
            d="M671.06 348.211C669.02 330.541 667.661 318.991 665.961 305.511H653.73V391.591H666.98V352.741H667.211C669.361 369.161 670.831 379.361 672.531 391.591H684.42V305.511H671.281V348.211H671.05H671.06Z"
            fill="#BFEA88" />
        <path
            d="M717.02 340.51C713.94 328.28 710.13 316.35 705.65 304.75C704.69 304.65 703.69 304.61 702.64 304.61C692.33 304.61 687.24 309.03 687.24 322.84V373.92C687.24 388.3 692.9 392.38 700.38 392.38C704.34 392.38 707.97 390.57 709.21 386.26H709.44L710.01 391.58H718.16V345.17C718.1 344.9 718.03 344.63 717.96 344.35H704.11V356.47H712.04L705.13 362.13V375.15C705.13 378.09 704.56 379.57 702.75 379.57C700.48 379.57 700.26 377.76 700.26 375.38V319.54C700.26 316.6 700.94 315.24 702.75 315.24C704.56 315.24 705.13 316.71 705.13 319.66V340.5H717.02V340.51Z"
            fill="#BFEA88" />
        <path
            d="M443.77 348.211C441.73 330.541 440.37 318.991 438.67 305.511H426.44V391.591H439.69V352.741H439.92C442.07 369.161 443.54 379.361 445.24 391.591H457.13V305.511H443.99V348.211H443.76H443.77Z"
            fill="#BFEA88" />
        <path d="M650.501 305.521H637.141V391.601H650.501V305.521Z" fill="#BFEA88" />
        <path
            d="M721.41 360.79H720.19V373.93C720.19 382.09 722 386.87 725.23 389.51C724.39 379.8 723.12 370.22 721.41 360.79Z"
            fill="#BFEA88" />
        <path
            d="M535.38 322.73V373.92C535.38 388.53 541.04 392.38 550.78 392.38C560.52 392.38 566.3 388.64 566.3 373.92V322.73C566.3 308.01 560.3 304.61 550.78 304.61C541.26 304.61 535.38 308.12 535.38 322.73ZM553.28 322.16V375.17C553.28 378.11 552.71 379.59 550.9 379.59C549.09 379.59 548.41 378.12 548.41 375.17V322.16C548.41 316.5 549.09 315.25 550.9 315.25C552.71 315.25 553.28 316.5 553.28 322.16Z"
            fill="#BFEA88" />
        <path d="M423.211 305.521H409.851V391.601H423.211V305.521Z" fill="#BFEA88" />
        <path
            d="M568.561 322.73V373.92C568.561 388.53 574.221 392.38 583.961 392.38C593.701 392.38 599.481 388.64 599.481 373.92V322.73C599.481 308.01 593.481 304.61 583.961 304.61C574.441 304.61 568.561 308.12 568.561 322.73ZM586.461 322.16V375.17C586.461 378.11 585.891 379.59 584.081 379.59C582.271 379.59 581.591 378.12 581.591 375.17V322.16C581.591 316.5 582.271 315.25 584.081 315.25C585.891 315.25 586.461 316.5 586.461 322.16Z"
            fill="#BFEA88" />
        <path
            d="M212.72 391.591H225.97L227.1 377.771H234.12L235.25 391.591H248.61L237.62 305.511H223.46L212.7 391.591H212.72ZM230.5 324.771H230.84L233.44 365.661H227.78L230.5 324.771Z"
            fill="#BFEA88" />
        <path
            d="M533.351 334.401V321.711C533.351 310.501 527.461 305.511 517.831 305.511H502.431V391.591H517.831C527.461 391.591 533.351 387.851 533.351 374.151V358.751C533.351 352.751 530.971 349.241 527.351 346.861V346.521C530.971 344.031 533.351 340.401 533.351 334.401ZM520.331 375.631C520.331 378.691 519.651 379.591 517.501 379.591H515.571V352.411H517.501C519.881 352.411 520.331 353.661 520.331 355.811V375.631ZM520.331 336.441C520.331 338.711 519.991 340.291 517.501 340.291H515.571V317.521H517.501C519.651 317.521 520.331 318.771 520.331 321.481V336.431V336.441Z"
            fill="#BFEA88" />
        <path
            d="M490.86 340.51V322.84C490.86 308.23 484.97 304.61 475.34 304.61C465.03 304.61 459.94 309.03 459.94 322.84V373.92C459.94 388.3 465.6 392.38 473.08 392.38C477.04 392.38 480.67 390.57 481.91 386.26H482.14L482.71 391.58H490.86V344.35H476.82V356.47H484.75L477.84 362.13V375.15C477.84 378.09 477.27 379.57 475.46 379.57C473.19 379.57 472.97 377.76 472.97 375.38V319.54C472.97 316.6 473.65 315.24 475.46 315.24C477.27 315.24 477.84 316.71 477.84 319.66V340.5H490.86V340.51Z"
            fill="#BFEA88" />
        <path
            d="M192.74 481.12V453.03C192.74 447.14 190.02 443.18 185.04 442.61V442.5C189.8 441.82 192.74 437.86 192.74 430.27V415.66C192.74 406.83 187.76 400.37 178.13 400.37H161.82V486.45H175.07V452.59C175.07 450.66 175.41 449.99 176.66 449.99H178.02C179.61 449.99 180.06 451.01 180.06 453.05V476.27C180.06 483.75 180.29 485.1 180.85 486.46H193.54V485.44C192.86 484.87 192.75 484.19 192.75 481.14L192.74 481.12ZM179.94 433.21C179.94 435.81 179.15 436.95 177.56 436.95H175.07V412.37H177.11C179.49 412.37 179.94 414.18 179.94 416.45V433.21Z"
            fill="#BFEA88" />
        <path d="M419.5 486.45V412.49H429.47V400.37H396.17V412.49H406.25V486.45H419.5Z" fill="#BFEA88" />
        <path
            d="M217.32 450.88H219.59C229.67 450.88 235.11 446.12 235.11 435.36V415.99C235.11 405.23 229.33 400.36 219.14 400.36H204.19V486.44H217.33V450.88H217.32ZM217.32 412.37H219.02C221.17 412.37 222.08 413.39 222.08 416.45V435.14C222.08 437.63 221.74 438.88 219.25 438.88H217.33V412.38L217.32 412.37Z"
            fill="#BFEA88" />
        <path
            d="M271.42 417.59V468.78C271.42 483.39 277.08 487.24 286.82 487.24C296.56 487.24 302.34 483.5 302.34 468.78V417.59C302.34 402.87 296.34 399.47 286.82 399.47C277.3 399.47 271.42 402.98 271.42 417.59ZM289.32 417.02V470.03C289.32 472.97 288.75 474.45 286.94 474.45C285.13 474.45 284.45 472.98 284.45 470.03V417.02C284.45 411.36 285.13 410.11 286.94 410.11C288.75 410.11 289.32 411.36 289.32 417.02Z"
            fill="#BFEA88" />
        <path
            d="M257.17 486.45H269.86V485.43C269.18 484.86 269.07 484.18 269.07 481.13V453.04C269.07 447.15 266.35 443.19 261.37 442.62V442.51C266.13 441.83 269.07 437.87 269.07 430.28V415.67C269.07 406.84 264.09 400.38 254.46 400.38H238.15V486.46H251.4V452.6C251.4 450.67 251.74 450 252.99 450H254.35C255.94 450 256.39 451.02 256.39 453.06V476.28C256.39 483.76 256.62 485.11 257.18 486.47L257.17 486.45ZM256.26 433.22C256.26 435.82 255.47 436.96 253.88 436.96H251.39V412.38H253.43C255.81 412.38 256.26 414.19 256.26 416.46V433.22Z"
            fill="#BFEA88" />
        <path
            d="M114.44 486.45H116.24V446.58H125.3V434.46H116.24V412.49H127.11V400.37H106.91C106.64 405.7 106.5 411.06 106.5 416.45C106.5 440.52 109.24 463.95 114.44 486.44V486.45Z"
            fill="#BFEA88" />
        <path
            d="M395.36 440.35V417.7C395.36 402.98 389.36 399.47 379.84 399.47C370.32 399.47 364.44 402.98 364.44 417.7V468.78C364.44 483.39 370.1 487.24 379.84 487.24C389.58 487.24 395.36 483.5 395.36 468.78V445.68H382.34V470.71C382.34 473.31 381.77 474.45 379.96 474.45C377.69 474.45 377.58 472.64 377.58 470.6V414.42C377.58 411.59 378.15 410.12 379.96 410.12C381.77 410.12 382.34 411.59 382.34 414.54V440.36H395.36V440.35Z"
            fill="#BFEA88" />
        <path d="M362.03 412.49V400.37H337.79V486.45H363.28V474.33H351.16V446.58H360.22V434.46H351.16V412.49H362.03Z"
            fill="#BFEA88" />
        <path
            d="M303.82 458.02V468.78C303.82 483.39 309.71 487.24 319.34 487.24C328.97 487.24 334.74 483.39 334.74 468.78V400.37H321.72V469.12C321.72 471.39 321.49 473.42 319.23 473.42C317.19 473.42 316.85 471.38 316.85 469V458.01H303.83L303.82 458.02Z"
            fill="#BFEA88" />
        <path
            d="M661.17 486.45H674.42L675.55 472.63H682.57L683.7 486.45H697.06L686.07 400.37H671.91L661.15 486.45H661.17ZM678.95 419.63H679.29L681.89 460.52H676.23L678.95 419.63Z"
            fill="#BFEA88" />
        <path
            d="M159.11 468.78V417.59C159.11 402.87 153.11 399.47 143.59 399.47C134.07 399.47 128.19 402.98 128.19 417.59V468.78C128.19 483.39 133.85 487.24 143.59 487.24C153.33 487.24 159.11 483.5 159.11 468.78ZM141.21 470.03V417.02C141.21 411.36 141.89 410.11 143.7 410.11C145.51 410.11 146.08 411.36 146.08 417.02V470.03C146.08 472.97 145.51 474.45 143.7 474.45C141.89 474.45 141.21 472.98 141.21 470.03Z"
            fill="#BFEA88" />
        <path d="M660.25 474.33H648.13V446.58H657.19V434.46H648.13V412.49H659V400.37H634.77V486.45H660.25V474.33Z"
            fill="#BFEA88" />
        <path
            d="M721.92 442.62V442.51C723.24 442.32 724.41 441.87 725.43 441.17C726.07 433.02 726.41 424.78 726.41 416.46C726.41 412.63 726.32 408.82 726.18 405.02C723.73 402.12 720 400.37 715.01 400.37H698.7V486.45H711.95V452.59C711.95 450.66 712.29 449.99 713.54 449.99H714.9C716.49 449.99 716.94 451.01 716.94 453.05V476.27C716.94 483.75 717.17 485.1 717.73 486.46H718.48C721.69 472.53 723.95 458.24 725.21 443.66C724.26 443.12 723.16 442.77 721.92 442.63V442.62ZM716.82 433.22C716.82 435.82 716.03 436.96 714.44 436.96H711.95V412.38H713.99C716.37 412.38 716.82 414.19 716.82 416.46V433.22Z"
            fill="#BFEA88" />
        <path
            d="M461.16 430.72V417.47C461.16 402.86 455.16 399.46 445.64 399.46C436.12 399.46 430.35 402.97 430.35 417.36V423.7C430.35 430.84 431.37 435.25 433.52 438.65C434.88 441.14 436.8 443.07 438.96 445.11L443.94 449.41C446.77 451.9 448.13 455.3 448.13 458.81V470.02C448.13 472.85 447.79 474.44 445.75 474.44C443.48 474.44 443.37 472.85 443.37 470.02V455.64H430.23V468.78C430.23 483.5 436.12 487.24 445.63 487.24C455.94 487.24 461.15 482.82 461.15 468.78V460.63C461.15 451.57 460.58 447.94 456.96 444.55L451.3 439.23C448.7 436.85 446.32 434.81 444.84 432.55C443.82 430.96 443.37 429.49 443.37 427.79V417.14C443.37 414.65 443.37 412.04 445.75 412.04C448.13 412.04 448.13 414.87 448.13 417.14V430.73H461.15L461.16 430.72Z"
            fill="#BFEA88" />
        <path d="M554.33 400.37H540.97V486.45H554.33V400.37Z" fill="#BFEA88" />
        <path d="M494.49 486.45V412.49H504.46V400.37H471.16V412.49H481.24V486.45H494.49Z" fill="#BFEA88" />
        <path
            d="M621.71 486.45V457.91L632.92 400.37H618.42L615.14 437.18H614.91L611.51 400.37H597.02L608.34 457.91V486.45H621.71Z"
            fill="#BFEA88" />
        <path
            d="M587.58 430.72V417.47C587.58 402.86 581.58 399.46 572.06 399.46C562.54 399.46 556.77 402.97 556.77 417.36V423.7C556.77 430.84 557.79 435.25 559.94 438.65C561.3 441.14 563.22 443.07 565.38 445.11L570.36 449.41C573.19 451.9 574.55 455.3 574.55 458.81V470.02C574.55 472.85 574.21 474.44 572.17 474.44C569.9 474.44 569.79 472.85 569.79 470.02V455.64H556.65V468.78C556.65 483.5 562.54 487.24 572.05 487.24C582.36 487.24 587.57 482.82 587.57 468.78V460.63C587.57 451.57 587 447.94 583.38 444.55L577.72 439.23C575.12 436.85 572.74 434.81 571.26 432.55C570.24 430.96 569.79 429.49 569.79 427.79V417.14C569.79 414.65 569.79 412.04 572.17 412.04C574.55 412.04 574.55 414.87 574.55 417.14V430.73H587.57L587.58 430.72Z"
            fill="#BFEA88" />
        <path d="M537.72 486.45V400.37H524.81V438.31H519.94V400.37H506.8V486.45H519.94V450.43H524.81V486.45H537.72Z"
            fill="#BFEA88" />
        <mask id="mask0_422_2116" style="mask-type:luminance" maskUnits="userSpaceOnUse" x="263" y="509" width="286"
            height="90">
            <path d="M548.43 509.1H263.87V598.29H548.43V509.1Z" fill="white" />
        </mask>
        <g mask="url(#mask0_422_2116)">
            <path
                d="M422.11 546.989C423.04 546.389 423.73 545.889 424.47 545.489C425.05 545.169 425.66 544.839 426.3 544.719C427.31 544.519 427.84 545.029 427.89 546.069C427.91 546.439 427.86 546.819 427.86 547.189C427.86 547.519 427.86 547.849 427.86 548.439C428.46 548.149 428.87 547.859 429.33 547.739C429.98 547.559 430.84 547.199 431.28 547.469C431.67 547.709 431.74 548.709 431.69 549.349C431.6 550.649 431.2 551.939 431.18 553.239C431.17 554.409 431.29 555.659 431.72 556.729C432.5 558.639 434.94 559.279 437.25 558.449C440.45 557.309 442.29 554.749 444.05 552.069C444.49 551.399 445.2 550.889 445.79 550.319C447.38 548.779 449.04 547.349 451.24 546.729C451.49 546.659 451.74 546.579 452 546.539C452.99 546.379 454.02 546.289 454.65 547.229C455.31 548.209 455.01 549.239 454.43 550.179C452.32 553.609 449.14 555.669 445.56 557.249C445.13 557.439 444.47 557.889 444.5 558.159C444.56 558.669 444.93 559.279 445.36 559.579C447.3 560.939 449.5 560.659 451.63 560.239C454.7 559.629 457.45 558.189 460.16 556.669C461.69 555.819 463.21 554.939 464.65 553.929C465.39 553.419 466.04 552.699 466.55 551.939C469.21 547.959 471.67 543.849 475.04 540.419C476.17 539.269 477.53 538.289 478.92 537.489C479.98 536.869 481.12 537.459 481.29 538.679C481.45 539.829 481.4 541.079 481.08 542.189C480.69 543.569 479.96 544.859 479.3 546.159C478.98 546.799 478.43 547.499 477.66 547.009C477.37 546.829 477.4 545.869 477.54 545.339C478 543.689 478.6 542.079 479.12 540.449C479.21 540.159 479.17 539.829 479.2 539.509C479.1 539.429 479 539.359 478.9 539.279C478.08 539.929 477.12 540.459 476.46 541.239C474.65 543.379 472.81 545.509 471.28 547.839C468.32 552.359 465.56 557.019 462.74 561.619C462.55 561.919 462.44 562.269 462.42 562.769C467.19 560.149 471.86 557.419 477.05 555.739C476.21 556.139 475.37 556.549 474.53 556.949C469.84 559.189 465.44 561.919 461.2 564.919C460.9 565.129 460.61 565.409 460.43 565.719C459.31 567.749 458.2 569.779 457.15 571.839C457 572.129 457.07 572.679 457.24 572.979C459.12 576.019 459.44 579.309 458.74 582.709C457.72 587.569 455.64 591.969 452.56 595.869C451.97 596.619 451.19 597.259 450.4 597.779C448.58 598.969 446.84 598.139 446.84 595.969C446.84 593.939 447.03 591.859 447.53 589.889C448.84 584.599 451.33 579.769 453.7 574.909C453.85 574.609 453.95 574.279 454.13 573.999C454.56 573.319 454.28 572.929 453.68 572.549C451.52 571.179 451.53 570.809 453.68 569.459C456.53 567.669 459.01 565.579 460.43 562.359C461.27 560.459 462.5 558.729 463.54 556.919C463.76 556.539 463.96 556.159 464.01 555.569C463.68 555.749 463.33 555.909 463.02 556.129C459.59 558.579 455.82 560.339 451.79 561.549C450.05 562.069 448.25 562.159 446.49 561.659C444.35 561.039 442.84 558.989 442.75 556.719C442.75 556.539 442.71 556.359 442.66 555.929C442.12 556.369 441.72 556.699 441.3 557.029C439.47 558.449 437.5 559.539 435.09 559.519C432.47 559.499 430.42 557.689 430.26 555.049C430.18 553.719 430.37 552.369 430.47 551.029C430.52 550.229 430.63 549.449 430.74 548.339C430.15 548.659 429.81 548.749 429.61 548.969C428.13 550.539 426.68 552.119 425.23 553.709C424.9 554.059 424.68 554.539 424.3 554.819C424.02 555.029 423.58 555.019 423.21 555.119C423.12 554.719 422.83 554.239 422.96 553.939C423.46 552.779 424.12 551.679 424.66 550.539C425.26 549.289 425.8 547.999 426.36 546.729C426.25 546.629 426.14 546.529 426.02 546.429C425.59 546.649 425.13 546.819 424.75 547.099C421.47 549.579 418.32 552.179 416.27 555.889C415.41 557.439 414.22 558.819 413.13 560.239C412.88 560.569 412.46 560.839 412.06 560.979C411.25 561.249 410.63 560.659 410.86 559.829C411.01 559.299 411.29 558.789 411.62 558.349C412.85 556.699 414.03 555.009 415.41 553.499C418.21 550.439 420.21 546.849 422.36 543.349C422.48 543.149 422.5 542.889 422.66 542.349C421.62 542.799 420.83 543.139 420.04 543.469C415 545.629 409.92 547.639 404.47 548.509C403.75 548.619 403.38 548.919 403.22 549.689C402.76 551.939 401.93 554.049 400.45 555.859C400.33 555.999 400.22 556.159 400.09 556.289C399.18 557.209 398.2 558.189 396.79 557.639C395.42 557.099 395.4 555.689 395.34 554.469C395.26 552.889 395.31 552.879 393.74 552.769C390.55 552.539 387.4 552.859 384.28 553.489C383.66 553.619 383.23 553.849 383.31 554.589C383.87 559.579 381.32 563.189 377.93 566.329C372.78 571.099 366.65 574.229 360.09 576.529C357.37 577.489 354.55 578.189 351.65 577.829C350.48 577.689 349.23 577.239 348.25 576.579C346.71 575.539 346.54 573.679 347.49 571.619C349.02 568.299 351.73 566.069 354.54 563.949C359.21 560.409 364.57 558.249 370.07 556.439C373.18 555.409 376.35 554.569 379.5 553.649C380.5 553.359 380.75 552.899 380 552.169C378.29 550.529 376.62 548.719 374.62 547.509C368.69 543.939 362.19 541.599 355.7 539.269C354.72 538.919 353.75 538.529 352.78 538.139C346.93 535.729 346.44 529.909 349.85 525.619C351.88 523.059 354.62 521.349 357.38 519.699C362.42 516.689 367.64 514.049 373.21 512.179C379.81 509.959 386.55 508.649 393.55 509.279C395.51 509.459 397.34 510.109 398.87 511.409C401.03 513.239 401.53 516.399 399.81 519.159C398.58 521.149 397.16 523.089 395.49 524.709C392.69 527.439 389.63 529.909 386.65 532.439C385.65 533.289 384.58 533.359 384.14 532.769C383.62 532.079 384.06 530.889 385.27 530.329C389.66 528.329 392.9 524.889 396.12 521.479C397.23 520.309 398.11 518.859 398.84 517.409C399.95 515.179 399.16 512.899 396.88 511.869C395.41 511.209 393.78 510.709 392.18 510.579C387.41 510.199 382.75 510.969 378.14 512.209C369.42 514.559 361.6 518.719 354.32 523.989C352.48 525.319 350.97 526.919 350.18 529.149C349.29 531.669 349.88 534.079 352.22 535.369C354.19 536.449 356.36 537.219 358.5 537.949C365.47 540.319 372.31 542.969 378.3 547.379C379.97 548.609 381.39 550.089 382.28 551.999C382.67 552.839 383.29 552.809 384.05 552.719C386.42 552.439 388.79 552.139 391.16 551.979C392.3 551.909 393.46 552.099 394.6 552.289C395.38 552.419 395.8 552.259 396.2 551.509C397.06 549.869 398.01 548.259 399.03 546.699C399.47 546.029 400.11 545.449 400.77 544.979C401.71 544.309 402.44 544.609 402.84 545.699C403.75 548.149 403.75 548.169 406.39 547.589C412.25 546.309 417.85 544.359 422.95 541.129C423.73 540.639 424.36 539.909 425.13 539.399C425.49 539.159 426.01 539.149 426.46 539.029C426.34 539.449 426.29 539.919 426.07 540.279C424.8 542.299 423.48 544.279 422.19 546.289C422.12 546.389 422.15 546.569 422.11 547.019V546.989ZM352.81 576.669C352.83 576.739 352.84 576.809 352.86 576.879C354.71 576.479 356.59 576.209 358.39 575.649C365.57 573.419 372.1 569.959 377.42 564.559C379.82 562.129 381.81 559.329 381.38 555.549C381.25 554.349 381.11 554.159 379.91 554.469C377.18 555.189 374.45 555.939 371.74 556.769C365.65 558.629 359.88 561.209 354.66 564.899C352.15 566.679 349.96 568.829 348.5 571.599C347.07 574.309 348.21 576.349 351.25 576.589C351.77 576.629 352.29 576.639 352.81 576.659V576.669ZM455.94 574.419C455.68 574.809 455.5 575.009 455.4 575.239C453.29 579.929 451.09 584.589 449.13 589.339C448.27 591.419 447.62 593.659 447.97 596.009C448.17 597.299 448.88 597.649 450 596.969C450.35 596.759 450.66 596.489 450.95 596.199C452.83 594.379 454.12 592.169 455.29 589.849C457.01 586.439 458.23 582.889 457.92 578.999C457.79 577.319 457.34 575.729 455.93 574.409L455.94 574.419ZM444.25 555.669C444.4 555.779 444.55 555.899 444.71 556.009C445.85 555.359 447.03 554.759 448.14 554.049C450.03 552.849 451.84 551.519 453 549.539C453.24 549.129 453.16 548.519 453.22 548.009C452.69 548.009 452.12 547.869 451.64 548.019C449.05 548.829 447.14 550.609 445.55 552.699C444.92 553.529 444.68 554.659 444.26 555.659L444.25 555.669ZM397.51 554.419C397.43 554.579 397.12 554.929 397.09 555.309C397.07 555.599 397.44 556.189 397.55 556.169C397.95 556.089 398.37 555.889 398.67 555.609C400.51 553.889 401.4 551.659 401.87 549.249C401.94 548.899 401.71 548.369 401.44 548.139C401.3 548.019 400.63 548.249 400.43 548.509C399.55 549.639 398.67 550.789 397.96 552.039C397.63 552.619 397.68 553.419 397.51 554.429V554.419ZM456.52 569.269C456.42 569.209 456.31 569.149 456.21 569.089C455.81 569.399 455.37 569.679 455.04 570.059C454.89 570.229 454.95 570.599 454.92 570.889C455.2 570.849 455.61 570.909 455.73 570.749C456.06 570.309 456.27 569.769 456.53 569.269H456.52Z"
                fill="#BFEA88" />
            <path
                d="M270.56 557.08C270.96 556.81 271.38 556.55 271.77 556.26C274.31 554.43 276.77 552.48 279.42 550.82C281.37 549.59 283.53 548.7 285.99 549.1C287.45 549.34 288.36 550.06 288.68 551.54C288.76 551.93 288.96 552.3 289.15 552.82C289.91 552.4 290.59 552.05 291.25 551.67C294.35 549.86 297.51 548.19 300.99 547.23C301.74 547.02 302.51 546.84 303.28 546.74C304.47 546.59 305.27 547.3 305.17 548.51C305.11 549.23 304.87 549.98 304.54 550.64C303.7 552.39 302.76 554.08 301.88 555.81C301.73 556.11 301.67 556.46 301.57 556.78C301.65 556.84 301.74 556.9 301.82 556.96C302.12 556.73 302.46 556.54 302.72 556.26C305.18 553.61 307.63 550.93 310.1 548.28C310.86 547.46 311.63 546.63 312.5 545.94C313.82 544.89 315.19 545.23 315.65 546.83C316.02 548.09 316.12 549.48 316.11 550.8C316.09 552.21 315.77 553.62 315.6 555.03C315.56 555.31 315.6 555.6 315.6 556.18C317.89 555.06 320 554.01 322.13 552.96C322.21 553.1 322.28 553.23 322.36 553.37C322.05 553.57 321.75 553.79 321.43 553.98C319.75 554.95 318.09 555.96 316.37 556.85C315.38 557.36 314.91 558.13 314.62 559.15C312.44 566.64 309.38 573.7 304.33 579.74C301.85 582.71 299.16 585.45 295.59 587.12C292.99 588.34 291.13 587.1 291.36 584.24C291.44 583.21 291.73 582.18 292.06 581.19C293.07 578.12 295.05 575.6 296.94 573.06C301.24 567.29 306.3 562.29 312.37 558.4C313.66 557.57 314.38 556.57 314.53 555.12C314.74 553.08 314.9 551.03 315.05 548.98C315.08 548.65 315.06 548.28 314.94 547.98C314.73 547.49 314.51 546.78 314.13 546.65C313.78 546.53 313.1 546.96 312.77 547.33C309.92 550.54 307.12 553.81 304.27 557.02C303.36 558.05 302.33 558.99 301.32 559.93C300.62 560.59 299.76 561.22 298.83 560.56C297.93 559.93 297.87 558.88 298.34 557.92C299.48 555.58 300.68 553.26 301.87 550.93C302.16 550.36 302.52 549.83 302.78 549.26C302.92 548.95 302.91 548.57 302.96 548.22C302.61 548.18 302.21 548.02 301.91 548.13C299.7 548.91 297.46 549.62 295.33 550.58C293.4 551.46 291.58 552.57 289.77 553.7C289.24 554.03 288.76 554.7 288.57 555.31C286.7 561.41 283.07 566.18 277.89 569.82C277.67 569.97 277.45 570.11 277.22 570.22C276.38 570.62 275.51 570.93 274.72 570.19C273.95 569.47 274.26 568.59 274.56 567.79C275.46 565.4 276.92 563.35 278.73 561.61C281.1 559.34 283.55 557.14 286.11 555.11C287.37 554.11 287.53 553.02 287.3 551.67C287.13 550.68 286.33 550.07 285.06 550.36C283.34 550.76 281.55 551.23 280.06 552.12C274.84 555.22 270.42 559.28 266.72 564.1C266.63 564.22 266.54 564.34 266.45 564.46C265.93 565.2 265.26 565.75 264.38 565.2C263.52 564.66 264 563.86 264.34 563.21C266.22 559.56 268.13 555.93 270 552.28C270.33 551.64 270.49 550.91 270.74 550.22C270.8 550.05 270.86 549.87 270.96 549.72C272.96 546.85 275 544 276.98 541.11C280.69 535.71 284.62 530.49 289.63 526.2C290.98 525.04 292.29 523.78 294.13 523.37C295.65 523.03 296.98 523.96 297.16 525.52C297.33 526.99 296.82 528.25 295.96 529.38C292.45 533.99 288.32 537.97 283.7 541.44C281.88 542.8 280.04 544.16 278.14 545.41C276.28 546.63 274.87 548.2 273.84 550.16C272.87 552.01 271.81 553.82 270.81 555.65C270.61 556.02 270.49 556.44 270.34 556.83C270.42 556.9 270.51 556.97 270.59 557.05L270.56 557.08ZM313.32 559.15C313.23 559.09 313.14 559.02 313.05 558.96C312.19 559.58 311.33 560.18 310.48 560.8C303.67 565.82 298.01 571.89 293.81 579.27C292.83 580.99 291.99 582.79 292.14 584.87C292.24 586.18 292.8 586.68 294.11 586.53C294.51 586.48 294.92 586.37 295.28 586.2C298.32 584.77 300.67 582.46 302.79 579.96C307.72 574.16 310.9 567.4 313.17 560.18C313.27 559.85 313.26 559.49 313.3 559.15H313.32ZM277.44 544.29C277.52 544.36 277.6 544.43 277.68 544.51C277.93 544.37 278.2 544.25 278.44 544.08C282.88 540.9 287.11 537.47 290.86 533.49C292.67 531.57 294.53 529.66 295.52 527.12C295.8 526.41 296.05 525.62 295.32 525.22C294.86 524.97 293.99 525.05 293.51 525.34C292.41 526.01 291.36 526.81 290.41 527.7C286.05 531.82 282.45 536.59 279.13 541.57C278.54 542.46 278 543.38 277.44 544.3V544.29ZM286.78 556.22C286.28 556.25 286.14 556.22 286.07 556.27C285.43 556.71 284.77 557.15 284.17 557.64C280.75 560.37 277.79 563.5 275.8 567.45C275.56 567.94 275.63 568.58 275.55 569.15C276.08 569.01 276.71 569.01 277.14 568.71C280.72 566.27 283.52 563.1 285.48 559.23C285.94 558.32 286.3 557.37 286.79 556.23L286.78 556.22Z"
                fill="#BFEA88" />
            <path
                d="M521.89 553.209C522.98 553.629 524.06 554.099 525.17 554.469C530.13 556.149 535.18 557.209 540.44 556.349C543 555.929 545.45 555.169 547.46 553.419C547.63 553.269 547.81 553.149 548 553.019C548.05 552.979 548.14 552.999 548.42 553.189C547.86 553.749 547.34 554.379 546.71 554.859C544.85 556.279 542.67 556.899 540.39 557.199C534.52 557.959 528.84 557.109 523.44 554.739C521.07 553.699 518.79 553.249 516.33 554.109C515.91 554.259 515.43 554.539 515.2 554.899C511.89 560.309 508.62 565.749 505.34 571.179C505.08 571.609 504.79 572.019 504.52 572.439C504.38 572.399 504.24 572.349 504.1 572.309C504.2 571.869 504.21 571.379 504.42 570.989C506.9 566.519 509.41 562.069 511.92 557.619C512.42 556.739 512.93 555.869 513.5 555.039C513.9 554.439 513.79 554.109 513.24 553.659C512.8 553.309 512.18 552.449 512.3 552.259C512.67 551.709 513.4 550.989 513.93 551.029C515.87 551.189 516.64 549.989 517.57 548.649C522.16 542.019 526.76 535.389 531.5 528.859C533.6 525.969 535.82 523.109 538.86 521.079C539.36 520.739 539.9 520.029 540.61 520.769C541.23 521.419 541.34 522.159 540.8 522.899C539.84 524.229 538.93 525.609 537.85 526.829C535.56 529.439 533.17 531.959 530.82 534.519C530.23 535.159 529.67 535.769 528.65 535.699C528.36 535.679 527.96 536.099 527.75 536.409C524.55 541.049 521.36 545.699 518.21 550.369C517.99 550.679 518.04 551.169 517.96 551.569C518.38 551.609 518.87 551.809 519.21 551.659C522.25 550.359 525.28 549.039 528.28 547.629C529.42 547.089 530.46 546.329 531.55 545.689C531.9 545.479 532.27 545.199 532.65 545.159C533.1 545.119 533.57 545.299 534.03 545.389C533.79 545.759 533.64 546.259 533.3 546.479C529.89 548.679 526.59 551.089 522.69 552.409C522.42 552.499 522.17 552.679 521.91 552.829C521.89 552.939 521.87 553.049 521.86 553.169H521.88L521.89 553.209Z"
                fill="#BFEA88" />
            <path
                d="M501.65 549.109C500.44 549.739 499.24 550.399 498.02 551.009C495.34 552.339 492.61 553.489 489.54 553.619C489.14 553.639 488.66 554.199 488.41 554.629C487.36 556.389 486.44 558.219 485.36 559.969C484.94 560.649 484.32 561.249 483.68 561.739C482.28 562.819 480.78 562.179 480.85 560.409C480.91 558.879 481.38 557.349 481.84 555.859C482.55 553.539 483.9 551.539 485.29 549.589C485.42 549.409 485.54 549.209 485.69 549.049C486.36 548.339 487 547.539 488.15 547.959C489.02 548.279 489.55 549.339 489.49 550.579C489.49 550.689 489.47 550.799 489.45 550.909C489.22 552.829 489.55 553.139 491.48 552.659C495.28 551.699 498.71 549.889 502.02 547.879C502.7 547.469 503.29 546.689 503.62 545.929C506.73 539.009 511.19 532.989 516.03 527.239C518.19 524.669 520.47 522.189 522.87 519.839C524.01 518.719 525.51 517.929 526.92 517.119C527.78 516.629 528.84 516.529 529.66 517.249C530.48 517.969 530.59 518.999 530.38 520.039C529.75 523.129 528.11 525.689 526.2 528.119C520.9 534.839 514.47 540.339 507.49 545.189C505.64 546.479 504.39 548.019 503.71 550.099C502.4 554.179 500.93 558.219 499.86 562.369C499.27 564.649 499.29 567.099 499.17 569.489C499.09 570.999 499.56 571.449 500.99 571.809C500.56 572.729 499.36 572.799 498.81 571.779C498.33 570.899 497.92 569.789 497.98 568.819C498.19 565.619 498.39 562.389 499.03 559.269C499.65 556.209 500.81 553.269 501.72 550.279C501.81 549.979 501.85 549.659 501.92 549.349C501.83 549.279 501.74 549.209 501.66 549.139L501.65 549.109ZM506.24 544.639C506.35 544.729 506.46 544.819 506.56 544.919C506.87 544.739 507.2 544.589 507.49 544.379C509.4 542.959 511.33 541.549 513.21 540.069C518.35 536.009 523.05 531.489 526.91 526.159C528.29 524.259 529.42 522.179 529.74 519.779C530 517.849 529.17 517.029 527.37 517.759C526.1 518.269 524.88 519.129 523.89 520.099C517.35 526.519 512.05 533.889 507.62 541.909C507.13 542.799 506.7 543.729 506.25 544.649L506.24 544.639ZM482.62 560.319C482.75 560.369 482.87 560.419 483.01 560.469C485.29 558.689 486.55 556.169 487.57 553.539C487.7 553.209 486.87 552.469 486.4 551.989C486.35 551.949 485.59 552.369 485.44 552.709C484.48 554.809 483.58 556.929 482.71 559.069C482.56 559.439 482.64 559.909 482.62 560.319ZM488.4 549.509C487.18 549.939 486.73 550.689 487.14 551.449C487.27 551.699 487.62 551.909 487.9 551.969C488.02 551.989 488.35 551.599 488.38 551.369C488.45 550.799 488.4 550.219 488.4 549.509Z"
                fill="#BFEA88" />
        </g>
        <path
            d="M416.45 672.77C558.012 672.77 672.77 558.012 672.77 416.45C672.77 274.888 558.012 160.13 416.45 160.13C274.888 160.13 160.13 274.888 160.13 416.45C160.13 558.012 274.888 672.77 416.45 672.77Z"
            fill="#192928" />
        <path
            d="M416.45 673.27C347.85 673.27 283.36 646.56 234.85 598.05C186.34 549.54 159.63 485.05 159.63 416.45C159.63 347.85 186.34 283.36 234.85 234.85C283.36 186.34 347.85 159.63 416.45 159.63C485.05 159.63 549.54 186.34 598.05 234.85C646.56 283.36 673.27 347.85 673.27 416.45C673.27 485.05 646.56 549.54 598.05 598.05C549.54 646.56 485.05 673.27 416.45 673.27ZM416.45 160.63C348.12 160.63 283.88 187.24 235.56 235.56C187.24 283.88 160.63 348.12 160.63 416.45C160.63 484.78 187.24 549.02 235.56 597.34C283.88 645.66 348.12 672.27 416.45 672.27C484.78 672.27 549.02 645.66 597.34 597.34C645.66 549.02 672.27 484.78 672.27 416.45C672.27 348.12 645.66 283.88 597.34 235.56C549.02 187.24 484.78 160.63 416.45 160.63Z"
            fill="#BFEA88" />
    </g>
    <defs>
        <clipPath id="clip0_422_2116">
            <rect width="620.91" height="620.91" fill="white" transform="translate(106 106)" />
        </clipPath>
    </defs>
</svg>