<svg width="833" height="833" viewBox="0 0 833 833" fill="none" xmlns="http://www.w3.org/2000/svg">
    <g clip-path="url(#clip0_422_1320)">
        <g clip-path="url(#clip1_422_1320)">
            <path
                d="M416.06 831.62C645.567 831.62 831.62 645.567 831.62 416.06C831.62 186.553 645.567 0.5 416.06 0.5C186.553 0.5 0.5 186.553 0.5 416.06C0.5 645.567 186.553 831.62 416.06 831.62Z"
                fill="#192928" />
            <path
                d="M416.06 832.12C359.89 832.12 305.41 821.12 254.11 799.42C204.57 778.46 160.07 748.47 121.86 710.26C83.65 672.05 53.65 627.56 32.7 578.01C11 526.71 0 472.23 0 416.06C0 359.89 11 305.41 32.7 254.11C53.66 204.57 83.65 160.07 121.86 121.86C160.07 83.65 204.56 53.65 254.11 32.7C305.4 11 359.89 0 416.06 0C472.23 0 526.71 11 578.01 32.7C627.55 53.66 672.05 83.65 710.26 121.86C748.47 160.07 778.47 204.56 799.42 254.11C821.12 305.4 832.12 359.89 832.12 416.06C832.12 472.23 821.12 526.71 799.42 578.01C778.46 627.55 748.47 672.05 710.26 710.26C672.05 748.47 627.56 778.47 578.01 799.42C526.72 821.12 472.23 832.12 416.06 832.12ZM416.06 1C360.03 1 305.67 11.97 254.5 33.62C205.08 54.52 160.69 84.45 122.57 122.57C84.45 160.69 54.52 205.08 33.62 254.5C11.97 305.67 1 360.03 1 416.06C1 472.09 11.97 526.45 33.62 577.62C54.52 627.04 84.45 671.43 122.57 709.55C160.69 747.67 205.08 777.6 254.5 798.5C305.67 820.14 360.03 831.12 416.06 831.12C472.09 831.12 526.45 820.15 577.62 798.5C627.04 777.6 671.43 747.67 709.55 709.55C747.67 671.43 777.6 627.04 798.5 577.62C820.14 526.45 831.12 472.09 831.12 416.06C831.12 360.03 820.15 305.67 798.5 254.5C777.6 205.08 747.67 160.69 709.55 122.57C671.43 84.45 627.04 54.52 577.62 33.62C526.45 11.97 472.09 1 416.06 1Z"
                fill="#BFEA88" />
            <path
                d="M110.5 200.489L90.3096 185.399L95.6396 178.279C99.9696 172.479 107.09 171.509 112.97 175.909C119 180.419 120.16 187.579 115.83 193.379L110.5 200.499V200.489ZM110.09 196.409L113.71 191.569C116.84 187.389 115.75 181.989 111.05 178.469C106.7 175.209 101.09 175.609 97.9696 179.789L94.3496 184.629L110.1 196.399L110.09 196.409Z"
                fill="#BFEA88" />
            <path
                d="M125.429 180.869L106.189 164.579L117.309 151.439L119.429 153.229L110.239 164.079L116.309 169.219L124.569 159.459L126.629 161.209L118.369 170.969L125.239 176.789L134.639 165.689L136.759 167.479L125.429 180.859V180.869Z"
                fill="#BFEA88" />
            <path
                d="M132.65 160.619L134.83 158.319C137.43 160.289 141.02 159.479 144.07 156.269C146.72 153.479 146.96 150.919 145.06 149.109C143.21 147.349 140.96 148.299 138.75 149.529L134.76 151.749C132.9 152.769 128.62 155.699 125.05 152.309C122.1 149.509 122.47 145.249 126.07 141.459C130.04 137.279 134.61 136.709 138.77 140.109L136.61 142.379C133.85 140.109 130.7 140.549 127.95 143.439C125.77 145.739 125.28 148.349 127.02 150.009C129.03 151.919 131.43 150.229 133.42 149.129L137.14 147.049C140.08 145.419 143.64 143.489 147.09 146.769C150.3 149.819 149.9 154.109 146.06 158.159C141.7 162.749 136.32 163.659 132.65 160.619Z"
                fill="#BFEA88" />
            <path d="M154.34 149.199L136.77 131.139L138.94 129.029L156.51 147.089L154.34 149.199Z" fill="#BFEA88" />
            <path
                d="M150.56 134.98C145.59 129.38 145.4 122.28 151.14 117.19C155.93 112.94 161.83 112.91 166.72 116.85L164.38 118.93C160.62 116.1 156.43 116.21 152.98 119.27C148.81 122.97 148.75 128.17 152.93 132.89C157.16 137.66 162.43 138.23 166.31 134.79C169.84 131.66 169.95 127.28 166.91 123.86L160.55 129.5L158.83 127.56L165.45 121.68C167.42 119.94 169.35 120 170.98 121.83L176.93 128.54L174.91 130.33L169.2 123.89L169.15 123.94C172.48 128.4 172.32 133.16 168.15 136.86C162.95 141.47 155.84 140.94 150.56 134.99V134.98Z"
                fill="#BFEA88" />
            <path
                d="M180.01 126.049L164.64 106.089L167.38 103.979L191.41 111.829L178.67 95.2892L181.07 93.4492L196.44 113.409L193.7 115.519L169.67 107.669L182.41 124.209L180.01 126.049Z"
                fill="#BFEA88" />
            <path
                d="M217.43 99.2096L204.6 77.5196L212.25 72.9896C218.48 69.3096 225.42 71.1396 229.16 77.4596C232.99 83.9396 231.31 90.9996 225.08 94.6796L217.42 99.2096H217.43ZM218.62 95.2796L223.83 92.1996C228.32 89.5396 229.4 84.1396 226.41 79.0896C223.64 74.4096 218.32 72.6196 213.83 75.2796L208.62 78.3596L218.63 95.2796H218.62Z"
                fill="#BFEA88" />
            <path
                d="M238.78 86.81L227.3 64.38L242.62 56.54L243.88 59.01L231.22 65.49L234.84 72.57L246.22 66.75L247.45 69.15L236.07 74.97L240.17 82.98L253.12 76.35L254.38 78.82L238.77 86.81H238.78Z"
                fill="#BFEA88" />
            <path
                d="M253.229 70.9097L256.129 69.6297C257.769 72.4497 261.389 73.0897 265.449 71.3097C268.969 69.7597 270.179 67.4897 269.119 65.0897C268.089 62.7497 265.649 62.7597 263.139 63.0397L258.599 63.5497C256.489 63.7697 251.409 64.8297 249.419 60.3197C247.779 56.5997 249.769 52.8097 254.539 50.6997C259.809 48.3797 264.249 49.6097 266.779 54.3597L263.909 55.6197C262.239 52.4597 259.169 51.6497 255.509 53.2597C252.609 54.5397 251.149 56.7597 252.119 58.9597C253.239 61.4997 256.109 60.8597 258.359 60.6197L262.589 60.1297C265.929 59.7597 269.959 59.3597 271.879 63.7097C273.669 67.7597 271.639 71.5697 266.539 73.8197C260.739 76.3797 255.429 75.1397 253.219 70.9197L253.229 70.9097Z"
                fill="#BFEA88" />
            <path d="M277.649 68.7395L268.409 45.2995L271.219 44.1895L280.459 67.6395L277.649 68.7495V68.7395Z"
                fill="#BFEA88" />
            <path
                d="M279.649 54.1697C277.229 47.0797 279.799 40.4597 287.059 37.9797C293.119 35.9097 298.569 38.1597 301.559 43.6797L298.599 44.6897C296.229 40.6297 292.319 39.1097 287.959 40.5997C282.679 42.3997 280.619 47.1797 282.649 53.1397C284.709 59.1697 289.349 61.7297 294.249 60.0597C298.709 58.5397 300.509 54.5397 299.029 50.2097L290.989 52.9497L290.149 50.4997L298.529 47.6397C301.019 46.7897 302.779 47.5997 303.569 49.9197L306.459 58.3997L303.899 59.2697L301.119 51.1297L301.049 51.1497C302.399 56.5497 300.409 60.8797 295.129 62.6797C288.549 64.9197 282.199 61.6897 279.629 54.1597L279.649 54.1697Z"
                fill="#BFEA88" />
            <path
                d="M310.25 57.3192L303.81 32.9592L307.15 32.0792L326.27 48.6192L320.93 28.4292L323.85 27.6592L330.29 52.0192L326.95 52.8992L307.83 36.3592L313.17 56.5492L310.25 57.3192Z"
                fill="#BFEA88" />
            <path
                d="M355.16 47.0795L351.75 22.1095L360.56 20.9095C367.73 19.9295 373.42 24.3195 374.41 31.5895C375.43 39.0495 371.14 44.8995 363.97 45.8795L355.16 47.0795ZM357.78 43.9195L363.77 43.0995C368.94 42.3895 372.03 37.8295 371.23 32.0195C370.49 26.6295 366.28 22.9195 361.11 23.6295L355.12 24.4495L357.78 43.9295V43.9195Z"
                fill="#BFEA88" />
            <path
                d="M379.65 43.95L377.77 18.82L394.93 17.54L395.14 20.3L380.96 21.36L381.55 29.29L394.3 28.34L394.5 31.03L381.75 31.98L382.42 40.96L396.92 39.88L397.13 42.64L379.64 43.95H379.65Z"
                fill="#BFEA88" />
            <path
                d="M399.13 34.8896L402.3 34.8296C402.72 38.0596 405.82 40.0596 410.24 39.9796C414.09 39.9096 416.08 38.2896 416.03 35.6596C415.98 33.0996 413.73 32.1696 411.31 31.4596L406.93 30.1696C404.9 29.5596 399.81 28.5696 399.72 23.6396C399.65 19.5696 402.94 16.8496 408.16 16.7496C413.92 16.6496 417.54 19.4996 418.03 24.8496L414.9 24.9096C414.58 21.3496 412.06 19.4196 408.07 19.4896C404.9 19.5496 402.7 21.0296 402.74 23.4396C402.79 26.2096 405.68 26.7296 407.85 27.3796L411.94 28.5696C415.16 29.5196 419.04 30.7096 419.12 35.4596C419.2 39.8896 415.87 42.6096 410.29 42.7096C403.96 42.8296 399.54 39.6296 399.13 34.8796V34.8896Z"
                fill="#BFEA88" />
            <path d="M422.5 42.3299L423.02 17.1299L426.04 17.1899L425.52 42.3899L422.5 42.3299Z" fill="#BFEA88" />
            <path
                d="M429.959 29.6599C430.459 22.1899 435.379 17.0699 443.029 17.5799C449.419 18.0099 453.579 22.1799 454.209 28.4299L451.089 28.2199C450.459 23.5599 447.45 20.6499 442.85 20.3499C437.28 19.9799 433.539 23.5899 433.119 29.8799C432.699 36.2399 435.989 40.3899 441.159 40.7299C445.869 41.0399 449.059 38.0499 449.359 33.4799L440.879 32.9099L441.049 30.3199L449.89 30.9099C452.51 31.0799 453.819 32.5099 453.659 34.9499L453.059 43.8899L450.369 43.7099L450.939 35.1299H450.869C450.029 40.6299 446.539 43.8599 440.969 43.4799C434.039 43.0199 429.42 37.5899 429.95 29.6499L429.959 29.6599Z"
                fill="#BFEA88" />
            <path
                d="M457 44.3496L460.42 19.3896L463.84 19.8596L475.13 42.4796L477.96 21.7996L480.96 22.2096L477.54 47.1696L474.12 46.6996L462.83 24.0796L460 44.7596L457 44.3496Z"
                fill="#BFEA88" />
            <path
                d="M502.38 52.1598L508.83 27.7998L517.43 30.0798C524.43 31.9298 527.99 38.1598 526.11 45.2698C524.18 52.5398 517.97 56.2998 510.98 54.4498L502.38 52.1698V52.1598ZM506.01 50.2498L511.86 51.7998C516.91 53.1398 521.51 50.1098 523.01 44.4398C524.4 39.1798 521.94 34.1398 516.89 32.7998L511.04 31.2498L506.01 50.2498Z"
                fill="#BFEA88" />
            <path
                d="M526.199 58.6798L534.139 34.7598L550.469 40.1798L549.599 42.8098L536.099 38.3298L533.589 45.8798L545.719 49.8998L544.869 52.4598L532.739 48.4398L529.909 56.9798L543.709 61.5598L542.839 64.1898L526.199 58.6698V58.6798Z"
                fill="#BFEA88" />
            <path
                d="M547.64 57.8196L550.59 58.9896C549.73 62.1296 551.82 65.1696 555.93 66.8096C559.51 68.2296 561.97 67.4996 562.94 65.0596C563.88 62.6796 562.17 60.9596 560.2 59.3596L556.66 56.4796C555.03 55.1296 550.71 52.2596 552.53 47.6696C554.03 43.8896 558.13 42.6496 562.98 44.5796C568.33 46.7096 570.57 50.7296 568.96 55.8596L566.05 54.6996C567.13 51.2896 565.55 48.5396 561.84 47.0596C558.9 45.8896 556.29 46.3996 555.4 48.6496C554.38 51.2296 556.84 52.8296 558.6 54.2596L561.92 56.9296C564.53 59.0496 567.64 61.6396 565.89 66.0596C564.26 70.1796 560.13 71.3996 554.94 69.3396C549.05 66.9996 546.21 62.3496 547.66 57.8096L547.64 57.8196Z"
                fill="#BFEA88" />
            <path d="M566.33 73.7097L576.56 50.6797L579.32 51.9097L569.09 74.9397L566.33 73.7097Z" fill="#BFEA88" />
            <path
                d="M578.119 64.9195C581.479 58.2295 587.999 55.4195 594.859 58.8595C600.589 61.7295 602.799 67.1895 600.959 73.1995L598.159 71.7995C599.389 67.2595 597.739 63.4095 593.619 61.3395C588.629 58.8395 583.779 60.7195 580.959 66.3495C578.099 72.0495 579.529 77.1495 584.159 79.4795C588.379 81.5895 592.479 80.0695 594.529 75.9795L586.939 72.1695L588.099 69.8495L596.019 73.8195C598.369 74.9995 599.029 76.8195 597.929 79.0095L593.909 87.0195L591.499 85.8095L595.359 78.1195L595.299 78.0895C592.399 82.8395 587.919 84.4595 582.929 81.9495C576.719 78.8295 574.569 72.0395 578.139 64.9195H578.119Z"
                fill="#BFEA88" />
            <path
                d="M597.34 88.9398L610.18 67.2598L613.15 69.0198L614.78 94.2498L625.42 76.2798L628.02 77.8198L615.18 99.4998L612.21 97.7398L610.58 72.5098L599.94 90.4798L597.34 88.9398Z"
                fill="#BFEA88" />
            <path
                d="M636.149 113.76L651.539 93.8096L658.579 99.2396C664.309 103.66 665.179 110.79 660.689 116.6C656.089 122.56 648.919 123.61 643.189 119.19L636.149 113.76ZM640.239 113.41L645.029 117.1C649.159 120.29 654.579 119.28 658.159 114.64C661.479 110.34 661.169 104.73 657.029 101.54L652.239 97.8496L640.229 113.41H640.239Z"
                fill="#BFEA88" />
            <path
                d="M655.58 128.99L672.15 110L685.12 121.31L683.3 123.4L672.58 114.05L667.35 120.05L676.98 128.45L675.2 130.48L665.57 122.08L659.65 128.86L670.61 138.42L668.79 140.51L655.58 128.98V128.99Z"
                fill="#BFEA88" />
            <path
                d="M675.69 136.49L677.95 138.71C675.94 141.28 676.7 144.89 679.86 147.98C682.61 150.67 685.16 150.95 687 149.07C688.79 147.24 687.87 144.99 686.67 142.76L684.51 138.74C683.52 136.87 680.65 132.54 684.1 129.02C686.95 126.11 691.2 126.55 694.93 130.2C699.05 134.23 699.56 138.81 696.09 142.92L693.85 140.73C696.16 138 695.77 134.85 692.91 132.06C690.64 129.84 688.04 129.31 686.36 131.04C684.42 133.02 686.08 135.45 687.14 137.45L689.17 141.2C690.76 144.16 692.63 147.76 689.31 151.15C686.21 154.32 681.93 153.85 677.94 149.95C673.41 145.52 672.59 140.13 675.68 136.51L675.69 136.49Z"
                fill="#BFEA88" />
            <path d="M686.8 158.36L705.12 141.06L707.2 143.26L688.88 160.56L686.8 158.36Z" fill="#BFEA88" />
            <path
                d="M701.09 154.809C706.76 149.929 713.87 149.839 718.87 155.659C723.05 160.519 722.99 166.409 718.98 171.239L716.94 168.869C719.82 165.149 719.78 160.969 716.77 157.469C713.13 153.239 707.93 153.109 703.16 157.219C698.33 161.379 697.68 166.639 701.06 170.569C704.14 174.139 708.51 174.319 711.98 171.339L706.44 164.899L708.4 163.209L714.18 169.919C715.89 171.909 715.8 173.839 713.95 175.439L707.16 181.289L705.4 179.239L711.92 173.629L711.87 173.579C707.36 176.839 702.61 176.609 698.97 172.379C694.44 167.109 695.07 160.009 701.1 154.819L701.09 154.809Z"
                fill="#BFEA88" />
            <path
                d="M709.56 184.37L729.76 169.3L731.83 172.07L723.62 195.98L740.36 183.49L742.17 185.91L721.97 200.98L719.9 198.21L728.11 174.3L711.37 186.79L709.56 184.37Z"
                fill="#BFEA88" />
            <path
                d="M37.7305 548.39L58.8105 532.85L59.9105 535.78L42.6205 548.51L64.0105 546.7L65.0505 549.46L47.7205 562.28L69.1805 560.44L70.2805 563.37L44.1905 565.56L43.0005 562.39L60.1505 549.71L38.9205 551.54L37.7305 548.37V548.39Z"
                fill="#BFEA88" />
            <path
                d="M48.4507 575.679L71.3507 565.159L78.5307 580.799L76.0107 581.959L70.0707 569.039L62.8407 572.359L68.1707 583.969L65.7207 585.099L60.3807 573.489L52.2007 577.249L58.2707 590.469L55.7507 591.629L48.4307 575.699L48.4507 575.679Z"
                fill="#BFEA88" />
            <path
                d="M57.8408 595.779L80.0908 583.949L85.5208 594.149C87.5808 598.029 86.7308 601.949 83.4308 603.699C81.0508 604.969 78.1808 604.329 75.9708 602.159C76.9408 605.359 75.8508 608.379 73.1208 609.829C69.5308 611.739 65.5608 610.259 63.4108 606.229L57.8508 595.769L57.8408 595.779ZM61.6908 597.119L66.0008 605.219C67.1808 607.439 69.6008 608.159 71.9208 606.919C74.4008 605.599 74.6708 602.969 73.4008 600.589L69.3808 593.029L61.6908 597.119ZM71.7708 591.759L75.7108 599.169C76.9808 601.549 79.4508 602.359 81.7008 601.159C83.7308 600.079 84.3408 597.839 83.2008 595.709L79.0408 587.889L71.7608 591.759H71.7708Z"
                fill="#BFEA88" />
            <path
                d="M69.4502 617.16L90.9802 604.08L99.9002 618.75L97.5302 620.19L90.1802 608.1L83.2002 612.34L89.9902 623.51L87.6202 624.95L80.8302 613.78L71.0202 619.74L69.4502 617.16Z"
                fill="#BFEA88" />
            <path
                d="M80.7405 635.43L101.56 621.22L103.26 623.72L84.7305 636.36L92.3405 647.51L90.0505 649.07L80.7305 635.42L80.7405 635.43Z"
                fill="#BFEA88" />
            <path
                d="M100.83 642.5C106.77 637.94 113.86 638.25 118.47 644.25C122.9 650.02 121.85 657.04 115.65 661.8C109.65 666.4 102.5 666.13 97.8502 660.08C93.4702 654.37 94.5202 647.35 100.82 642.5H100.83ZM113.77 659.34C118.71 655.55 119.67 650.36 116.27 645.93C112.89 641.53 107.65 641.15 102.72 644.95C97.7202 648.79 96.6802 653.99 100.06 658.39C103.48 662.84 108.78 663.18 113.77 659.34Z"
                fill="#BFEA88" />
            <path
                d="M111.79 676.789L125.77 654.649L127.86 656.979L116.38 675.119L135.65 665.659L137.62 667.859L126.14 686.099L145.46 676.589L147.55 678.919L124.04 690.449L121.78 687.929L133.15 669.879L114.04 679.299L111.78 676.779L111.79 676.789Z"
                fill="#BFEA88" />
            <path
                d="M151.25 716.779L162.02 692.909L164.42 694.929L155.58 714.489L173.35 702.439L175.61 704.339L166.78 724.009L184.59 711.899L186.99 713.919L165.31 728.609L162.72 726.429L171.47 706.979L153.85 718.969L151.26 716.789L151.25 716.779Z"
                fill="#BFEA88" />
            <path
                d="M173.921 735.309L188.761 714.939L202.671 725.069L201.041 727.309L189.551 718.939L184.871 725.369L195.201 732.889L193.611 735.069L183.281 727.549L177.981 734.819L189.741 743.379L188.111 745.619L173.941 735.299L173.921 735.309Z"
                fill="#BFEA88" />
            <path
                d="M191.931 748.25L205.561 727.06L215.281 733.31C218.971 735.69 220.151 739.52 218.121 742.67C216.661 744.94 213.851 745.79 210.861 744.98C213.271 747.3 213.801 750.46 212.121 753.07C209.921 756.49 205.741 757.14 201.891 754.67L191.931 748.26V748.25ZM195.941 747.54L203.661 752.5C205.781 753.86 208.241 753.3 209.661 751.09C211.181 748.73 210.131 746.3 207.861 744.84L200.651 740.21L195.941 747.54ZM202.111 737.94L209.161 742.48C211.431 743.94 213.981 743.44 215.361 741.29C216.611 739.35 216.041 737.11 214.011 735.8L206.561 731.01L202.101 737.94H202.111Z"
                fill="#BFEA88" />
            <path
                d="M212.521 761.24L224.911 739.3L239.861 747.74L238.501 750.15L226.18 743.19L222.161 750.3L233.54 756.73L232.18 759.14L220.801 752.71L215.15 762.71L212.521 761.22V761.24Z"
                fill="#BFEA88" />
            <path
                d="M231.32 771.67L242.54 749.1L245.25 750.45L235.27 770.54L247.36 776.55L246.13 779.03L231.33 771.68L231.32 771.67Z"
                fill="#BFEA88" />
            <path
                d="M252.291 768.019C255.241 761.139 261.581 757.939 268.531 760.919C275.221 763.779 277.741 770.419 274.661 777.609C271.681 784.559 265.311 787.819 258.291 784.819C251.671 781.989 249.151 775.339 252.281 768.029L252.291 768.019ZM271.821 776.379C274.271 770.649 272.571 765.659 267.441 763.459C262.341 761.279 257.591 763.509 255.141 769.229C252.661 775.019 254.301 780.069 259.391 782.249C264.551 784.459 269.341 782.159 271.821 776.369V776.379Z"
                fill="#BFEA88" />
            <path
                d="M278.631 792.559L279.981 766.409L282.951 767.419L281.831 788.859L293.991 771.169L296.791 772.119L295.721 793.649L307.901 775.889L310.871 776.899L296.021 798.469L292.821 797.379L293.891 776.079L281.841 793.659L278.641 792.569L278.631 792.559Z"
                fill="#BFEA88" />
            <path
                d="M332.661 808.06L330.301 781.979L333.381 782.56L335.301 803.95L344.841 784.71L347.741 785.25L349.721 806.719L359.281 787.409L362.361 787.99L350.711 811.45L347.381 810.83L345.431 789.59L335.981 808.7L332.651 808.08L332.661 808.06Z"
                fill="#BFEA88" />
            <path
                d="M361.521 813.05L364.411 788.01L381.511 789.99L381.191 792.74L367.061 791.11L366.151 799.01L378.851 800.48L378.541 803.16L365.841 801.69L364.811 810.63L379.261 812.3L378.941 815.05L361.521 813.04V813.05Z"
                fill="#BFEA88" />
            <path
                d="M383.58 815.45L385.02 790.3L396.56 790.96C400.94 791.21 403.85 793.97 403.64 797.71C403.49 800.4 401.45 802.52 398.45 803.29C401.68 804.12 403.7 806.62 403.53 809.71C403.3 813.77 399.97 816.39 395.41 816.13L383.59 815.45H383.58ZM386.72 812.85L395.88 813.38C398.39 813.52 400.26 811.83 400.41 809.21C400.57 806.41 398.46 804.81 395.77 804.65L387.22 804.16L386.72 812.86V812.85ZM387.37 801.46L395.74 801.94C398.43 802.09 400.41 800.4 400.55 797.85C400.68 795.55 399.08 793.87 396.68 793.73L387.84 793.22L387.37 801.45V801.46Z"
                fill="#BFEA88" />
            <path
                d="M408.091 816.519L408.501 791.319L425.671 791.599L425.631 794.369L411.481 794.139L411.351 802.309L424.421 802.519L424.381 805.289L411.311 805.079L411.121 816.559L408.101 816.509L408.091 816.519Z"
                fill="#BFEA88" />
            <path
                d="M429.331 816.499L428.051 791.339L431.071 791.189L432.211 813.589L445.691 812.899L445.831 815.669L429.331 816.509V816.499Z"
                fill="#BFEA88" />
            <path
                d="M445.831 803.04C445.031 795.59 449.001 789.7 456.511 788.89C463.741 788.11 469.191 792.67 470.031 800.44C470.841 807.96 466.881 813.92 459.291 814.74C452.131 815.51 446.681 810.95 445.831 803.04ZM466.951 800.77C466.281 794.58 462.361 791.05 456.811 791.65C451.301 792.24 448.241 796.52 448.911 802.71C449.581 808.97 453.481 812.58 458.991 811.98C464.571 811.38 467.621 807.03 466.951 800.77Z"
                fill="#BFEA88" />
            <path
                d="M480.791 811.549L469.171 788.089L472.251 787.519L481.771 806.759L483.721 785.379L486.621 784.839L496.221 804.139L498.161 782.689L501.241 782.119L498.851 808.189L495.521 808.809L486.031 789.709L484.131 810.929L480.801 811.549H480.791Z"
                fill="#BFEA88" />
            <path
                d="M535.51 798.64L520.7 777.05L523.67 776.05L535.8 793.76L534.72 772.32L537.52 771.38L549.74 789.14L548.64 767.63L551.61 766.63L552.91 792.78L549.7 793.86L537.62 776.29L538.72 797.57L535.51 798.65V798.64Z"
                fill="#BFEA88" />
            <path
                d="M563.121 788.869L553.391 765.629L569.261 758.989L570.331 761.549L557.211 767.039L560.281 774.379L572.071 769.449L573.111 771.939L561.321 776.869L564.801 785.169L578.211 779.549L579.281 782.109L563.111 788.879L563.121 788.869Z"
                fill="#BFEA88" />
            <path
                d="M583.55 780.17L572.48 757.54L582.86 752.47C586.8 750.54 590.691 751.53 592.341 754.89C593.531 757.31 592.79 760.16 590.55 762.29C593.78 761.43 596.76 762.62 598.12 765.4C599.91 769.05 598.29 772.97 594.19 774.97L583.55 780.17ZM580.01 766.12L587.54 762.44C589.96 761.25 590.86 758.82 589.73 756.52C588.72 754.45 586.501 753.77 584.341 754.83L576.391 758.72L580.01 766.12ZM585.021 776.37L593.271 772.34C595.531 771.23 596.33 768.84 595.17 766.48C593.94 763.96 591.321 763.6 588.891 764.78L581.19 768.54L585.021 776.36V776.37Z"
                fill="#BFEA88" />
            <path
                d="M605.311 769.3L592.961 747.34L607.921 738.93L609.281 741.35L596.951 748.28L600.951 755.4L612.341 749L613.701 751.42L602.311 757.82L607.941 767.83L605.311 769.31V769.3Z"
                fill="#BFEA88" />
            <path
                d="M623.961 758.62L610.471 737.33L613.021 735.71L625.031 754.66L636.431 747.43L637.911 749.77L623.951 758.62H623.961Z"
                fill="#BFEA88" />
            <path
                d="M631.71 738.79C627.35 732.7 627.91 725.62 634.05 721.22C639.96 716.99 646.95 718.27 651.49 724.62C655.89 730.77 655.38 737.9 649.17 742.35C643.32 746.54 636.33 745.25 631.7 738.79H631.71ZM648.98 726.43C645.36 721.37 640.2 720.23 635.67 723.48C631.16 726.71 630.61 731.93 634.23 736.99C637.9 742.11 643.06 743.33 647.57 740.1C652.14 736.83 652.65 731.55 648.98 726.43Z"
                fill="#BFEA88" />
            <path
                d="M666.32 728.999L644.66 714.269L647.06 712.259L664.81 724.349L656 704.769L658.26 702.869L676.11 714.969L667.26 695.329L669.66 693.319L680.39 717.209L677.8 719.379L660.14 707.399L668.91 726.829L666.32 728.999Z"
                fill="#BFEA88" />
            <path
                d="M707.631 690.9L684.141 679.33L686.241 677L705.501 686.5L694.051 668.34L696.031 666.15L715.391 675.64L703.891 657.43L705.991 655.1L719.941 677.26L717.681 679.77L698.531 670.37L709.921 688.38L707.651 690.89L707.631 690.9Z"
                fill="#BFEA88" />
            <path
                d="M726.921 668.849L707.061 653.339L717.651 639.779L719.831 641.489L711.081 652.689L717.351 657.589L725.221 647.519L727.351 649.179L719.481 659.249L726.571 664.789L735.521 653.329L737.701 655.039L726.911 668.849H726.921Z"
                fill="#BFEA88" />
            <path
                d="M740.47 651.29L719.75 636.96L726.32 627.46C728.82 623.85 732.69 622.81 735.77 624.94C737.99 626.48 738.74 629.31 737.83 632.27C740.23 629.94 743.41 629.52 745.95 631.28C749.29 633.59 749.8 637.8 747.2 641.56L740.46 651.3L740.47 651.29ZM730.51 640.77L735.28 633.87C736.82 631.65 736.4 629.09 734.3 627.63C732.41 626.32 730.14 626.81 728.77 628.79L723.73 636.07L730.51 640.76V640.77ZM739.89 647.26L745.11 639.71C746.54 637.64 746.07 635.16 743.91 633.67C741.6 632.07 739.14 633.04 737.6 635.26L732.73 642.31L739.89 647.27V647.26Z"
                fill="#BFEA88" />
            <path
                d="M754.12 631.18L732.61 618.05L741.56 603.39L743.93 604.83L736.56 616.91L743.54 621.17L750.35 610.01L752.72 611.45L745.91 622.61L755.71 628.59L754.13 631.17L754.12 631.18Z"
                fill="#BFEA88" />
            <path
                d="M765.181 612.759L743.011 600.789L744.451 598.129L764.181 608.789L770.601 596.909L773.041 598.229L765.191 612.769L765.181 612.759Z"
                fill="#BFEA88" />
            <path
                d="M762.261 591.659C755.481 588.479 752.501 582.03 755.711 575.19C758.801 568.61 765.521 566.31 772.591 569.63C779.431 572.84 782.481 579.32 779.241 586.23C776.181 592.75 769.461 595.039 762.261 591.659ZM771.281 572.43C765.641 569.78 760.591 571.31 758.221 576.36C755.871 581.38 757.931 586.209 763.571 588.849C769.271 591.529 774.371 590.06 776.731 585.04C779.121 579.96 776.981 575.1 771.281 572.42V572.43Z"
                fill="#BFEA88" />
            <path
                d="M787.681 566.18L761.591 563.94L762.701 561.01L784.091 562.86L766.821 550.1L767.861 547.34L789.341 549.15L772.001 536.36L773.111 533.43L794.161 549.01L792.961 552.18L771.701 550.38L788.861 563.02L787.661 566.19L787.681 566.18Z"
                fill="#BFEA88" />
        </g>
    </g>
    <defs>
        <clipPath id="clip0_422_1320">
            <rect width="832.12" height="832.12" fill="white" />
        </clipPath>
        <clipPath id="clip1_422_1320">
            <rect width="832.12" height="832.12" fill="white" />
        </clipPath>
    </defs>
</svg>