<svg width="833" height="833" viewBox="0 0 833 833" fill="none" xmlns="http://www.w3.org/2000/svg">
    <g clip-path="url(#clip0_422_1718)">
        <path
            d="M415.99 776.48C615.083 776.48 776.48 615.083 776.48 415.99C776.48 216.897 615.083 55.5 415.99 55.5C216.897 55.5 55.5 216.897 55.5 415.99C55.5 615.083 216.897 776.48 415.99 776.48Z"
            fill="#192928" />
        <path
            d="M415.99 776.97C367.26 776.97 319.98 767.43 275.48 748.6C232.49 730.42 193.89 704.39 160.74 671.24C127.59 638.09 101.56 599.48 83.38 556.5C64.54 511.99 55 464.72 55 415.99C55 367.26 64.54 319.98 83.37 275.48C101.55 232.49 127.58 193.89 160.73 160.74C193.88 127.59 232.49 101.56 275.47 83.38C319.98 64.54 367.25 55 415.99 55C464.73 55 512 64.54 556.5 83.37C599.49 101.55 638.09 127.58 671.24 160.73C704.39 193.88 730.42 232.49 748.6 275.47C767.42 319.97 776.97 367.25 776.97 415.98C776.97 464.71 767.43 511.99 748.6 556.49C730.42 599.48 704.39 638.08 671.24 671.23C638.09 704.38 599.48 730.41 556.5 748.59C512 767.41 464.72 776.96 415.99 776.96V776.97ZM415.99 56C367.39 56 320.25 65.52 275.87 84.29C233 102.42 194.5 128.38 161.44 161.44C128.38 194.5 102.42 233 84.29 275.87C65.52 320.24 56 367.39 56 415.99C56 464.59 65.52 511.73 84.29 556.11C102.42 598.98 128.38 637.48 161.44 670.54C194.5 703.6 233 729.56 275.87 747.69C320.25 766.46 367.39 775.98 415.99 775.98C464.59 775.98 511.73 766.46 556.11 747.69C598.98 729.56 637.48 703.6 670.54 670.54C703.6 637.48 729.56 598.98 747.69 556.11C766.46 511.73 775.98 464.59 775.98 415.99C775.98 367.39 766.46 320.25 747.69 275.87C729.56 233 703.6 194.5 670.54 161.44C637.48 128.38 598.98 102.42 556.11 84.29C511.73 65.52 464.58 56 415.99 56Z"
            fill="#BFEA88" />
        <path
            d="M152.67 229.879L135.3 216.869L139.89 210.739C143.63 205.749 149.75 204.919 154.81 208.709C160 212.589 160.99 218.759 157.26 223.749L152.67 229.879ZM152.32 226.359L155.44 222.189C158.14 218.589 157.2 213.939 153.16 210.909C149.41 208.099 144.59 208.439 141.9 212.039L138.78 216.209L152.33 226.359H152.32Z"
            fill="#BFEA88" />
        <path
            d="M165.55 212.96L149.01 198.93L158.59 187.63L160.41 189.17L152.49 198.51L157.71 202.94L164.83 194.55L166.6 196.05L159.48 204.44L165.39 209.45L173.49 199.9L175.31 201.44L165.55 212.95V212.96Z"
            fill="#BFEA88" />
        <path
            d="M171.789 195.539L173.669 193.559C175.899 195.259 178.999 194.569 181.629 191.799C183.919 189.399 184.119 187.199 182.479 185.639C180.889 184.119 178.949 184.939 177.049 185.999L173.609 187.909C172.009 188.779 168.319 191.309 165.249 188.379C162.709 185.969 163.039 182.299 166.129 179.039C169.549 175.449 173.479 174.949 177.059 177.889L175.199 179.839C172.829 177.879 170.119 178.259 167.749 180.749C165.869 182.729 165.439 184.969 166.949 186.399C168.679 188.049 170.749 186.589 172.459 185.649L175.659 183.859C178.189 182.459 181.259 180.799 184.229 183.619C186.989 186.249 186.649 189.939 183.339 193.419C179.579 197.369 174.949 198.149 171.789 195.529V195.539Z"
            fill="#BFEA88" />
        <path d="M190.479 185.7L175.359 170.14L177.229 168.33L192.349 183.89L190.479 185.7Z" fill="#BFEA88" />
        <path
            d="M187.23 173.47C182.95 168.64 182.8 162.53 187.74 158.15C191.87 154.49 196.95 154.47 201.15 157.87L199.13 159.66C195.9 157.22 192.29 157.31 189.32 159.94C185.72 163.13 185.67 167.6 189.27 171.66C192.91 175.77 197.45 176.26 200.79 173.3C203.83 170.61 203.93 166.84 201.32 163.89L195.84 168.74L194.36 167.07L200.07 162.01C201.76 160.51 203.43 160.57 204.83 162.14L209.95 167.92L208.21 169.46L203.3 163.91L203.25 163.95C206.11 167.79 205.97 171.89 202.38 175.08C197.9 179.05 191.78 178.59 187.24 173.46L187.23 173.47Z"
            fill="#BFEA88" />
        <path
            d="M212.6 165.789L199.37 148.589L201.73 146.779L222.42 153.539L211.46 139.289L213.52 137.699L226.75 154.899L224.39 156.709L203.7 149.949L214.66 164.199L212.6 165.789Z"
            fill="#BFEA88" />
        <path
            d="M244.86 142.68L233.83 124L240.42 120.11C245.78 116.94 251.76 118.53 254.97 123.97C258.26 129.55 256.81 135.62 251.45 138.79L244.86 142.68ZM245.89 139.3L250.37 136.65C254.24 134.36 255.16 129.71 252.6 125.36C250.22 121.33 245.64 119.79 241.77 122.07L237.29 124.72L245.9 139.29L245.89 139.3Z"
            fill="#BFEA88" />
        <path
            d="M263.25 132.009L253.37 112.689L266.56 105.939L267.65 108.069L256.75 113.649L259.87 119.749L269.67 114.739L270.73 116.809L260.93 121.819L264.46 128.719L275.61 123.019L276.7 125.149L263.26 132.019L263.25 132.009Z"
            fill="#BFEA88" />
        <path
            d="M275.71 118.319L278.21 117.219C279.62 119.649 282.74 120.199 286.23 118.669C289.27 117.329 290.3 115.379 289.39 113.309C288.5 111.299 286.41 111.299 284.24 111.549L280.33 111.979C278.52 112.169 274.14 113.079 272.43 109.189C271.02 105.979 272.73 102.719 276.84 100.909C281.38 98.9092 285.2 99.9692 287.37 104.059L284.9 105.149C283.46 102.429 280.82 101.729 277.67 103.119C275.17 104.219 273.92 106.129 274.75 108.029C275.71 110.209 278.18 109.669 280.12 109.459L283.76 109.039C286.63 108.719 290.11 108.379 291.76 112.119C293.3 115.609 291.56 118.879 287.16 120.819C282.17 123.019 277.6 121.949 275.69 118.319H275.71Z"
            fill="#BFEA88" />
        <path d="M296.74 116.459L288.79 96.2693L291.21 95.3193L299.16 115.509L296.74 116.459Z" fill="#BFEA88" />
        <path
            d="M298.48 103.91C296.4 97.8098 298.62 92.1098 304.87 89.9798C310.09 88.1998 314.78 90.1398 317.35 94.8998L314.8 95.7698C312.76 92.2698 309.4 90.9598 305.64 92.2398C301.09 93.7898 299.31 97.8998 301.06 103.03C302.83 108.22 306.82 110.43 311.05 108.99C314.89 107.68 316.44 104.24 315.17 100.51L308.25 102.87L307.53 100.76L314.75 98.2998C316.89 97.5698 318.41 98.2698 319.08 100.26L321.57 107.57L319.37 108.32L316.98 101.31L316.92 101.33C318.08 105.98 316.37 109.71 311.82 111.25C306.16 113.18 300.69 110.39 298.48 103.91Z"
            fill="#BFEA88" />
        <path
            d="M324.85 106.62L319.31 85.6401L322.19 84.8801L338.65 99.1301L334.06 81.7501L336.58 81.0801L342.12 102.06L339.24 102.82L322.78 88.5701L327.37 105.95L324.85 106.62Z"
            fill="#BFEA88" />
        <path
            d="M363.53 97.8093L360.6 76.3093L368.19 75.2793C374.36 74.4393 379.26 78.2193 380.11 84.4793C380.98 90.8993 377.29 95.9393 371.12 96.7793L363.53 97.8093ZM365.79 95.0893L370.95 94.3893C375.4 93.7793 378.06 89.8593 377.38 84.8493C376.75 80.2093 373.12 77.0093 368.67 77.6193L363.51 78.3193L365.79 95.0893Z"
            fill="#BFEA88" />
        <path
            d="M384.63 95.1094L383.01 73.4694L397.79 72.3594L397.97 74.7394L385.76 75.6594L386.27 82.4894L397.24 81.6694L397.41 83.9894L386.44 84.8094L387.02 92.5394L399.51 91.5994L399.69 93.9794L384.64 95.1094H384.63Z"
            fill="#BFEA88" />
        <path
            d="M401.409 87.3197L404.139 87.2697C404.499 90.0497 407.169 91.7697 410.979 91.6997C414.299 91.6397 416.009 90.2397 415.969 87.9797C415.929 85.7797 413.989 84.9797 411.899 84.3597L408.129 83.2497C406.379 82.7197 401.999 81.8697 401.919 77.6297C401.859 74.1297 404.699 71.7797 409.189 71.6997C414.149 71.6097 417.259 74.0597 417.689 78.6797L414.989 78.7297C414.719 75.6697 412.549 73.9997 409.109 74.0597C406.379 74.1097 404.479 75.3797 404.519 77.4597C404.559 79.8497 407.049 80.2997 408.919 80.8497L412.439 81.8697C415.209 82.6897 418.549 83.7097 418.619 87.7997C418.689 91.6097 415.819 93.9597 411.009 94.0497C405.559 94.1497 401.749 91.3997 401.399 87.3097L401.409 87.3197Z"
            fill="#BFEA88" />
        <path d="M421.51 93.73L421.96 72.04L424.56 72.09L424.11 93.78L421.51 93.73Z" fill="#BFEA88" />
        <path
            d="M427.979 82.8199C428.409 76.3899 432.649 71.9799 439.239 72.4199C444.739 72.7899 448.329 76.3799 448.869 81.7599L446.179 81.5799C445.639 77.5699 443.039 75.0599 439.079 74.7999C434.289 74.4799 431.069 77.5899 430.699 82.9999C430.339 88.4699 433.169 92.0499 437.629 92.3499C441.679 92.6199 444.429 90.0399 444.689 86.1099L437.389 85.6199L437.539 83.3899L445.149 83.8999C447.409 84.0499 448.539 85.2799 448.399 87.3799L447.889 95.0799L445.569 94.9299L446.059 87.5399H445.999C445.279 92.2699 442.269 95.0499 437.469 94.7299C431.499 94.3299 427.519 89.6599 427.979 82.8199Z"
            fill="#BFEA88" />
        <path
            d="M451.24 95.46L454.18 73.96L457.13 74.36L466.86 93.84L469.29 76.02L471.87 76.37L468.93 97.87L465.98 97.47L456.25 77.99L453.82 95.8L451.24 95.45V95.46Z"
            fill="#BFEA88" />
        <path
            d="M490.369 102.19L495.919 81.21L503.319 83.17C509.339 84.77 512.409 90.13 510.789 96.25C509.129 102.51 503.789 105.75 497.759 104.15L490.359 102.19H490.369ZM493.499 100.55L498.529 101.88C502.879 103.03 506.839 100.42 508.129 95.54C509.329 91.02 507.209 86.67 502.859 85.52L497.819 84.19L493.489 100.55H493.499Z"
            fill="#BFEA88" />
        <path
            d="M510.88 107.8L517.72 87.21L531.78 91.88L531.03 94.15L519.41 90.29L517.25 96.79L527.69 100.26L526.96 102.47L516.52 99L514.08 106.35L525.97 110.3L525.22 112.57L510.89 107.81L510.88 107.8Z"
            fill="#BFEA88" />
        <path
            d="M529.37 107.06L531.91 108.07C531.17 110.78 532.97 113.39 536.51 114.8C539.59 116.02 541.71 115.4 542.54 113.29C543.35 111.24 541.87 109.76 540.18 108.39L537.13 105.91C535.72 104.75 532 102.28 533.57 98.3301C534.86 95.0701 538.39 94.0101 542.56 95.6601C547.17 97.4901 549.1 100.95 547.71 105.37L545.2 104.38C546.13 101.45 544.77 99.0701 541.57 97.8101C539.03 96.8001 536.79 97.2501 536.03 99.1801C535.15 101.4 537.27 102.77 538.78 104.01L541.63 106.31C543.87 108.13 546.56 110.37 545.05 114.17C543.64 117.71 540.09 118.77 535.63 117C530.56 114.99 528.11 110.98 529.36 107.08L529.37 107.06Z"
            fill="#BFEA88" />
        <path d="M545.45 120.739L554.25 100.909L556.63 101.969L547.83 121.799L545.45 120.739Z" fill="#BFEA88" />
        <path
            d="M555.62 113.17C558.51 107.41 564.12 104.99 570.03 107.94C574.96 110.41 576.87 115.11 575.29 120.28L572.88 119.07C573.94 115.16 572.51 111.85 568.96 110.07C564.67 107.92 560.49 109.54 558.06 114.39C555.6 119.29 556.83 123.69 560.82 125.69C564.45 127.51 567.99 126.2 569.75 122.68L563.21 119.4L564.21 117.4L571.03 120.82C573.05 121.83 573.62 123.4 572.68 125.28L569.22 132.18L567.14 131.14L570.46 124.52L570.4 124.49C567.9 128.58 564.05 129.97 559.75 127.82C554.4 125.14 552.55 119.29 555.62 113.17Z"
            fill="#BFEA88" />
        <path
            d="M572.17 133.839L583.21 115.159L585.77 116.669L587.19 138.399L596.34 122.919L598.58 124.249L587.54 142.929L584.98 141.419L583.56 119.689L574.41 135.169L572.17 133.839Z"
            fill="#BFEA88" />
        <path
            d="M605.609 155.2L618.839 138L624.909 142.67C629.849 146.47 630.599 152.61 626.749 157.62C622.799 162.75 616.619 163.67 611.679 159.87L605.609 155.2ZM609.129 154.9L613.259 158.08C616.819 160.82 621.479 159.95 624.559 155.94C627.419 152.23 627.139 147.4 623.579 144.66L619.449 141.48L609.129 154.89V154.9Z"
            fill="#BFEA88" />
        <path
            d="M622.37 168.32L636.63 151.96L647.8 161.7L646.23 163.5L637 155.45L632.5 160.62L640.8 167.85L639.27 169.6L630.97 162.37L625.88 168.21L635.32 176.44L633.75 178.24L622.37 168.32Z"
            fill="#BFEA88" />
        <path
            d="M639.71 174.78L641.66 176.69C639.93 178.9 640.58 182.01 643.31 184.67C645.68 186.99 647.88 187.23 649.46 185.61C651 184.04 650.21 182.09 649.18 180.18L647.32 176.72C646.47 175.11 643.99 171.39 646.96 168.35C649.41 165.84 653.07 166.22 656.29 169.36C659.84 172.83 660.28 176.77 657.29 180.31L655.36 178.42C657.35 176.07 657.01 173.36 654.55 170.95C652.6 169.04 650.36 168.59 648.91 170.07C647.24 171.78 648.67 173.87 649.59 175.59L651.34 178.81C652.71 181.36 654.32 184.45 651.46 187.38C648.79 190.11 645.11 189.71 641.67 186.35C637.77 182.54 637.06 177.9 639.72 174.78H639.71Z"
            fill="#BFEA88" />
        <path d="M649.27 193.59L665.039 178.68L666.83 180.57L651.06 195.48L649.27 193.59Z" fill="#BFEA88" />
        <path
            d="M661.569 190.52C666.449 186.31 672.569 186.23 676.889 191.24C680.489 195.42 680.449 200.49 676.999 204.66L675.239 202.62C677.719 199.42 677.679 195.81 675.089 192.8C671.949 189.16 667.469 189.05 663.369 192.59C659.209 196.17 658.659 200.71 661.569 204.09C664.219 207.17 667.989 207.31 670.979 204.74L666.199 199.2L667.889 197.74L672.869 203.52C674.349 205.23 674.269 206.9 672.669 208.28L666.819 213.32L665.299 211.56L670.909 206.72L670.869 206.67C666.989 209.48 662.889 209.29 659.749 205.65C655.839 201.12 656.379 195 661.569 190.53V190.52Z"
            fill="#BFEA88" />
        <path
            d="M668.91 216L686.29 203L688.07 205.38L681.03 225.98L695.43 215.21L696.99 217.3L679.61 230.3L677.83 227.92L684.87 207.32L670.47 218.09L668.91 216Z"
            fill="#BFEA88" />
        <path
            d="M89.7598 532.09L107.84 518.61L108.8 521.13L93.9698 532.17L112.39 530.51L113.3 532.89L98.4298 544.01L116.9 542.33L117.86 544.85L95.3998 546.86L94.3598 544.14L109.08 533.14L90.7998 534.81L89.7598 532.09Z"
            fill="#BFEA88" />
        <path
            d="M99.1001 555.51L118.77 546.36L125.02 559.8L122.86 560.81L117.69 549.71L111.48 552.6L116.12 562.58L114.01 563.56L109.37 553.58L102.34 556.85L107.62 568.21L105.45 569.22L99.0801 555.53L99.1001 555.51Z"
            fill="#BFEA88" />
        <path
            d="M107.27 572.77L126.38 562.48L131.1 571.24C132.89 574.57 132.18 577.95 129.34 579.48C127.29 580.58 124.82 580.05 122.91 578.19C123.76 580.94 122.84 583.55 120.49 584.81C117.41 586.47 113.98 585.21 112.12 581.75L107.29 572.77H107.27ZM110.59 573.9L114.34 580.86C115.37 582.77 117.45 583.37 119.45 582.3C121.58 581.15 121.8 578.89 120.7 576.84L117.2 570.34L110.59 573.9ZM119.24 569.24L122.66 575.6C123.76 577.65 125.89 578.33 127.83 577.29C129.58 576.35 130.09 574.42 129.1 572.59L125.49 565.87L119.24 569.23V569.24Z"
            fill="#BFEA88" />
        <path
            d="M117.34 591.1L135.83 579.75L143.57 592.35L141.54 593.6L135.16 583.22L129.16 586.9L135.05 596.49L133.02 597.74L127.13 588.15L118.7 593.32L117.34 591.1Z"
            fill="#BFEA88" />
        <path
            d="M127.13 606.781L145 594.48L146.48 596.62L130.58 607.57L137.17 617.141L135.2 618.49L127.13 606.771V606.781Z"
            fill="#BFEA88" />
        <path
            d="M144.45 612.791C149.55 608.841 155.66 609.091 159.64 614.231C163.47 619.181 162.6 625.231 157.28 629.351C152.13 633.341 145.97 633.131 141.95 627.931C138.15 623.031 139.03 616.981 144.45 612.781V612.791ZM155.65 627.251C159.89 623.971 160.7 619.501 157.76 615.701C154.84 611.931 150.32 611.621 146.09 614.901C141.8 618.221 140.92 622.711 143.85 626.481C146.81 630.301 151.37 630.571 155.66 627.251H155.65Z"
            fill="#BFEA88" />
        <path
            d="M153.96 642.22L165.94 623.11L167.75 625.11L157.92 640.77L174.49 632.56L176.2 634.45L166.37 650.2L182.98 641.95L184.79 643.95L164.58 653.96L162.62 651.8L172.36 636.22L155.93 644.4L153.97 642.24L153.96 642.22Z"
            fill="#BFEA88" />
        <path
            d="M188.029 676.52L197.239 655.94L199.309 657.67L191.749 674.54L207.009 664.12L208.959 665.75L201.409 682.7L216.709 672.23L218.779 673.96L200.159 686.66L197.929 684.79L205.409 668.02L190.269 678.39L188.039 676.52H188.029Z"
            fill="#BFEA88" />
        <path
            d="M207.58 692.391L220.3 674.811L232.3 683.501L230.9 685.431L220.98 678.251L216.96 683.801L225.88 690.251L224.52 692.131L215.6 685.681L211.06 691.961L221.21 699.301L219.81 701.231L207.58 692.381V692.391Z"
            fill="#BFEA88" />
        <path
            d="M223.109 703.49L234.809 685.2L243.199 690.56C246.389 692.6 247.399 695.9 245.669 698.62C244.419 700.58 241.999 701.31 239.419 700.62C241.499 702.61 241.959 705.34 240.519 707.58C238.629 710.53 235.029 711.1 231.709 708.98L223.119 703.48L223.109 703.49ZM226.559 702.87L233.219 707.13C235.049 708.3 237.159 707.81 238.379 705.91C239.679 703.87 238.779 701.78 236.819 700.53L230.599 696.55L226.559 702.87ZM231.859 694.59L237.949 698.48C239.909 699.73 242.099 699.3 243.289 697.44C244.359 695.77 243.869 693.83 242.119 692.71L235.689 688.6L231.859 694.58V694.59Z"
            fill="#BFEA88" />
        <path
            d="M240.84 714.62L251.47 695.7L264.36 702.94L263.19 705.02L252.57 699.05L249.12 705.18L258.93 710.69L257.76 712.77L247.95 707.26L243.11 715.88L240.84 714.6V714.62Z"
            fill="#BFEA88" />
        <path
            d="M257.01 723.541L266.63 704.091L268.96 705.241L260.4 722.551L270.82 727.711L269.76 729.851L257.01 723.541Z"
            fill="#BFEA88" />
        <path
            d="M275.06 720.361C277.59 714.431 283.04 711.661 289.03 714.211C294.79 716.661 296.97 722.381 294.34 728.571C291.79 734.561 286.31 737.381 280.26 734.801C274.56 732.371 272.37 726.661 275.06 720.351V720.361ZM291.89 727.531C293.99 722.601 292.52 718.301 288.1 716.411C283.71 714.541 279.62 716.471 277.52 721.401C275.4 726.391 276.81 730.731 281.2 732.601C285.65 734.501 289.76 732.511 291.89 727.521V727.531Z"
            fill="#BFEA88" />
        <path
            d="M297.75 741.44L298.88 718.92L301.44 719.78L300.51 738.25L310.96 723L313.37 723.81L312.47 742.36L322.94 727.05L325.5 727.91L312.74 746.51L309.98 745.58L310.87 727.23L300.52 742.39L297.76 741.46L297.75 741.44Z"
            fill="#BFEA88" />
        <path
            d="M344.23 754.71L342.18 732.25L344.83 732.75L346.5 751.16L354.7 734.59L357.2 735.06L358.92 753.55L367.13 736.92L369.78 737.42L359.76 757.62L356.9 757.08L355.21 738.79L347.09 755.25L344.23 754.71Z"
            fill="#BFEA88" />
        <path
            d="M369.06 758.981L371.54 737.431L386.26 739.121L385.99 741.491L373.83 740.091L373.05 746.901L383.98 748.161L383.71 750.471L372.78 749.211L371.89 756.911L384.33 758.341L384.06 760.711L369.06 758.991V758.981Z"
            fill="#BFEA88" />
        <path
            d="M388.02 761.041L389.26 739.381L399.19 739.951C402.97 740.171 405.47 742.541 405.28 745.761C405.15 748.081 403.4 749.911 400.81 750.561C403.59 751.281 405.33 753.431 405.18 756.091C404.98 759.591 402.12 761.841 398.19 761.621L388.01 761.041H388.02ZM390.73 758.801L398.62 759.251C400.79 759.371 402.39 757.911 402.52 755.651C402.66 753.241 400.84 751.861 398.52 751.731L391.16 751.311L390.73 758.801ZM391.29 748.991L398.5 749.401C400.82 749.531 402.52 748.081 402.64 745.881C402.75 743.901 401.38 742.451 399.3 742.341L391.69 741.901L391.28 748.991H391.29Z"
            fill="#BFEA88" />
        <path
            d="M409.12 761.961L409.47 740.271L424.25 740.51L424.21 742.901L412.03 742.701L411.92 749.74L423.17 749.92L423.13 752.31L411.88 752.13L411.72 762.021L409.12 761.98V761.961Z"
            fill="#BFEA88" />
        <path
            d="M427.39 761.941L426.29 740.271L428.89 740.141L429.87 759.431L441.48 758.841L441.6 761.221L427.39 761.941Z"
            fill="#BFEA88" />
        <path
            d="M441.6 750.36C440.91 743.95 444.33 738.88 450.8 738.18C457.03 737.51 461.72 741.44 462.43 748.13C463.12 754.6 459.71 759.74 453.18 760.44C447.01 761.1 442.32 757.17 441.6 750.36ZM459.79 748.42C459.22 743.09 455.84 740.05 451.06 740.56C446.31 741.07 443.68 744.75 444.25 750.08C444.83 755.47 448.18 758.58 452.93 758.07C457.74 757.56 460.36 753.82 459.79 748.42Z"
            fill="#BFEA88" />
        <path
            d="M471.67 757.7L461.68 737.48L464.33 736.99L472.51 753.57L474.21 735.16L476.71 734.7L484.96 751.33L486.65 732.85L489.3 732.36L487.22 754.82L484.35 755.35L476.19 738.89L474.53 757.17L471.66 757.7H471.67Z"
            fill="#BFEA88" />
        <path
            d="M518.74 746.65L506.01 728.03L508.57 727.17L519 742.44L518.09 723.97L520.5 723.16L531.01 738.47L530.08 719.94L532.64 719.08L533.73 741.61L530.97 742.54L520.58 727.39L521.5 745.72L518.74 746.65Z"
            fill="#BFEA88" />
        <path
            d="M542.48 738.3L534.14 718.27L547.82 712.57L548.74 714.77L537.44 719.48L540.07 725.8L550.23 721.57L551.12 723.72L540.96 727.95L543.94 735.1L555.5 730.29L556.42 732.49L542.49 738.29L542.48 738.3Z"
            fill="#BFEA88" />
        <path
            d="M560.069 730.84L550.569 711.33L559.519 706.98C562.919 705.33 566.269 706.18 567.679 709.08C568.699 711.17 568.059 713.62 566.129 715.46C568.909 714.73 571.479 715.75 572.649 718.15C574.179 721.3 572.789 724.67 569.249 726.39L560.079 730.85L560.069 730.84ZM557.039 718.73L563.539 715.57C565.629 714.55 566.399 712.45 565.439 710.47C564.569 708.69 562.659 708.1 560.799 709.01L553.939 712.35L557.049 718.73H557.039ZM561.339 727.57L568.449 724.11C570.399 723.16 571.089 721.1 570.099 719.07C569.039 716.9 566.789 716.58 564.689 717.6L558.059 720.83L561.339 727.58V727.57Z"
            fill="#BFEA88" />
        <path
            d="M578.83 721.511L568.229 702.571L581.13 695.351L582.299 697.431L571.669 703.381L575.109 709.521L584.93 704.031L586.099 706.111L576.28 711.601L581.109 720.231L578.84 721.501L578.83 721.511Z"
            fill="#BFEA88" />
        <path
            d="M594.89 712.37L583.31 694.01L585.51 692.62L595.81 708.96L605.65 702.76L606.92 704.78L594.88 712.37H594.89Z"
            fill="#BFEA88" />
        <path
            d="M601.57 695.33C597.83 690.08 598.32 683.98 603.63 680.21C608.73 676.58 614.74 677.7 618.64 683.18C622.42 688.48 621.96 694.63 616.6 698.44C611.55 702.04 605.54 700.91 601.56 695.33H601.57ZM616.47 684.73C613.36 680.36 608.93 679.37 605.01 682.16C601.12 684.93 600.63 689.42 603.74 693.79C606.89 698.21 611.33 699.27 615.22 696.5C619.16 693.7 619.61 689.15 616.47 684.73Z"
            fill="#BFEA88" />
        <path
            d="M631.38 687.001L612.77 674.261L614.84 672.531L630.09 682.991L622.549 666.101L624.5 664.471L639.84 674.931L632.26 657.991L634.33 656.261L643.51 676.861L641.27 678.731L626.099 668.371L633.599 685.121L631.359 686.991L631.38 687.001Z"
            fill="#BFEA88" />
        <path
            d="M667.02 654.35L646.83 644.31L648.64 642.31L665.19 650.55L655.39 634.88L657.1 633L673.73 641.23L663.89 625.521L665.7 623.521L677.64 642.641L675.68 644.8L659.22 636.651L668.97 652.19L667.01 654.35H667.02Z"
            fill="#BFEA88" />
        <path
            d="M683.69 635.451L666.64 622.021L675.81 610.381L677.69 611.861L670.11 621.481L675.49 625.721L682.3 617.071L684.13 618.511L677.32 627.161L683.41 631.951L691.16 622.111L693.04 623.591L683.7 635.451H683.69Z"
            fill="#BFEA88" />
        <path
            d="M695.39 620.4L677.6 607.98L683.3 599.82C685.47 596.72 688.8 595.84 691.45 597.68C693.36 599.01 693.99 601.46 693.2 604C695.27 602.01 698.01 601.65 700.2 603.18C703.07 605.19 703.49 608.81 701.24 612.03L695.4 620.39L695.39 620.4ZM686.85 611.3L690.98 605.38C692.31 603.47 691.96 601.26 690.16 600C688.53 598.86 686.58 599.28 685.39 600.98L681.02 607.23L686.84 611.29L686.85 611.3ZM694.91 616.93L699.44 610.45C700.68 608.67 700.28 606.54 698.43 605.24C696.45 603.86 694.32 604.68 692.99 606.59L688.77 612.64L694.92 616.93H694.91Z"
            fill="#BFEA88" />
        <path
            d="M707.22 603.14L688.75 591.74L696.52 579.16L698.55 580.41L692.15 590.78L698.14 594.48L704.05 584.9L706.08 586.15L700.17 595.73L708.59 600.92L707.22 603.14Z"
            fill="#BFEA88" />
        <path d="M716.81 587.33L697.77 576.93L699.02 574.64L715.969 583.9L721.539 573.7L723.63 574.84L716.81 587.33Z"
            fill="#BFEA88" />
        <path
            d="M714.359 569.18C708.539 566.41 705.999 560.85 708.789 554.97C711.479 549.31 717.279 547.37 723.349 550.25C729.229 553.04 731.819 558.64 728.999 564.57C726.339 570.17 720.539 572.12 714.349 569.18H714.359ZM722.21 552.66C717.37 550.36 713.009 551.65 710.949 555.99C708.899 560.3 710.659 564.47 715.509 566.77C720.409 569.1 724.809 567.86 726.859 563.55C728.939 559.18 727.119 554.99 722.219 552.66H722.21Z"
            fill="#BFEA88" />
        <path
            d="M736.35 547.371L713.89 545.331L714.86 542.811L733.27 544.501L718.45 533.431L719.36 531.061L737.85 532.711L722.98 521.621L723.95 519.101L742.01 532.611L740.97 535.331L722.67 533.691L737.39 544.651L736.35 547.371Z"
            fill="#BFEA88" />
        <path
            d="M81.3301 391.13V305.05H93.5601C95.2601 318.53 96.6201 330.08 98.6601 347.75H98.8901V305.05H112.03V391.13H100.14C98.4401 378.9 96.9701 368.7 94.8201 352.28H94.5901V391.13H81.3401H81.3301ZM130.24 391.92C120.5 391.92 114.84 388.07 114.84 373.46V322.27C114.84 307.66 120.5 304.15 130.24 304.15C139.98 304.15 145.76 307.55 145.76 322.27V373.46C145.76 388.18 139.76 391.92 130.24 391.92ZM127.86 374.7C127.86 377.64 128.54 379.12 130.35 379.12C132.16 379.12 132.73 377.65 132.73 374.7V321.69C132.73 316.03 132.16 314.78 130.35 314.78C128.54 314.78 127.86 316.03 127.86 321.69V374.7ZM155.97 391.12L146.23 305.04H159.48C160.95 327.01 162.2 348.87 163.67 369.71H163.9C165.71 348.87 167.52 327.01 169.34 305.04H180.55C182.48 327.01 184.29 348.87 186.1 369.71H186.33C187.69 348.87 189.16 327.01 190.52 305.04H203.77L193.8 391.12H180.44C178.63 373.79 176.93 356.12 175.12 338.68H174.89C173.08 356.24 171.15 373.68 169.34 391.12H155.98H155.97ZM212.26 391.12L223.02 305.04H237.18L248.17 391.12H234.81L233.68 377.3H226.66L225.53 391.12H212.28H212.26ZM227.32 365.18H232.98L230.38 324.29H230.04L227.32 365.18ZM263.63 391.91C253.89 391.91 248.23 388.06 248.23 373.45V322.37C248.23 307.65 253.89 304.14 263.63 304.14C273.37 304.14 279.15 307.65 279.15 322.37V345.02H266.13V319.2C266.13 316.26 265.56 314.78 263.75 314.78C261.94 314.78 261.37 316.25 261.37 319.08V375.26C261.37 377.3 261.48 379.11 263.75 379.11C265.56 379.11 266.13 377.98 266.13 375.37V350.34H279.15V373.44C279.15 388.16 273.15 391.9 263.63 391.9V391.91ZM296.7 391.91C286.96 391.91 281.3 388.06 281.3 373.45V322.37C281.3 307.65 286.96 304.14 296.7 304.14C306.44 304.14 312.22 307.65 312.22 322.37V345.02H299.2V319.2C299.2 316.26 298.63 314.78 296.82 314.78C295.01 314.78 294.44 316.25 294.44 319.08V375.26C294.44 377.3 294.55 379.11 296.82 379.11C298.63 379.11 299.2 377.98 299.2 375.37V350.34H312.22V373.44C312.22 388.16 306.22 391.9 296.7 391.9V391.91ZM314.82 391.12V305.04H339.06V317.16H328.19V339.13H337.25V351.25H328.19V379H340.31V391.12H314.83H314.82ZM342.03 305.04H356.98C367.17 305.04 372.95 309.91 372.95 320.67V340.04C372.95 350.8 367.51 355.56 357.43 355.56H355.16V391.12H342.02V305.04H342.03ZM355.17 343.55H357.1C359.59 343.55 359.93 342.3 359.93 339.81V321.12C359.93 318.06 359.02 317.04 356.87 317.04H355.17V343.54V343.55ZM407.05 305.04V317.16H397.08V391.12H383.83V317.16H373.75V305.04H407.05ZM409.39 391.12V305.04H422.75V391.12H409.39ZM425.98 391.12V305.04H438.21C439.91 318.52 441.27 330.07 443.31 347.74H443.54V305.04H456.68V391.12H444.79C443.09 378.89 441.62 368.69 439.47 352.27H439.24V391.12H425.99H425.98ZM472.62 391.91C465.14 391.91 459.48 387.83 459.48 373.45V322.37C459.48 308.55 464.58 304.14 474.88 304.14C484.51 304.14 490.4 307.76 490.4 322.37V340.04H477.38V319.2C477.38 316.26 476.81 314.78 475 314.78C473.19 314.78 472.51 316.14 472.51 319.08V374.92C472.51 377.3 472.74 379.11 475 379.11C476.81 379.11 477.38 377.64 477.38 374.69V361.67L484.29 356.01H476.36V343.89H490.4V391.12H482.25L481.68 385.8H481.45C480.2 390.1 476.58 391.92 472.62 391.92V391.91ZM501.97 391.12V305.04H517.37C527 305.04 532.89 310.02 532.89 321.24V333.93C532.89 339.93 530.51 343.56 526.89 346.05V346.39C530.51 348.77 532.89 352.28 532.89 358.28V373.68C532.89 387.38 527 391.12 517.37 391.12H501.97ZM515.11 379.11H517.04C519.19 379.11 519.87 378.2 519.87 375.15V355.33C519.87 353.18 519.42 351.93 517.04 351.93H515.11V379.11ZM515.11 339.81H517.04C519.53 339.81 519.87 338.22 519.87 335.96V321.01C519.87 318.29 519.19 317.05 517.04 317.05H515.11V339.82V339.81ZM550.33 391.91C540.59 391.91 534.93 388.06 534.93 373.45V322.26C534.93 307.65 540.59 304.14 550.33 304.14C560.07 304.14 565.85 307.54 565.85 322.26V373.45C565.85 388.17 559.85 391.91 550.33 391.91ZM547.95 374.69C547.95 377.63 548.63 379.11 550.44 379.11C552.25 379.11 552.82 377.64 552.82 374.69V321.68C552.82 316.02 552.25 314.77 550.44 314.77C548.63 314.77 547.95 316.02 547.95 321.68V374.69ZM583.51 391.91C573.77 391.91 568.11 388.06 568.11 373.45V322.26C568.11 307.65 573.77 304.14 583.51 304.14C593.25 304.14 599.03 307.54 599.03 322.26V373.45C599.03 388.17 593.03 391.91 583.51 391.91ZM581.13 374.69C581.13 377.63 581.81 379.11 583.62 379.11C585.43 379.11 586 377.64 586 374.69V321.68C586 316.02 585.43 314.77 583.62 314.77C581.81 314.77 581.13 316.02 581.13 321.68V374.69ZM601.74 391.11V305.03H615.1V341.73H615.21L621.1 305.03H635.6L626.88 347.73L634.36 391.11H619.86L615.22 353.85H615.11V391.11H601.75H601.74ZM636.69 391.11V305.03H650.05V391.11H636.69ZM653.28 391.11V305.03H665.51C667.21 318.51 668.57 330.06 670.61 347.73H670.84V305.03H683.98V391.11H672.09C670.39 378.88 668.92 368.68 666.77 352.26H666.54V391.11H653.29H653.28ZM699.92 391.9C692.44 391.9 686.78 387.82 686.78 373.44V322.36C686.78 308.54 691.88 304.13 702.18 304.13C711.81 304.13 717.7 307.75 717.7 322.36V340.03H704.68V319.19C704.68 316.25 704.11 314.77 702.3 314.77C700.49 314.77 699.81 316.13 699.81 319.07V374.91C699.81 377.29 700.04 379.1 702.3 379.1C704.11 379.1 704.68 377.63 704.68 374.68V361.66L711.59 356H703.66V343.88H717.7V391.11H709.55L708.98 385.79H708.75C707.5 390.09 703.88 391.91 699.92 391.91V391.9ZM735.14 391.9C725.63 391.9 719.74 388.16 719.74 373.44V360.3H732.88V374.68C732.88 377.51 732.99 379.1 735.26 379.1C737.3 379.1 737.64 377.51 737.64 374.68V363.47C737.64 359.96 736.28 356.56 733.45 354.07L728.47 349.77C726.32 347.73 724.39 345.81 723.03 343.31C720.88 339.91 719.86 335.5 719.86 328.36V322.02C719.86 307.64 725.52 304.13 735.15 304.13C744.78 304.13 750.67 307.53 750.67 322.14V335.39H737.65V321.8C737.65 319.53 737.65 316.7 735.27 316.7C732.89 316.7 732.89 319.3 732.89 321.8V332.45C732.89 334.15 733.34 335.62 734.36 337.21C735.83 339.48 738.21 341.51 740.82 343.89L746.48 349.21C750.1 352.61 750.67 356.23 750.67 365.29V373.44C750.67 387.48 745.46 391.9 735.15 391.9H735.14Z"
            fill="#BFEA88" />
        <path
            d="M102.4 485.98V399.9H126.64V412.02H115.77V433.99H124.83V446.11H115.77V485.98H102.41H102.4ZM143.12 486.77C133.38 486.77 127.72 482.92 127.72 468.31V417.12C127.72 402.51 133.38 399 143.12 399C152.86 399 158.64 402.4 158.64 417.12V468.31C158.64 483.03 152.64 486.77 143.12 486.77ZM140.74 469.55C140.74 472.49 141.42 473.97 143.23 473.97C145.04 473.97 145.61 472.5 145.61 469.55V416.54C145.61 410.88 145.04 409.63 143.23 409.63C141.42 409.63 140.74 410.88 140.74 416.54V469.55ZM161.35 485.97V399.89H177.66C187.29 399.89 192.27 406.35 192.27 415.18V429.79C192.27 437.38 189.33 441.34 184.57 442.02V442.13C189.55 442.7 192.27 446.66 192.27 452.55V480.64C192.27 483.7 192.38 484.38 193.06 484.94V485.96H180.37C179.8 484.6 179.58 483.24 179.58 475.77V452.55C179.58 450.51 179.13 449.49 177.54 449.49H176.18C174.93 449.49 174.59 450.17 174.59 452.09V485.95H161.34L161.35 485.97ZM174.6 436.48H177.09C178.68 436.48 179.47 435.35 179.47 432.74V415.98C179.47 413.71 179.02 411.9 176.64 411.9H174.6V436.48ZM203.71 399.9H218.66C228.85 399.9 234.63 404.77 234.63 415.53V434.9C234.63 445.66 229.19 450.42 219.11 450.42H216.84V485.98H203.7V399.9H203.71ZM216.85 438.41H218.78C221.27 438.41 221.61 437.16 221.61 434.67V415.98C221.61 412.92 220.7 411.9 218.55 411.9H216.85V438.4V438.41ZM237.67 485.98V399.9H253.98C263.61 399.9 268.59 406.36 268.59 415.19V429.8C268.59 437.39 265.65 441.35 260.89 442.03V442.14C265.87 442.71 268.59 446.67 268.59 452.56V480.65C268.59 483.71 268.7 484.39 269.38 484.95V485.97H256.69C256.12 484.61 255.9 483.25 255.9 475.78V452.56C255.9 450.52 255.45 449.5 253.86 449.5H252.5C251.25 449.5 250.91 450.18 250.91 452.1V485.96H237.66L237.67 485.98ZM250.92 436.49H253.41C255 436.49 255.79 435.36 255.79 432.75V415.99C255.79 413.72 255.34 411.91 252.96 411.91H250.92V436.49ZM286.35 486.78C276.61 486.78 270.95 482.93 270.95 468.32V417.13C270.95 402.52 276.61 399.01 286.35 399.01C296.09 399.01 301.87 402.41 301.87 417.13V468.32C301.87 483.04 295.87 486.78 286.35 486.78ZM283.97 469.56C283.97 472.5 284.65 473.98 286.46 473.98C288.27 473.98 288.84 472.51 288.84 469.56V416.55C288.84 410.89 288.27 409.64 286.46 409.64C284.65 409.64 283.97 410.89 283.97 416.55V469.56ZM318.87 486.78C309.24 486.78 303.35 482.93 303.35 468.32V457.56H316.37V468.55C316.37 470.93 316.71 472.97 318.75 472.97C321.02 472.97 321.24 470.93 321.24 468.67V399.92H334.26V468.33C334.26 482.94 328.48 486.79 318.86 486.79L318.87 486.78ZM337.32 485.99V399.91H361.56V412.03H350.69V434H359.75V446.12H350.69V473.87H362.81V485.99H337.33H337.32ZM379.37 486.78C369.63 486.78 363.97 482.93 363.97 468.32V417.24C363.97 402.52 369.63 399.01 379.37 399.01C389.11 399.01 394.89 402.52 394.89 417.24V439.89H381.87V414.07C381.87 411.13 381.3 409.65 379.49 409.65C377.68 409.65 377.11 411.12 377.11 413.95V470.13C377.11 472.17 377.22 473.98 379.49 473.98C381.3 473.98 381.87 472.85 381.87 470.24V445.21H394.89V468.31C394.89 483.03 388.89 486.77 379.37 486.77V486.78ZM429 399.91V412.03H419.03V485.99H405.78V412.03H395.7V399.91H429ZM445.17 486.78C435.66 486.78 429.77 483.04 429.77 468.32V455.18H442.91V469.56C442.91 472.39 443.02 473.98 445.29 473.98C447.33 473.98 447.67 472.39 447.67 469.56V458.35C447.67 454.84 446.31 451.44 443.48 448.95L438.5 444.65C436.35 442.61 434.42 440.69 433.06 438.19C430.91 434.79 429.89 430.38 429.89 423.24V416.9C429.89 402.52 435.55 399.01 445.18 399.01C454.81 399.01 460.7 402.41 460.7 417.02V430.27H447.68V416.68C447.68 414.41 447.68 411.58 445.3 411.58C442.92 411.58 442.92 414.18 442.92 416.68V427.33C442.92 429.03 443.37 430.5 444.39 432.09C445.86 434.36 448.24 436.39 450.85 438.77L456.51 444.09C460.13 447.49 460.7 451.11 460.7 460.17V468.32C460.7 482.36 455.49 486.78 445.18 486.78H445.17ZM503.99 399.91V412.03H494.02V485.99H480.77V412.03H470.69V399.91H503.99ZM506.33 485.99V399.91H519.47V437.85H524.34V399.91H537.25V485.99H524.34V449.97H519.47V485.99H506.33ZM540.51 485.99V399.91H553.87V485.99H540.51ZM571.6 486.78C562.09 486.78 556.2 483.04 556.2 468.32V455.18H569.34V469.56C569.34 472.39 569.45 473.98 571.72 473.98C573.76 473.98 574.1 472.39 574.1 469.56V458.35C574.1 454.84 572.74 451.44 569.91 448.95L564.93 444.65C562.78 442.61 560.85 440.69 559.49 438.19C557.34 434.79 556.32 430.38 556.32 423.24V416.9C556.32 402.52 561.98 399.01 571.61 399.01C581.24 399.01 587.13 402.41 587.13 417.02V430.27H574.11V416.68C574.11 414.41 574.11 411.58 571.73 411.58C569.35 411.58 569.35 414.18 569.35 416.68V427.33C569.35 429.03 569.8 430.5 570.82 432.09C572.29 434.36 574.67 436.39 577.28 438.77L582.94 444.09C586.56 447.49 587.13 451.11 587.13 460.17V468.32C587.13 482.36 581.92 486.78 571.61 486.78H571.6ZM607.88 485.99V457.45L596.55 399.91H611.05L614.45 436.72H614.68L617.96 399.91H632.46L621.25 457.45V485.99H607.89H607.88ZM634.3 485.99V399.91H658.54V412.03H647.67V434H656.73V446.12H647.67V473.87H659.79V485.99H634.31H634.3ZM660.7 485.99L671.46 399.91H685.62L696.61 485.99H683.25L682.12 472.17H675.1L673.97 485.99H660.72H660.7ZM675.76 460.05H681.42L678.82 419.16H678.48L675.76 460.05ZM698.23 485.99V399.91H714.54C724.17 399.91 729.15 406.37 729.15 415.2V429.81C729.15 437.4 726.21 441.36 721.45 442.04V442.15C726.43 442.72 729.15 446.68 729.15 452.57V480.66C729.15 483.72 729.26 484.4 729.94 484.96V485.98H717.25C716.68 484.62 716.46 483.26 716.46 475.79V452.57C716.46 450.53 716.01 449.51 714.42 449.51H713.06C711.81 449.51 711.47 450.19 711.47 452.11V485.97H698.22L698.23 485.99ZM711.48 436.5H713.97C715.56 436.5 716.35 435.37 716.35 432.76V416C716.35 413.73 715.9 411.92 713.52 411.92H711.48V436.5Z"
            fill="#BFEA88" />
        <path
            d="M415.99 725.94C587.171 725.94 725.94 587.171 725.94 415.99C725.94 244.809 587.171 106.04 415.99 106.04C244.809 106.04 106.04 244.809 106.04 415.99C106.04 587.171 244.809 725.94 415.99 725.94Z"
            fill="#192928" />
        <path
            d="M415.99 726.44C333.07 726.44 255.1 694.15 196.47 635.51C137.83 576.87 105.54 498.91 105.54 415.99C105.54 333.07 137.83 255.1 196.47 196.47C255.11 137.83 333.07 105.54 415.99 105.54C498.91 105.54 576.88 137.83 635.51 196.47C694.14 255.11 726.44 333.07 726.44 415.99C726.44 498.91 694.15 576.88 635.51 635.51C576.87 694.14 498.91 726.44 415.99 726.44ZM415.99 106.53C333.33 106.53 255.62 138.72 197.17 197.17C138.72 255.62 106.53 333.33 106.53 415.99C106.53 498.65 138.72 576.36 197.17 634.81C255.62 693.26 333.33 725.45 415.99 725.45C498.65 725.45 576.36 693.26 634.81 634.81C693.26 576.36 725.45 498.65 725.45 415.99C725.45 333.33 693.26 255.62 634.81 197.17C576.36 138.72 498.65 106.53 415.99 106.53Z"
            fill="#BFEA88" />
    </g>
    <defs>
        <clipPath id="clip0_422_1718">
            <rect width="721.97" height="721.97" fill="white" transform="translate(55 55)" />
        </clipPath>
    </defs>
</svg>