<svg width="833" height="833" viewBox="0 0 833 833" fill="none" xmlns="http://www.w3.org/2000/svg">
    <g clip-path="url(#clip0_422_3310)">
        <path
            d="M416.31 570.12C501.257 570.12 570.12 501.257 570.12 416.31C570.12 331.363 501.257 262.5 416.31 262.5C331.363 262.5 262.5 331.363 262.5 416.31C262.5 501.257 331.363 570.12 416.31 570.12Z"
            fill="#192928" />
        <path
            d="M416.31 570.62C331.22 570.62 262 501.39 262 416.31C262 331.23 331.22 262 416.31 262C501.4 262 570.62 331.22 570.62 416.31C570.62 501.4 501.4 570.62 416.31 570.62ZM416.31 263C331.77 263 263 331.77 263 416.31C263 500.85 331.77 569.62 416.31 569.62C500.85 569.62 569.62 500.85 569.62 416.31C569.62 331.77 500.84 263 416.31 263Z"
            fill="#BFEA88" />
        <path
            d="M342.35 305.37V391.45H355.49V355.89H357.76C367.84 355.89 373.28 351.13 373.28 340.37V321C373.28 310.24 367.5 305.37 357.31 305.37H342.36H342.35ZM360.25 321.45V340.14C360.25 342.63 359.91 343.88 357.42 343.88H355.49V317.38H357.19C359.34 317.38 360.25 318.4 360.25 321.46V321.45Z"
            fill="#BFEA88" />
        <path d="M397.4 391.45V317.49H407.37V305.37H374.07V317.49H384.15V391.45H397.4Z" fill="#BFEA88" />
        <path
            d="M279.47 373.78V350.68H277.18C271.05 363.64 266.68 377.6 264.38 392.24C273.64 392.13 279.47 388.28 279.47 373.78Z"
            fill="#BFEA88" />
        <path d="M339.38 317.49V305.37H315.14V391.45H340.62V379.33H328.5V351.58H337.57V339.46H328.5V317.49H339.38Z"
            fill="#BFEA88" />
        <path
            d="M312.54 373.78V350.68H299.52V375.71C299.52 378.31 298.95 379.45 297.14 379.45C294.87 379.45 294.76 377.64 294.76 375.6V322.08C289.89 328.36 285.49 335.02 281.62 342.02V373.79C281.62 388.4 287.28 392.25 297.02 392.25C306.76 392.25 312.54 388.51 312.54 373.79V373.78Z"
            fill="#BFEA88" />
        <path
            d="M490.72 340.37V322.7C490.72 308.09 484.83 304.47 475.2 304.47C464.89 304.47 459.8 308.89 459.8 322.7V373.78C459.8 388.16 465.46 392.24 472.94 392.24C476.9 392.24 480.53 390.43 481.77 386.12H482L482.57 391.44H490.72V344.21H476.68V356.33H484.61L477.7 361.99V375.01C477.7 377.95 477.13 379.43 475.32 379.43C473.05 379.43 472.83 377.62 472.83 375.24V319.4C472.83 316.46 473.51 315.1 475.32 315.1C477.13 315.1 477.7 316.57 477.7 319.52V340.36H490.72V340.37Z"
            fill="#BFEA88" />
        <path
            d="M299.17 316.649C299.41 317.359 299.52 318.309 299.52 319.529V345.349H312.54V322.699C312.54 314.739 310.78 310.059 307.67 307.439C304.71 310.389 301.88 313.469 299.17 316.649Z"
            fill="#BFEA88" />
        <path
            d="M533.2 374.01V358.61C533.2 352.61 530.82 349.1 527.2 346.72V346.38C530.82 343.89 533.2 340.26 533.2 334.26V321.57C533.2 319.29 532.95 317.28 532.48 315.51C529.67 312.28 526.73 309.17 523.66 306.18C521.88 305.64 519.88 305.37 517.68 305.37H502.28V391.45H517.68C527.31 391.45 533.2 387.71 533.2 374.01ZM520.18 375.48C520.18 378.54 519.5 379.44 517.35 379.44H515.42V352.26H517.35C519.73 352.26 520.18 353.51 520.18 355.66V375.48ZM520.18 336.29C520.18 338.56 519.84 340.14 517.35 340.14H515.42V317.37H517.35C519.5 317.37 520.18 318.62 520.18 321.33V336.28V336.29Z"
            fill="#BFEA88" />
        <path
            d="M553.129 345.98V375.02C553.129 377.96 552.559 379.44 550.749 379.44C548.939 379.44 548.259 377.97 548.259 375.02V337.24C544.399 330.82 540.089 324.7 535.369 318.93C535.279 320.06 535.229 321.27 535.229 322.58V373.77C535.229 388.38 540.889 392.23 550.629 392.23C558.689 392.23 564.229 389.54 565.729 379.77C562.839 367.91 558.579 356.58 553.119 345.97L553.129 345.98Z"
            fill="#BFEA88" />
        <path
            d="M443.63 348.07C441.59 330.4 440.23 318.85 438.53 305.37H426.3V391.45H439.55V352.6H439.78C441.93 369.02 443.4 379.22 445.1 391.45H456.99V305.37H443.85V348.07H443.62H443.63Z"
            fill="#BFEA88" />
        <path d="M423.07 305.37H409.71V391.45H423.07V305.37Z" fill="#BFEA88" />
        <path
            d="M395.21 440.21V417.56C395.21 402.84 389.21 399.33 379.69 399.33C370.17 399.33 364.29 402.84 364.29 417.56V468.64C364.29 483.25 369.95 487.1 379.69 487.1C389.43 487.1 395.21 483.36 395.21 468.64V445.54H382.19V470.57C382.19 473.17 381.62 474.31 379.81 474.31C377.54 474.31 377.43 472.5 377.43 470.46V414.28C377.43 411.45 378 409.98 379.81 409.98C381.62 409.98 382.19 411.45 382.19 414.4V440.22H395.21V440.21Z"
            fill="#BFEA88" />
        <path
            d="M286.68 487.1C296.19 487.1 302.2 483.36 302.2 468.64V417.45C302.2 402.73 296.2 399.33 286.68 399.33C277.16 399.33 271.28 402.84 271.28 417.45V467.62C273.51 473.91 276.12 480.01 279.11 485.9C281.25 486.77 283.78 487.11 286.68 487.11V487.1ZM284.3 416.88C284.3 411.22 284.98 409.97 286.79 409.97C288.6 409.97 289.17 411.22 289.17 416.88V469.89C289.17 472.83 288.6 474.31 286.79 474.31C284.98 474.31 284.3 472.84 284.3 469.89V416.88Z"
            fill="#BFEA88" />
        <path
            d="M264.51 441.16C267.29 439.38 268.91 435.75 268.91 430.12V415.51C268.91 409.97 266.95 405.36 263.1 402.7C262.71 407.18 262.49 411.72 262.49 416.31C262.49 424.77 263.18 433.07 264.5 441.17L264.51 441.16Z"
            fill="#BFEA88" />
        <path
            d="M264.95 443.79C265.97 449.43 267.3 454.95 268.91 460.36V452.89C268.91 448.7 267.53 445.5 264.95 443.79Z"
            fill="#BFEA88" />
        <path d="M361.89 412.34V400.23H337.65V486.3H363.13V474.18H351.01V446.43H360.07V434.32H351.01V412.34H361.89Z"
            fill="#BFEA88" />
        <path
            d="M319.2 487.1C328.83 487.1 334.6 483.25 334.6 468.64V400.23H321.58V468.98C321.58 471.25 321.35 473.28 319.09 473.28C317.05 473.28 316.71 471.24 316.71 468.86V457.87H303.69V468.63C303.69 483.24 309.58 487.09 319.21 487.09L319.2 487.1Z"
            fill="#BFEA88" />
        <path d="M554.19 400.23H540.83V486.31H553.3C553.6 485.72 553.89 485.12 554.19 484.52V400.23Z" fill="#BFEA88" />
        <path d="M419.36 486.3V412.34H429.32V400.23H396.03V412.34H406.11V486.3H419.36Z" fill="#BFEA88" />
        <path
            d="M556.63 417.21V423.55C556.63 430.69 557.65 435.1 559.8 438.5C561.16 440.99 563.08 442.92 565.24 444.96L567.13 446.59C568.34 440.51 569.21 434.3 569.68 427.99C569.68 427.87 569.66 427.75 569.66 427.63V416.98C569.66 415.58 569.66 414.14 570.08 413.15C569.99 408.52 569.69 403.94 569.19 399.42C561.23 400.11 556.63 404.24 556.63 417.2V417.21Z"
            fill="#BFEA88" />
        <path
            d="M556.51 455.5V468.64C556.51 472.16 556.85 475.04 557.49 477.4C560.54 470.36 563.08 463.04 565.07 455.5H556.51Z"
            fill="#BFEA88" />
        <path d="M494.351 486.3V412.34H504.321V400.23H471.021V412.34H481.101V486.3H494.351Z" fill="#BFEA88" />
        <path
            d="M461.01 430.58V417.33C461.01 402.72 455.01 399.32 445.49 399.32C435.97 399.32 430.2 402.83 430.2 417.22V423.56C430.2 430.7 431.22 435.11 433.37 438.51C434.73 441 436.65 442.93 438.81 444.97L443.79 449.27C446.62 451.76 447.98 455.16 447.98 458.67V469.88C447.98 472.71 447.64 474.3 445.6 474.3C443.33 474.3 443.22 472.71 443.22 469.88V455.5H430.08V468.64C430.08 483.36 435.97 487.1 445.48 487.1C455.79 487.1 461 482.68 461 468.64V460.49C461 451.43 460.43 447.8 456.81 444.41L451.15 439.09C448.55 436.71 446.17 434.67 444.69 432.41C443.67 430.82 443.22 429.35 443.22 427.65V417C443.22 414.51 443.22 411.9 445.6 411.9C447.98 411.9 447.98 414.73 447.98 417V430.59H461L461.01 430.58Z"
            fill="#BFEA88" />
        <path d="M537.57 486.3V400.23H524.66V438.17H519.79V400.23H506.65V486.3H519.79V450.29H524.66V486.3H537.57Z"
            fill="#BFEA88" />
        <path
            d="M529.43 520.51C529.71 520.2 530 519.9 530.28 519.59C530.42 518.65 530.26 517.74 529.52 517.09C528.7 516.37 527.64 516.47 526.78 516.96C525.36 517.76 523.87 518.55 522.73 519.68C520.33 522.03 518.05 524.51 515.89 527.08C512.07 531.63 508.49 536.36 505.62 541.55C506.78 540.72 507.92 539.88 509.05 539.02C513.15 532.07 517.96 525.65 523.74 519.97C524.73 519 525.95 518.14 527.22 517.63C529.01 516.91 529.84 517.72 529.59 519.65C529.55 519.94 529.5 520.23 529.44 520.52L529.43 520.51Z"
            fill="#BFEA88" />
        <path
            d="M489.31 550.75C489.32 550.64 489.34 550.53 489.35 550.42C489.41 549.18 488.88 548.12 488.02 547.8C486.87 547.38 486.22 548.18 485.56 548.89C485.41 549.05 485.29 549.25 485.16 549.43C483.8 551.34 482.48 553.29 481.76 555.54C482.72 555.09 483.67 554.63 484.62 554.16C484.85 553.64 485.08 553.11 485.31 552.59C485.47 552.25 486.23 551.83 486.27 551.87C486.54 552.15 486.94 552.52 487.2 552.85C487.89 552.49 488.58 552.13 489.26 551.76C489.25 551.49 489.26 551.17 489.31 550.76V550.75ZM488.24 551.23C488.21 551.46 487.88 551.85 487.76 551.83C487.48 551.77 487.14 551.56 487 551.31C486.58 550.55 487.04 549.8 488.26 549.37C488.26 550.07 488.31 550.66 488.24 551.23Z"
            fill="#BFEA88" />
        <path
            d="M478.77 537.33C477.38 538.14 476.02 539.12 474.89 540.26C471.52 543.69 469.06 547.81 466.4 551.78C465.89 552.53 465.24 553.26 464.5 553.77C463.06 554.77 461.54 555.65 460.01 556.51C457.31 558.02 454.55 559.47 451.48 560.08C449.35 560.5 447.16 560.79 445.21 559.42C444.78 559.12 444.41 558.5 444.35 558C444.32 557.73 444.98 557.28 445.41 557.09C448.99 555.51 452.18 553.46 454.28 550.02C454.86 549.08 455.16 548.05 454.5 547.07C453.87 546.13 452.83 546.22 451.85 546.38C451.59 546.42 451.34 546.5 451.09 546.57C448.89 547.19 447.23 548.61 445.64 550.16C445.05 550.74 444.35 551.24 443.9 551.91C442.13 554.59 440.3 557.15 437.1 558.29C434.78 559.12 432.34 558.48 431.57 556.57C431.14 555.5 431.02 554.25 431.03 553.08C431.05 551.78 431.45 550.5 431.54 549.19C431.59 548.55 431.51 547.56 431.13 547.31C430.7 547.04 429.83 547.4 429.18 547.58C428.72 547.7 428.31 547.99 427.71 548.28C427.71 547.69 427.71 547.36 427.71 547.03C427.71 546.65 427.76 546.28 427.74 545.91C427.69 544.87 427.16 544.36 426.15 544.56C425.51 544.68 424.9 545.01 424.32 545.33C423.59 545.74 422.9 546.23 421.98 546.83C422.01 546.41 421.98 546.24 422.05 546.14C423.34 544.14 424.66 542.15 425.93 540.13C426.15 539.77 426.2 539.3 426.32 538.88C425.87 539 425.35 539.01 424.99 539.25C424.22 539.77 423.59 540.49 422.81 540.98C417.71 544.21 412.11 546.16 406.25 547.44C403.61 548.02 403.61 548 402.7 545.55C402.3 544.46 401.57 544.16 400.63 544.83C399.97 545.3 399.33 545.88 398.89 546.55C397.87 548.1 396.92 549.71 396.06 551.36C395.67 552.11 395.24 552.26 394.46 552.14C393.33 551.96 392.16 551.76 391.02 551.83C388.64 551.98 386.27 552.28 383.91 552.57C383.15 552.66 382.53 552.69 382.14 551.85C381.25 549.94 379.82 548.45 378.16 547.23C372.16 542.82 365.33 540.17 358.36 537.8C356.22 537.07 354.05 536.3 352.08 535.22C349.74 533.94 349.15 531.52 350.04 529C350.83 526.77 352.34 525.17 354.18 523.84C361.46 518.57 369.27 514.41 378 512.06C382.61 510.82 387.27 510.04 392.04 510.43C393.64 510.56 395.27 511.05 396.74 511.72C399.02 512.75 399.8 515.03 398.7 517.26C397.98 518.72 397.09 520.16 395.98 521.33C392.76 524.74 389.53 528.18 385.13 530.18C383.92 530.73 383.48 531.93 384 532.62C384.44 533.21 385.52 533.14 386.51 532.29C389.49 529.76 392.55 527.29 395.35 524.56C397.02 522.94 398.43 520.99 399.66 519.01C401.38 516.25 400.88 513.09 398.72 511.26C397.19 509.96 395.35 509.31 393.4 509.13C386.4 508.5 379.66 509.8 373.06 512.03C367.49 513.9 362.27 516.53 357.23 519.55C354.47 521.2 351.73 522.91 349.7 525.47C346.29 529.76 346.78 535.58 352.63 537.99C353.59 538.39 354.57 538.77 355.55 539.12C362.04 541.45 368.55 543.79 374.47 547.36C376.47 548.57 378.14 550.37 379.85 552.02C380.6 552.74 380.36 553.21 379.35 553.5C376.2 554.42 373.03 555.26 369.92 556.29C366.85 557.3 363.82 558.44 360.93 559.84C361.32 559.99 361.71 560.14 362.11 560.29C365.15 558.82 368.31 557.61 371.57 556.62C374.28 555.79 377 555.04 379.74 554.32C380.94 554 381.08 554.2 381.21 555.4C381.64 559.18 379.65 561.98 377.25 564.41C377.06 564.6 376.86 564.77 376.67 564.95C377.29 565.12 377.92 565.28 378.54 565.44C381.53 562.47 383.66 559.05 383.15 554.44C383.07 553.7 383.5 553.47 384.12 553.34C387.24 552.71 390.39 552.38 393.58 552.62C395.14 552.74 395.09 552.75 395.18 554.32C395.24 555.54 395.26 556.95 396.63 557.49C398.04 558.04 399.02 557.06 399.93 556.14C400.06 556.01 400.17 555.85 400.29 555.71C401.77 553.9 402.6 551.79 403.06 549.54C403.21 548.77 403.59 548.48 404.31 548.36C409.76 547.49 414.85 545.48 419.88 543.32C420.67 542.98 421.46 542.64 422.5 542.2C422.34 542.74 422.32 543 422.2 543.2C420.05 546.7 418.05 550.29 415.25 553.35C413.87 554.86 412.69 556.56 411.46 558.2C411.13 558.64 410.85 559.15 410.7 559.68C410.47 560.51 411.1 561.1 411.9 560.83C412.3 560.7 412.72 560.42 412.97 560.09C414.06 558.67 415.25 557.29 416.11 555.74C418.17 552.03 421.31 549.43 424.59 546.95C424.97 546.67 425.43 546.5 425.86 546.28C425.97 546.38 426.08 546.48 426.2 546.58C425.64 547.85 425.1 549.14 424.5 550.39C423.95 551.54 423.29 552.63 422.8 553.79C422.67 554.09 422.95 554.57 423.05 554.97C423.42 554.88 423.87 554.89 424.14 554.67C424.52 554.39 424.74 553.92 425.07 553.56C426.52 551.97 427.97 550.38 429.45 548.82C429.65 548.6 429.99 548.52 430.58 548.19C430.47 549.3 430.36 550.08 430.31 550.88C430.22 552.22 430.02 553.57 430.1 554.9C430.26 557.53 432.31 559.35 434.93 559.37C437.34 559.39 439.31 558.31 441.14 556.88C441.55 556.56 441.96 556.22 442.5 555.78C442.55 556.21 442.58 556.39 442.59 556.57C442.68 558.84 444.19 560.89 446.33 561.51C448.09 562.02 449.89 561.92 451.63 561.4C455.66 560.2 459.43 558.44 462.86 555.98C463.16 555.76 463.51 555.6 463.85 555.42C463.8 556.01 463.6 556.39 463.38 556.77C462.33 558.58 461.1 560.31 460.27 562.21C459.98 562.87 459.64 563.47 459.26 564.04C461.03 563.53 462.78 562.98 464.52 562.41C467.69 560.34 470.95 558.44 474.38 556.8C475.22 556.4 476.06 555.99 476.9 555.59C471.71 557.27 467.04 560 462.27 562.62C462.29 562.13 462.4 561.77 462.59 561.47C465.42 556.87 468.17 552.21 471.13 547.69C472.66 545.35 474.5 543.22 476.31 541.09C476.97 540.31 477.93 539.78 478.75 539.13C478.85 539.21 478.95 539.28 479.05 539.36C479.02 539.67 479.06 540.01 478.97 540.3C478.45 541.93 477.85 543.54 477.39 545.19C477.24 545.72 477.22 546.67 477.51 546.86C478.28 547.35 478.82 546.65 479.15 546.01C479.8 544.71 480.53 543.42 480.93 542.04C481.25 540.93 481.29 539.68 481.14 538.53C480.97 537.31 479.83 536.72 478.77 537.34V537.33ZM398.54 555.47C398.24 555.75 397.81 555.95 397.42 556.03C397.31 556.05 396.94 555.46 396.96 555.17C396.99 554.79 397.3 554.43 397.38 554.28C397.55 553.28 397.5 552.47 397.83 551.89C398.54 550.65 399.42 549.5 400.3 548.36C400.5 548.11 401.17 547.87 401.31 547.99C401.58 548.23 401.81 548.76 401.74 549.1C401.27 551.51 400.38 553.75 398.54 555.46V555.47ZM444.11 555.52C444.53 554.52 444.76 553.39 445.4 552.56C446.99 550.47 448.9 548.68 451.49 547.88C451.97 547.73 452.54 547.87 453.07 547.87C453.01 548.39 453.09 548.99 452.85 549.4C451.69 551.38 449.88 552.71 447.99 553.91C446.88 554.62 445.71 555.22 444.56 555.87C444.41 555.76 444.26 555.64 444.1 555.53L444.11 555.52Z"
            fill="#BFEA88" />
    </g>
    <defs>
        <clipPath id="clip0_422_3310">
            <rect width="308.62" height="336.15" fill="white" transform="translate(262 262)" />
        </clipPath>
    </defs>
</svg>